<mxfile host="app.diagrams.net" agent="Mozilla/5.0 (Windows NT 10.0; Win64; x64) AppleWebKit/537.36 (KHTML, like Gecko) Chrome/135.0.0.0 Safari/537.36" version="26.2.9" pages="3">
  <diagram name="Page-1" id="woCNeF-A8Swy-AQIV25C">
    <mxGraphModel dx="1283" dy="527" grid="1" gridSize="10" guides="1" tooltips="1" connect="1" arrows="1" fold="1" page="1" pageScale="1" pageWidth="850" pageHeight="1100" math="0" shadow="0">
      <root>
        <mxCell id="0" />
        <mxCell id="1" parent="0" />
        <mxCell id="4PZDsu9GYQmbysmXE2yF-1" value="" style="rounded=1;whiteSpace=wrap;html=1;glass=0;strokeColor=#001DBC;fillStyle=solid;fillColor=#000000;fontColor=#ffffff;" parent="1" vertex="1">
          <mxGeometry x="120" y="40" width="280" height="540" as="geometry" />
        </mxCell>
        <mxCell id="4PZDsu9GYQmbysmXE2yF-2" value="" style="rounded=1;whiteSpace=wrap;html=1;gradientDirection=north;fillColor=#7B904B;" parent="1" vertex="1">
          <mxGeometry x="130" y="50" width="260" height="520" as="geometry" />
        </mxCell>
        <mxCell id="4PZDsu9GYQmbysmXE2yF-3" value="" style="rounded=1;whiteSpace=wrap;html=1;fillColor=#000000;" parent="1" vertex="1">
          <mxGeometry x="210" y="40" width="100" height="30" as="geometry" />
        </mxCell>
        <mxCell id="4PZDsu9GYQmbysmXE2yF-4" value="&lt;h1 style=&quot;margin-top: 0px;&quot;&gt;Welcome to Recipe Manager App&lt;/h1&gt;&lt;div&gt;Create, manage and rate your recipes.&amp;nbsp;&lt;/div&gt;&lt;div&gt;You forgot to add an ingerdient? No problem, you can edit your recipes anytime anywhere.&amp;nbsp;&lt;/div&gt;" style="text;html=1;whiteSpace=wrap;overflow=hidden;rounded=0;fontColor=#FFFFFF;" parent="1" vertex="1">
          <mxGeometry x="140" y="90" width="240" height="150" as="geometry" />
        </mxCell>
        <mxCell id="4PZDsu9GYQmbysmXE2yF-5" value="Create a new recipe" style="rounded=1;whiteSpace=wrap;html=1;gradientDirection=north;fillColor=#DFC35D;fontColor=#000000;strokeColor=default;fontStyle=1" parent="1" vertex="1">
          <mxGeometry x="150" y="244" width="220" height="40" as="geometry" />
        </mxCell>
        <mxCell id="4PZDsu9GYQmbysmXE2yF-6" value="List of recipes" style="rounded=1;whiteSpace=wrap;html=1;gradientDirection=north;strokeColor=default;fontStyle=1;fillColor=#B8A693;" parent="1" vertex="1">
          <mxGeometry x="150" y="300" width="220" height="60" as="geometry" />
        </mxCell>
        <mxCell id="4PZDsu9GYQmbysmXE2yF-7" value="" style="rounded=1;whiteSpace=wrap;html=1;glass=0;strokeColor=#001DBC;fillStyle=solid;fillColor=#000000;fontColor=#ffffff;" parent="1" vertex="1">
          <mxGeometry x="120" y="600" width="280" height="540" as="geometry" />
        </mxCell>
        <mxCell id="4PZDsu9GYQmbysmXE2yF-8" value="" style="rounded=1;whiteSpace=wrap;html=1;gradientDirection=north;fillColor=#7B904B;" parent="1" vertex="1">
          <mxGeometry x="130" y="610" width="260" height="520" as="geometry" />
        </mxCell>
        <mxCell id="4PZDsu9GYQmbysmXE2yF-9" value="" style="rounded=1;whiteSpace=wrap;html=1;fillColor=#000000;" parent="1" vertex="1">
          <mxGeometry x="210" y="600" width="100" height="30" as="geometry" />
        </mxCell>
        <mxCell id="4PZDsu9GYQmbysmXE2yF-10" value="&lt;h1 style=&quot;margin-top: 0px;&quot;&gt;Create a new recipe&lt;/h1&gt;&lt;div&gt;&lt;br&gt;&lt;/div&gt;" style="text;html=1;whiteSpace=wrap;overflow=hidden;rounded=0;fontColor=#FFFFFF;" parent="1" vertex="1">
          <mxGeometry x="140" y="650" width="240" height="50" as="geometry" />
        </mxCell>
        <mxCell id="4PZDsu9GYQmbysmXE2yF-11" value="" style="rounded=1;whiteSpace=wrap;html=1;gradientDirection=north;fillColor=#B8A693;fontColor=#FFFFFF;strokeColor=none;" parent="1" vertex="1">
          <mxGeometry x="140" y="700" width="240" height="390" as="geometry" />
        </mxCell>
        <mxCell id="4PZDsu9GYQmbysmXE2yF-12" value="Name of the dish" style="text;html=1;align=left;verticalAlign=middle;whiteSpace=wrap;rounded=0;fontColor=#FFFFFF;" parent="1" vertex="1">
          <mxGeometry x="150" y="730" width="120" height="30" as="geometry" />
        </mxCell>
        <mxCell id="4PZDsu9GYQmbysmXE2yF-13" value="Ingredients" style="text;html=1;align=left;verticalAlign=middle;whiteSpace=wrap;rounded=0;fontColor=#FFFFFF;" parent="1" vertex="1">
          <mxGeometry x="150" y="770" width="120" height="30" as="geometry" />
        </mxCell>
        <mxCell id="4PZDsu9GYQmbysmXE2yF-14" value="Instructions for how to prepare the dish" style="text;html=1;align=left;verticalAlign=middle;whiteSpace=wrap;rounded=0;fontColor=#FFFFFF;" parent="1" vertex="1">
          <mxGeometry x="150" y="815" width="120" height="30" as="geometry" />
        </mxCell>
        <mxCell id="4PZDsu9GYQmbysmXE2yF-15" style="edgeStyle=orthogonalEdgeStyle;rounded=0;orthogonalLoop=1;jettySize=auto;html=1;exitX=0.75;exitY=0;exitDx=0;exitDy=0;entryX=0.75;entryY=1;entryDx=0;entryDy=0;" parent="1" source="4PZDsu9GYQmbysmXE2yF-16" edge="1">
          <mxGeometry relative="1" as="geometry">
            <mxPoint x="240" y="865" as="targetPoint" />
          </mxGeometry>
        </mxCell>
        <mxCell id="4PZDsu9GYQmbysmXE2yF-16" value="Additional info" style="text;html=1;align=left;verticalAlign=middle;whiteSpace=wrap;rounded=0;fontColor=#FFFFFF;" parent="1" vertex="1">
          <mxGeometry x="150" y="910" width="120" height="30" as="geometry" />
        </mxCell>
        <mxCell id="4PZDsu9GYQmbysmXE2yF-17" value="Discard" style="rounded=1;whiteSpace=wrap;html=1;gradientDirection=north;fillColor=#6D1842;fontColor=#FFFFFF;strokeColor=default;" parent="1" vertex="1">
          <mxGeometry x="160" y="1030" width="80" height="40" as="geometry" />
        </mxCell>
        <mxCell id="4PZDsu9GYQmbysmXE2yF-18" value="Add" style="rounded=1;whiteSpace=wrap;html=1;gradientDirection=north;fillColor=#DFC35D;fontColor=#000000;strokeColor=default;fontStyle=1" parent="1" vertex="1">
          <mxGeometry x="280" y="1030" width="80" height="40" as="geometry" />
        </mxCell>
        <mxCell id="4PZDsu9GYQmbysmXE2yF-19" value="" style="rounded=1;whiteSpace=wrap;html=1;" parent="1" vertex="1">
          <mxGeometry x="150" y="750" width="120" height="20" as="geometry" />
        </mxCell>
        <mxCell id="4PZDsu9GYQmbysmXE2yF-20" value="" style="rounded=1;whiteSpace=wrap;html=1;" parent="1" vertex="1">
          <mxGeometry x="150" y="790" width="120" height="20" as="geometry" />
        </mxCell>
        <mxCell id="4PZDsu9GYQmbysmXE2yF-21" value="" style="rounded=1;whiteSpace=wrap;html=1;" parent="1" vertex="1">
          <mxGeometry x="150" y="845" width="140" height="65" as="geometry" />
        </mxCell>
        <mxCell id="4PZDsu9GYQmbysmXE2yF-22" value="" style="rounded=1;whiteSpace=wrap;html=1;" parent="1" vertex="1">
          <mxGeometry x="150" y="930" width="140" height="65" as="geometry" />
        </mxCell>
        <mxCell id="4PZDsu9GYQmbysmXE2yF-23" value="" style="rounded=1;whiteSpace=wrap;html=1;glass=0;strokeColor=#001DBC;fillStyle=solid;fillColor=#000000;fontColor=#ffffff;" parent="1" vertex="1">
          <mxGeometry x="440" y="40" width="280" height="540" as="geometry" />
        </mxCell>
        <mxCell id="4PZDsu9GYQmbysmXE2yF-24" value="" style="rounded=1;whiteSpace=wrap;html=1;gradientDirection=north;fillColor=#7B904B;" parent="1" vertex="1">
          <mxGeometry x="450" y="50" width="260" height="520" as="geometry" />
        </mxCell>
        <mxCell id="4PZDsu9GYQmbysmXE2yF-25" value="" style="rounded=1;whiteSpace=wrap;html=1;fillColor=#000000;" parent="1" vertex="1">
          <mxGeometry x="530" y="40" width="100" height="30" as="geometry" />
        </mxCell>
        <mxCell id="4PZDsu9GYQmbysmXE2yF-26" value="&lt;h1 style=&quot;margin-top: 0px;&quot;&gt;List of recipes&lt;/h1&gt;" style="text;html=1;whiteSpace=wrap;overflow=hidden;rounded=0;fontColor=#FFFFFF;" parent="1" vertex="1">
          <mxGeometry x="460" y="90" width="240" height="50" as="geometry" />
        </mxCell>
        <mxCell id="4PZDsu9GYQmbysmXE2yF-27" style="edgeStyle=orthogonalEdgeStyle;rounded=0;orthogonalLoop=1;jettySize=auto;html=1;exitX=0.75;exitY=0;exitDx=0;exitDy=0;entryX=0.75;entryY=1;entryDx=0;entryDy=0;" parent="1" edge="1">
          <mxGeometry relative="1" as="geometry">
            <mxPoint x="560" y="284" as="targetPoint" />
            <mxPoint x="560" y="284" as="sourcePoint" />
          </mxGeometry>
        </mxCell>
        <mxCell id="4PZDsu9GYQmbysmXE2yF-28" value="Search" style="rounded=1;whiteSpace=wrap;html=1;strokeColor=#000000;fontColor=#000000;fontStyle=1" parent="1" vertex="1">
          <mxGeometry x="460" y="130" width="240" height="30" as="geometry" />
        </mxCell>
        <mxCell id="4PZDsu9GYQmbysmXE2yF-29" value="" style="rounded=1;whiteSpace=wrap;html=1;fillColor=#B8A693;" parent="1" vertex="1">
          <mxGeometry x="460" y="234" width="240" height="50" as="geometry" />
        </mxCell>
        <mxCell id="4PZDsu9GYQmbysmXE2yF-30" value="Trdelnik" style="text;html=1;align=center;verticalAlign=middle;whiteSpace=wrap;rounded=0;fontColor=#FFFFFF;" parent="1" vertex="1">
          <mxGeometry x="480" y="244" width="60" height="30" as="geometry" />
        </mxCell>
        <mxCell id="4PZDsu9GYQmbysmXE2yF-31" value="" style="verticalLabelPosition=bottom;verticalAlign=top;html=1;shape=mxgraph.basic.star;fillColor=#DFC35D;" parent="1" vertex="1">
          <mxGeometry x="590" y="246.5" width="30" height="25" as="geometry" />
        </mxCell>
        <mxCell id="4PZDsu9GYQmbysmXE2yF-32" style="edgeStyle=orthogonalEdgeStyle;rounded=0;orthogonalLoop=1;jettySize=auto;html=1;exitX=0.75;exitY=0;exitDx=0;exitDy=0;entryX=0.75;entryY=1;entryDx=0;entryDy=0;" parent="1" edge="1">
          <mxGeometry relative="1" as="geometry">
            <mxPoint x="560" y="340" as="targetPoint" />
            <mxPoint x="560" y="340" as="sourcePoint" />
          </mxGeometry>
        </mxCell>
        <mxCell id="4PZDsu9GYQmbysmXE2yF-33" value="" style="rounded=1;whiteSpace=wrap;html=1;fillColor=#B8A693;" parent="1" vertex="1">
          <mxGeometry x="460" y="290" width="240" height="50" as="geometry" />
        </mxCell>
        <mxCell id="4PZDsu9GYQmbysmXE2yF-34" value="Butter Chicken" style="text;html=1;align=center;verticalAlign=middle;whiteSpace=wrap;rounded=0;fontColor=#FFFFFF;" parent="1" vertex="1">
          <mxGeometry x="480" y="300" width="60" height="30" as="geometry" />
        </mxCell>
        <mxCell id="4PZDsu9GYQmbysmXE2yF-35" value="" style="verticalLabelPosition=bottom;verticalAlign=top;html=1;shape=mxgraph.basic.star;fillColor=#DFC35D;" parent="1" vertex="1">
          <mxGeometry x="590" y="302.5" width="30" height="25" as="geometry" />
        </mxCell>
        <mxCell id="4PZDsu9GYQmbysmXE2yF-36" style="edgeStyle=orthogonalEdgeStyle;rounded=0;orthogonalLoop=1;jettySize=auto;html=1;exitX=0.75;exitY=0;exitDx=0;exitDy=0;entryX=0.75;entryY=1;entryDx=0;entryDy=0;" parent="1" edge="1">
          <mxGeometry relative="1" as="geometry">
            <mxPoint x="560" y="224.5" as="targetPoint" />
            <mxPoint x="560" y="224.5" as="sourcePoint" />
          </mxGeometry>
        </mxCell>
        <mxCell id="4PZDsu9GYQmbysmXE2yF-37" value="" style="rounded=1;whiteSpace=wrap;html=1;fillColor=#B8A693;" parent="1" vertex="1">
          <mxGeometry x="460" y="174.5" width="240" height="50" as="geometry" />
        </mxCell>
        <mxCell id="4PZDsu9GYQmbysmXE2yF-38" value="Bolognese sauce" style="text;html=1;align=center;verticalAlign=middle;whiteSpace=wrap;rounded=0;fontColor=#FFFFFF;" parent="1" vertex="1">
          <mxGeometry x="480" y="184.5" width="60" height="30" as="geometry" />
        </mxCell>
        <mxCell id="4PZDsu9GYQmbysmXE2yF-39" value="" style="verticalLabelPosition=bottom;verticalAlign=top;html=1;shape=mxgraph.basic.star;fillColor=#DFC35D;" parent="1" vertex="1">
          <mxGeometry x="590" y="187" width="30" height="25" as="geometry" />
        </mxCell>
        <mxCell id="4PZDsu9GYQmbysmXE2yF-40" style="edgeStyle=orthogonalEdgeStyle;rounded=0;orthogonalLoop=1;jettySize=auto;html=1;exitX=0.75;exitY=0;exitDx=0;exitDy=0;entryX=0.75;entryY=1;entryDx=0;entryDy=0;" parent="1" edge="1">
          <mxGeometry relative="1" as="geometry">
            <mxPoint x="560" y="400" as="targetPoint" />
            <mxPoint x="560" y="400" as="sourcePoint" />
          </mxGeometry>
        </mxCell>
        <mxCell id="4PZDsu9GYQmbysmXE2yF-41" value="" style="rounded=1;whiteSpace=wrap;html=1;fillColor=#B8A693;" parent="1" vertex="1">
          <mxGeometry x="460" y="350" width="240" height="50" as="geometry" />
        </mxCell>
        <mxCell id="4PZDsu9GYQmbysmXE2yF-42" value="Gordon Bleu" style="text;html=1;align=center;verticalAlign=middle;whiteSpace=wrap;rounded=0;fontColor=#FFFFFF;" parent="1" vertex="1">
          <mxGeometry x="480" y="360" width="60" height="30" as="geometry" />
        </mxCell>
        <mxCell id="4PZDsu9GYQmbysmXE2yF-43" value="" style="verticalLabelPosition=bottom;verticalAlign=top;html=1;shape=mxgraph.basic.star;fillColor=#DFC35D;" parent="1" vertex="1">
          <mxGeometry x="590" y="362.5" width="30" height="25" as="geometry" />
        </mxCell>
        <mxCell id="4PZDsu9GYQmbysmXE2yF-44" style="edgeStyle=orthogonalEdgeStyle;rounded=0;orthogonalLoop=1;jettySize=auto;html=1;exitX=0.75;exitY=0;exitDx=0;exitDy=0;entryX=0.75;entryY=1;entryDx=0;entryDy=0;" parent="1" edge="1">
          <mxGeometry relative="1" as="geometry">
            <mxPoint x="560" y="460" as="targetPoint" />
            <mxPoint x="560" y="460" as="sourcePoint" />
          </mxGeometry>
        </mxCell>
        <mxCell id="4PZDsu9GYQmbysmXE2yF-45" value="" style="rounded=1;whiteSpace=wrap;html=1;fillColor=#B8A693;" parent="1" vertex="1">
          <mxGeometry x="460" y="410" width="240" height="50" as="geometry" />
        </mxCell>
        <mxCell id="4PZDsu9GYQmbysmXE2yF-46" value="Apple Pie" style="text;html=1;align=center;verticalAlign=middle;whiteSpace=wrap;rounded=0;fontColor=#FFFFFF;" parent="1" vertex="1">
          <mxGeometry x="480" y="420" width="60" height="30" as="geometry" />
        </mxCell>
        <mxCell id="4PZDsu9GYQmbysmXE2yF-47" value="" style="verticalLabelPosition=bottom;verticalAlign=top;html=1;shape=mxgraph.basic.star;fillColor=#DFC35D;" parent="1" vertex="1">
          <mxGeometry x="590" y="422.5" width="30" height="25" as="geometry" />
        </mxCell>
        <mxCell id="4PZDsu9GYQmbysmXE2yF-48" value="Home" style="rounded=1;whiteSpace=wrap;html=1;strokeColor=default;fillColor=#DFC35D;fontColor=#000000;fontStyle=1" parent="1" vertex="1">
          <mxGeometry x="460" y="500" width="240" height="50" as="geometry" />
        </mxCell>
        <mxCell id="4PZDsu9GYQmbysmXE2yF-49" value="" style="rounded=1;whiteSpace=wrap;html=1;glass=0;strokeColor=#001DBC;fillStyle=solid;fillColor=#000000;fontColor=#ffffff;" parent="1" vertex="1">
          <mxGeometry x="440" y="600" width="280" height="540" as="geometry" />
        </mxCell>
        <mxCell id="4PZDsu9GYQmbysmXE2yF-50" value="" style="rounded=1;whiteSpace=wrap;html=1;gradientDirection=north;fillColor=#7B904B;" parent="1" vertex="1">
          <mxGeometry x="450" y="610" width="260" height="520" as="geometry" />
        </mxCell>
        <mxCell id="4PZDsu9GYQmbysmXE2yF-51" value="" style="rounded=1;whiteSpace=wrap;html=1;fillColor=#000000;" parent="1" vertex="1">
          <mxGeometry x="530" y="600" width="100" height="30" as="geometry" />
        </mxCell>
        <mxCell id="4PZDsu9GYQmbysmXE2yF-52" value="&lt;h1 style=&quot;margin-top: 0px;&quot;&gt;Create a new recipe&lt;/h1&gt;&lt;div&gt;&lt;br&gt;&lt;/div&gt;" style="text;html=1;whiteSpace=wrap;overflow=hidden;rounded=0;fontColor=#FFFFFF;" parent="1" vertex="1">
          <mxGeometry x="460" y="650" width="240" height="50" as="geometry" />
        </mxCell>
        <mxCell id="4PZDsu9GYQmbysmXE2yF-53" value="" style="rounded=1;whiteSpace=wrap;html=1;gradientDirection=north;fillColor=#000099;fontColor=#FFFFFF;strokeColor=none;" parent="1" vertex="1">
          <mxGeometry x="460" y="700" width="240" height="390" as="geometry" />
        </mxCell>
        <mxCell id="4PZDsu9GYQmbysmXE2yF-54" value="Name of the dish" style="text;html=1;align=left;verticalAlign=middle;whiteSpace=wrap;rounded=0;fontColor=#FFFFFF;" parent="1" vertex="1">
          <mxGeometry x="470" y="730" width="120" height="30" as="geometry" />
        </mxCell>
        <mxCell id="4PZDsu9GYQmbysmXE2yF-55" value="Ingredients" style="text;html=1;align=left;verticalAlign=middle;whiteSpace=wrap;rounded=0;fontColor=#FFFFFF;" parent="1" vertex="1">
          <mxGeometry x="470" y="770" width="120" height="30" as="geometry" />
        </mxCell>
        <mxCell id="4PZDsu9GYQmbysmXE2yF-56" value="Instructions for how to prepare the dish" style="text;html=1;align=left;verticalAlign=middle;whiteSpace=wrap;rounded=0;fontColor=#FFFFFF;" parent="1" vertex="1">
          <mxGeometry x="470" y="815" width="120" height="30" as="geometry" />
        </mxCell>
        <mxCell id="4PZDsu9GYQmbysmXE2yF-57" style="edgeStyle=orthogonalEdgeStyle;rounded=0;orthogonalLoop=1;jettySize=auto;html=1;exitX=0.75;exitY=0;exitDx=0;exitDy=0;entryX=0.75;entryY=1;entryDx=0;entryDy=0;" parent="1" source="4PZDsu9GYQmbysmXE2yF-58" edge="1">
          <mxGeometry relative="1" as="geometry">
            <mxPoint x="560" y="865" as="targetPoint" />
          </mxGeometry>
        </mxCell>
        <mxCell id="4PZDsu9GYQmbysmXE2yF-58" value="Additional info" style="text;html=1;align=left;verticalAlign=middle;whiteSpace=wrap;rounded=0;fontColor=#FFFFFF;" parent="1" vertex="1">
          <mxGeometry x="470" y="910" width="120" height="30" as="geometry" />
        </mxCell>
        <mxCell id="4PZDsu9GYQmbysmXE2yF-59" value="Discard" style="rounded=1;whiteSpace=wrap;html=1;gradientDirection=north;fillColor=#FF0000;fontColor=#FFFFFF;strokeColor=none;" parent="1" vertex="1">
          <mxGeometry x="480" y="1030" width="80" height="40" as="geometry" />
        </mxCell>
        <mxCell id="4PZDsu9GYQmbysmXE2yF-60" value="Add" style="rounded=1;whiteSpace=wrap;html=1;gradientDirection=north;fillColor=#FF8000;fontColor=#FFFFFF;strokeColor=none;" parent="1" vertex="1">
          <mxGeometry x="600" y="1030" width="80" height="40" as="geometry" />
        </mxCell>
        <mxCell id="4PZDsu9GYQmbysmXE2yF-61" value="" style="rounded=1;whiteSpace=wrap;html=1;" parent="1" vertex="1">
          <mxGeometry x="470" y="750" width="120" height="20" as="geometry" />
        </mxCell>
        <mxCell id="4PZDsu9GYQmbysmXE2yF-62" value="" style="rounded=1;whiteSpace=wrap;html=1;" parent="1" vertex="1">
          <mxGeometry x="470" y="790" width="120" height="20" as="geometry" />
        </mxCell>
        <mxCell id="4PZDsu9GYQmbysmXE2yF-63" value="" style="rounded=1;whiteSpace=wrap;html=1;" parent="1" vertex="1">
          <mxGeometry x="470" y="845" width="140" height="65" as="geometry" />
        </mxCell>
        <mxCell id="4PZDsu9GYQmbysmXE2yF-64" value="" style="rounded=1;whiteSpace=wrap;html=1;" parent="1" vertex="1">
          <mxGeometry x="470" y="930" width="140" height="65" as="geometry" />
        </mxCell>
        <mxCell id="4PZDsu9GYQmbysmXE2yF-65" value="&lt;b&gt;Recipe succesfully created!&lt;/b&gt;" style="rounded=1;whiteSpace=wrap;html=1;strokeColor=default;fillColor=#B8A693;" parent="1" vertex="1">
          <mxGeometry x="460" y="640" width="240" height="470" as="geometry" />
        </mxCell>
        <mxCell id="4PZDsu9GYQmbysmXE2yF-66" value="Close" style="rounded=1;whiteSpace=wrap;html=1;gradientDirection=north;fillColor=#DFC35D;fontColor=#000000;strokeColor=default;fontStyle=1" parent="1" vertex="1">
          <mxGeometry x="600" y="1050" width="80" height="40" as="geometry" />
        </mxCell>
        <mxCell id="4PZDsu9GYQmbysmXE2yF-67" value="" style="rounded=1;whiteSpace=wrap;html=1;glass=0;strokeColor=#001DBC;fillStyle=solid;fillColor=#000000;fontColor=#ffffff;" parent="1" vertex="1">
          <mxGeometry x="760" y="40" width="280" height="540" as="geometry" />
        </mxCell>
        <mxCell id="4PZDsu9GYQmbysmXE2yF-68" value="" style="rounded=1;whiteSpace=wrap;html=1;gradientDirection=north;fillColor=#7B904B;" parent="1" vertex="1">
          <mxGeometry x="770" y="50" width="260" height="520" as="geometry" />
        </mxCell>
        <mxCell id="4PZDsu9GYQmbysmXE2yF-69" value="" style="rounded=1;whiteSpace=wrap;html=1;fillColor=#000000;" parent="1" vertex="1">
          <mxGeometry x="850" y="40" width="100" height="30" as="geometry" />
        </mxCell>
        <mxCell id="4PZDsu9GYQmbysmXE2yF-70" value="&lt;h1 style=&quot;margin-top: 0px;&quot;&gt;Edit your recipe&lt;/h1&gt;&lt;div&gt;&lt;br&gt;&lt;/div&gt;" style="text;html=1;whiteSpace=wrap;overflow=hidden;rounded=0;fontColor=#FFFFFF;" parent="1" vertex="1">
          <mxGeometry x="780" y="90" width="240" height="50" as="geometry" />
        </mxCell>
        <mxCell id="4PZDsu9GYQmbysmXE2yF-71" value="" style="rounded=1;whiteSpace=wrap;html=1;gradientDirection=north;fillColor=#B8A693;fontColor=#FFFFFF;strokeColor=none;" parent="1" vertex="1">
          <mxGeometry x="780" y="140" width="240" height="420" as="geometry" />
        </mxCell>
        <mxCell id="4PZDsu9GYQmbysmXE2yF-72" value="Name of the dish" style="text;html=1;align=left;verticalAlign=middle;whiteSpace=wrap;rounded=0;fontColor=#FFFFFF;" parent="1" vertex="1">
          <mxGeometry x="790" y="152" width="120" height="30" as="geometry" />
        </mxCell>
        <mxCell id="4PZDsu9GYQmbysmXE2yF-73" value="Ingredients" style="text;html=1;align=left;verticalAlign=middle;whiteSpace=wrap;rounded=0;fontColor=#FFFFFF;" parent="1" vertex="1">
          <mxGeometry x="790" y="194.5" width="120" height="30" as="geometry" />
        </mxCell>
        <mxCell id="4PZDsu9GYQmbysmXE2yF-74" value="Instructions for how to prepare the dish" style="text;html=1;align=left;verticalAlign=middle;whiteSpace=wrap;rounded=0;fontColor=#FFFFFF;" parent="1" vertex="1">
          <mxGeometry x="790" y="244" width="120" height="30" as="geometry" />
        </mxCell>
        <mxCell id="4PZDsu9GYQmbysmXE2yF-75" style="edgeStyle=orthogonalEdgeStyle;rounded=0;orthogonalLoop=1;jettySize=auto;html=1;exitX=0.75;exitY=0;exitDx=0;exitDy=0;entryX=0.75;entryY=1;entryDx=0;entryDy=0;" parent="1" source="4PZDsu9GYQmbysmXE2yF-76" edge="1">
          <mxGeometry relative="1" as="geometry">
            <mxPoint x="880" y="305" as="targetPoint" />
          </mxGeometry>
        </mxCell>
        <mxCell id="4PZDsu9GYQmbysmXE2yF-76" value="Additional info" style="text;html=1;align=left;verticalAlign=middle;whiteSpace=wrap;rounded=0;fontColor=#FFFFFF;" parent="1" vertex="1">
          <mxGeometry x="790" y="332.5" width="120" height="30" as="geometry" />
        </mxCell>
        <mxCell id="4PZDsu9GYQmbysmXE2yF-77" value="Discard" style="rounded=1;whiteSpace=wrap;html=1;gradientDirection=north;fillColor=#6D1842;fontColor=#FFFFFF;strokeColor=default;" parent="1" vertex="1">
          <mxGeometry x="800" y="490" width="80" height="40" as="geometry" />
        </mxCell>
        <mxCell id="4PZDsu9GYQmbysmXE2yF-78" value="Apply changes" style="rounded=1;whiteSpace=wrap;html=1;gradientDirection=north;fillColor=#DFC35D;fontColor=#000000;strokeColor=default;fontStyle=1" parent="1" vertex="1">
          <mxGeometry x="920" y="490" width="80" height="40" as="geometry" />
        </mxCell>
        <mxCell id="4PZDsu9GYQmbysmXE2yF-79" value="Butter Chicken" style="rounded=1;whiteSpace=wrap;html=1;" parent="1" vertex="1">
          <mxGeometry x="790" y="174.5" width="120" height="20" as="geometry" />
        </mxCell>
        <mxCell id="4PZDsu9GYQmbysmXE2yF-80" value="Chicken, Vegetables," style="rounded=1;whiteSpace=wrap;html=1;" parent="1" vertex="1">
          <mxGeometry x="790" y="217" width="120" height="20" as="geometry" />
        </mxCell>
        <mxCell id="4PZDsu9GYQmbysmXE2yF-81" value="1. Cook the chicken&lt;div&gt;2. blend the vegetables&lt;/div&gt;&lt;div&gt;3. prepare the sauce&lt;/div&gt;&lt;div&gt;4. Mix together&lt;/div&gt;" style="rounded=1;whiteSpace=wrap;html=1;align=left;" parent="1" vertex="1">
          <mxGeometry x="790" y="275" width="140" height="65" as="geometry" />
        </mxCell>
        <mxCell id="4PZDsu9GYQmbysmXE2yF-82" value="Carefull with spices, can get spicy&lt;div&gt;&lt;br&gt;&lt;/div&gt;&lt;div&gt;&lt;br&gt;&lt;/div&gt;" style="rounded=1;whiteSpace=wrap;html=1;align=left;" parent="1" vertex="1">
          <mxGeometry x="790" y="352.5" width="140" height="65" as="geometry" />
        </mxCell>
        <mxCell id="4PZDsu9GYQmbysmXE2yF-83" value="Rating" style="text;html=1;align=center;verticalAlign=middle;whiteSpace=wrap;rounded=0;fontColor=#FFFFFF;" parent="1" vertex="1">
          <mxGeometry x="790" y="417.5" width="60" height="17.5" as="geometry" />
        </mxCell>
        <mxCell id="4PZDsu9GYQmbysmXE2yF-84" value="" style="verticalLabelPosition=bottom;verticalAlign=top;html=1;shape=mxgraph.basic.star;fillColor=#DFC35D;" parent="1" vertex="1">
          <mxGeometry x="800" y="435" width="30" height="25" as="geometry" />
        </mxCell>
        <mxCell id="4PZDsu9GYQmbysmXE2yF-85" value="" style="verticalLabelPosition=bottom;verticalAlign=top;html=1;shape=mxgraph.basic.star;fillColor=#DFC35D;" parent="1" vertex="1">
          <mxGeometry x="830" y="435" width="30" height="25" as="geometry" />
        </mxCell>
        <mxCell id="4PZDsu9GYQmbysmXE2yF-86" value="" style="verticalLabelPosition=bottom;verticalAlign=top;html=1;shape=mxgraph.basic.star;fillColor=#DFC35D;" parent="1" vertex="1">
          <mxGeometry x="860" y="435" width="30" height="25" as="geometry" />
        </mxCell>
        <mxCell id="4PZDsu9GYQmbysmXE2yF-87" value="" style="verticalLabelPosition=bottom;verticalAlign=top;html=1;shape=mxgraph.basic.star;fillColor=#DFC35D;" parent="1" vertex="1">
          <mxGeometry x="890" y="435" width="30" height="25" as="geometry" />
        </mxCell>
        <mxCell id="4PZDsu9GYQmbysmXE2yF-88" value="" style="verticalLabelPosition=bottom;verticalAlign=top;html=1;shape=mxgraph.basic.star;fillColor=#FFFFFF;" parent="1" vertex="1">
          <mxGeometry x="920" y="435" width="30" height="25" as="geometry" />
        </mxCell>
        <mxCell id="4PZDsu9GYQmbysmXE2yF-89" value="3" style="text;html=1;align=center;verticalAlign=middle;whiteSpace=wrap;rounded=0;fontColor=#FFFFFF;fontStyle=1" parent="1" vertex="1">
          <mxGeometry x="550" y="187" width="60" height="30" as="geometry" />
        </mxCell>
        <mxCell id="4PZDsu9GYQmbysmXE2yF-90" value="2" style="text;html=1;align=center;verticalAlign=middle;whiteSpace=wrap;rounded=0;fontColor=#FFFFFF;fontStyle=1" parent="1" vertex="1">
          <mxGeometry x="550" y="244" width="60" height="30" as="geometry" />
        </mxCell>
        <mxCell id="4PZDsu9GYQmbysmXE2yF-91" value="4" style="text;html=1;align=center;verticalAlign=middle;whiteSpace=wrap;rounded=0;fontColor=#FFFFFF;fontStyle=1" parent="1" vertex="1">
          <mxGeometry x="550" y="302.5" width="60" height="30" as="geometry" />
        </mxCell>
        <mxCell id="4PZDsu9GYQmbysmXE2yF-92" value="4" style="text;html=1;align=center;verticalAlign=middle;whiteSpace=wrap;rounded=0;fontColor=#FFFFFF;fontStyle=1" parent="1" vertex="1">
          <mxGeometry x="550" y="362.5" width="60" height="30" as="geometry" />
        </mxCell>
        <mxCell id="4PZDsu9GYQmbysmXE2yF-93" value="3" style="text;html=1;align=center;verticalAlign=middle;whiteSpace=wrap;rounded=0;fontColor=#FFFFFF;fontStyle=1" parent="1" vertex="1">
          <mxGeometry x="550" y="422.5" width="60" height="30" as="geometry" />
        </mxCell>
        <mxCell id="4PZDsu9GYQmbysmXE2yF-94" style="edgeStyle=orthogonalEdgeStyle;rounded=0;orthogonalLoop=1;jettySize=auto;html=1;entryX=-0.001;entryY=0.21;entryDx=0;entryDy=0;entryPerimeter=0;" parent="1" source="4PZDsu9GYQmbysmXE2yF-5" target="4PZDsu9GYQmbysmXE2yF-7" edge="1">
          <mxGeometry relative="1" as="geometry">
            <Array as="points">
              <mxPoint x="100" y="264" />
              <mxPoint x="100" y="713" />
            </Array>
          </mxGeometry>
        </mxCell>
        <mxCell id="4PZDsu9GYQmbysmXE2yF-95" style="edgeStyle=orthogonalEdgeStyle;rounded=0;orthogonalLoop=1;jettySize=auto;html=1;entryX=0.018;entryY=0.873;entryDx=0;entryDy=0;entryPerimeter=0;" parent="1" source="4PZDsu9GYQmbysmXE2yF-18" target="4PZDsu9GYQmbysmXE2yF-65" edge="1">
          <mxGeometry relative="1" as="geometry" />
        </mxCell>
        <mxCell id="4PZDsu9GYQmbysmXE2yF-96" style="edgeStyle=orthogonalEdgeStyle;rounded=0;orthogonalLoop=1;jettySize=auto;html=1;entryX=-0.004;entryY=0.536;entryDx=0;entryDy=0;entryPerimeter=0;" parent="1" source="4PZDsu9GYQmbysmXE2yF-6" target="4PZDsu9GYQmbysmXE2yF-23" edge="1">
          <mxGeometry relative="1" as="geometry" />
        </mxCell>
        <mxCell id="4PZDsu9GYQmbysmXE2yF-97" style="edgeStyle=orthogonalEdgeStyle;rounded=0;orthogonalLoop=1;jettySize=auto;html=1;entryX=0.007;entryY=0.513;entryDx=0;entryDy=0;entryPerimeter=0;" parent="1" target="4PZDsu9GYQmbysmXE2yF-67" edge="1">
          <mxGeometry relative="1" as="geometry">
            <mxPoint x="675" y="315" as="sourcePoint" />
          </mxGeometry>
        </mxCell>
        <mxCell id="4PZDsu9GYQmbysmXE2yF-98" value="" style="rounded=1;whiteSpace=wrap;html=1;glass=0;strokeColor=#001DBC;fillStyle=solid;fillColor=#000000;fontColor=#ffffff;" parent="1" vertex="1">
          <mxGeometry x="1080" y="40" width="280" height="540" as="geometry" />
        </mxCell>
        <mxCell id="4PZDsu9GYQmbysmXE2yF-99" value="" style="rounded=1;whiteSpace=wrap;html=1;gradientDirection=north;fillColor=#7B904B;" parent="1" vertex="1">
          <mxGeometry x="1090" y="50" width="260" height="520" as="geometry" />
        </mxCell>
        <mxCell id="4PZDsu9GYQmbysmXE2yF-100" value="" style="rounded=1;whiteSpace=wrap;html=1;fillColor=#000000;" parent="1" vertex="1">
          <mxGeometry x="1170" y="40" width="100" height="30" as="geometry" />
        </mxCell>
        <mxCell id="4PZDsu9GYQmbysmXE2yF-101" value="&lt;h1 style=&quot;margin-top: 0px;&quot;&gt;Rate your recipe&lt;/h1&gt;" style="text;html=1;whiteSpace=wrap;overflow=hidden;rounded=0;fontColor=#FFFFFF;" parent="1" vertex="1">
          <mxGeometry x="1100" y="90" width="240" height="50" as="geometry" />
        </mxCell>
        <mxCell id="4PZDsu9GYQmbysmXE2yF-102" value="" style="rounded=1;whiteSpace=wrap;html=1;gradientDirection=north;fillColor=#B8A693;fontColor=#FFFFFF;strokeColor=default;" parent="1" vertex="1">
          <mxGeometry x="1100" y="200" width="240" height="170" as="geometry" />
        </mxCell>
        <mxCell id="4PZDsu9GYQmbysmXE2yF-103" value="Discard" style="rounded=1;whiteSpace=wrap;html=1;gradientDirection=north;fillColor=#6D1842;fontColor=#FFFFFF;strokeColor=default;" parent="1" vertex="1">
          <mxGeometry x="1120" y="310" width="80" height="40" as="geometry" />
        </mxCell>
        <mxCell id="4PZDsu9GYQmbysmXE2yF-104" value="Apply changes" style="rounded=1;whiteSpace=wrap;html=1;gradientDirection=north;fillColor=#DFC35D;fontColor=#000000;strokeColor=default;fontStyle=1" parent="1" vertex="1">
          <mxGeometry x="1235" y="310" width="80" height="40" as="geometry" />
        </mxCell>
        <mxCell id="4PZDsu9GYQmbysmXE2yF-105" value="Rating" style="text;html=1;align=center;verticalAlign=middle;whiteSpace=wrap;rounded=0;fontColor=#FFFFFF;fontStyle=1" parent="1" vertex="1">
          <mxGeometry x="1120" y="249.5" width="60" height="17.5" as="geometry" />
        </mxCell>
        <mxCell id="4PZDsu9GYQmbysmXE2yF-106" value="" style="verticalLabelPosition=bottom;verticalAlign=top;html=1;shape=mxgraph.basic.star;fillColor=#DFC35D;" parent="1" vertex="1">
          <mxGeometry x="1130" y="267" width="30" height="25" as="geometry" />
        </mxCell>
        <mxCell id="4PZDsu9GYQmbysmXE2yF-107" value="" style="verticalLabelPosition=bottom;verticalAlign=top;html=1;shape=mxgraph.basic.star;fillColor=#DFC35D;" parent="1" vertex="1">
          <mxGeometry x="1160" y="267" width="30" height="25" as="geometry" />
        </mxCell>
        <mxCell id="4PZDsu9GYQmbysmXE2yF-108" value="" style="verticalLabelPosition=bottom;verticalAlign=top;html=1;shape=mxgraph.basic.star;fillColor=#DFC35D;" parent="1" vertex="1">
          <mxGeometry x="1190" y="267" width="30" height="25" as="geometry" />
        </mxCell>
        <mxCell id="4PZDsu9GYQmbysmXE2yF-109" value="" style="verticalLabelPosition=bottom;verticalAlign=top;html=1;shape=mxgraph.basic.star;fillColor=#DFC35D;" parent="1" vertex="1">
          <mxGeometry x="1220" y="267" width="30" height="25" as="geometry" />
        </mxCell>
        <mxCell id="4PZDsu9GYQmbysmXE2yF-110" value="" style="verticalLabelPosition=bottom;verticalAlign=top;html=1;shape=mxgraph.basic.star;fillColor=#DFC35D;" parent="1" vertex="1">
          <mxGeometry x="1250" y="267" width="30" height="25" as="geometry" />
        </mxCell>
        <mxCell id="4PZDsu9GYQmbysmXE2yF-111" value="Butter Chicken" style="text;html=1;align=center;verticalAlign=middle;whiteSpace=wrap;rounded=0;fontColor=#FFFFFF;fontStyle=1" parent="1" vertex="1">
          <mxGeometry x="1120" y="219.5" width="100" height="30" as="geometry" />
        </mxCell>
        <mxCell id="4PZDsu9GYQmbysmXE2yF-112" style="edgeStyle=orthogonalEdgeStyle;rounded=0;orthogonalLoop=1;jettySize=auto;html=1;entryX=0;entryY=0.117;entryDx=0;entryDy=0;entryPerimeter=0;exitX=0.893;exitY=-0.043;exitDx=0;exitDy=0;exitPerimeter=0;" parent="1" source="4PZDsu9GYQmbysmXE2yF-91" target="4PZDsu9GYQmbysmXE2yF-99" edge="1">
          <mxGeometry relative="1" as="geometry">
            <Array as="points">
              <mxPoint x="604" y="300" />
              <mxPoint x="550" y="300" />
              <mxPoint x="550" y="20" />
              <mxPoint x="1050" y="20" />
              <mxPoint x="1050" y="111" />
            </Array>
          </mxGeometry>
        </mxCell>
        <mxCell id="4PZDsu9GYQmbysmXE2yF-113" value="" style="shape=image;editableCssRules=.*;verticalLabelPosition=bottom;labelBackgroundColor=default;verticalAlign=top;aspect=fixed;imageAspect=0;image=data:image/svg+xml,PHN2ZyB4bWxucz0iaHR0cDovL3d3dy53My5vcmcvMjAwMC9zdmciIHZpZXdCb3g9Ii0wLjUgLTAuNSAyNS44NjcgMjgiIGhlaWdodD0iMjgiIHdpZHRoPSIyNS44NjciPiYjeGE7CSAgPHN0eWxlIHR5cGU9InRleHQvY3NzIj4uc3QwIHsgc3RvcC1jb2xvcjogcmdiKDkxLCAxMTUsIDEzOSk7IH0gLnN0MSB7IHN0b3AtY29sb3I6IHJnYigzNCwgNTMsIDcyKTsgfSA8L3N0eWxlPiYjeGE7CTxkZWZzPiYjeGE7CQk8bGluZWFyR3JhZGllbnQgZ3JhZGllbnRVbml0cz0idXNlclNwYWNlT25Vc2UiIHkyPSIyMy42MTMiIHgyPSIyMy4yMjciIHkxPSIzLjQ3NCIgeDE9IjEuODQ2IiBpZD0iQSI+JiN4YTsJCQk8c3RvcCBjbGFzcz0ic3QwIi8+JiN4YTsJCQk8c3RvcCBjbGFzcz0ic3QxIiBvZmZzZXQ9IjEiLz4mI3hhOwkJPC9saW5lYXJHcmFkaWVudD4mI3hhOwk8L2RlZnM+JiN4YTsJPHBhdGggZmlsbD0idXJsKCNBKSIgZD0iTTEzLjM5IDI3LjVoLTEuOTE1Yy0uNjU2IDAtMS4yNTctLjIxOS0xLjgwMy0uNjU2YTIuNDYgMi40NiAwIDAgMS0uOTMxLTEuNTg1bC0uMzgzLTEuODA0LTIuMzUtMS40MjMtMS42NDEuNzFhMy42MSAzLjYxIDAgMCAxLTEuMDQuMTY1Yy0uNTA5IDAtMS4wMDMtLjEyOC0xLjQ3Ny0uMzgzLS40NTItLjI3MS0uODEzLS42NzEtMS4wMzgtMS4xNDhsLTEuMDM5LTIuMDIzYy0uMTY5LS4zNzktLjI2Mi0uNzg5LS4yNzMtMS4yMDRhMi43NSAyLjc1IDAgMCAxIDEuMTQ4LTIuMjk2bDEuMjU4LS45Mjl2LTIuODQ1bC0xLjMxMi0uOTgzQy0uMTM2IDEwLjU0Ni0uNSA5Ljc5OS0uNSA4Ljg1MmMwLS4zNjYuMDkxLS43NjcuMjczLTEuMjA0bDEuMDQtMi4wMjNjLjI1NS0uNTExLjYtLjg5MyAxLjAzOC0xLjE0OC40NzQtLjI1NS45NjgtLjM4MyAxLjQ3Ny0uMzgzLjQwMiAwIC43NDcuMDc0IDEuMDQuMjE5bDEuNjQxLjY1NiAyLjM1LTEuNDIzLjM4My0xLjgwMkEyLjY4IDIuNjggMCAwIDEgOS43MjcuMTU2YTIuNjEgMi42MSAwIDAgMSAxLjc1LS42NTZoMS45MTNhMi42MSAyLjYxIDAgMCAxIDEuNzUuNjU2Yy41MTEuNDAzLjg0LjkyOS45ODUgMS41ODZsLjMyNyAxLjgwNiAyLjQwNiAxLjQyMSAxLjY0Mi0uNjU2Yy4yOTEtLjE0NS42MzctLjIxOSAxLjA0LS4yMTlhMi43NyAyLjc3IDAgMCAxIDEuNDIxLjM4M2MuNDczLjI1NS44NC42MzcgMS4wOTQgMS4xNDhsLjk4NSAyLjAyM2MuMjE3LjM2Ni4zMjcuNzg0LjMyNyAxLjI1OCAwIC45MS0uMzgzIDEuNjQyLTEuMTQ4IDIuMTg4bC0xLjMxMi45ODV2Mi44NDRsMS4zMTMuOTI4Yy43NjUuNTg1IDEuMTQ4IDEuMzMyIDEuMTQ4IDIuMjQzIDAgLjQzOC0uMTEuODU4LS4zMjkgMS4yNThsLS45ODMgMi4wMjNjLS4yNTYuNTExLS42MTkuODkyLTEuMDk0IDEuMTQ4LS40MzcuMjU2LS45MS4zODMtMS40MjMuMzgzLS4zNjQgMC0uNzEtLjA1NC0xLjAzOC0uMTY1bC0xLjY0Mi0uNzEtMi40MDYgMS40MjMtLjMyNyAxLjgwMmMtLjE0Ny42NTgtLjQ3NCAxLjE4Ni0uOTg1IDEuNTg3YTIuNjEgMi42MSAwIDAgMS0xLjc1LjY1NnptLTcuMzgzLTguMjU4Yy40NzQgMCAuOTQ5LjE0NyAxLjQyMy40MzhsMi40MDYgMS40MjNjLjczLjQzOCAxLjE0OCAxLjA0IDEuMjU4IDEuODA0bC4zODIgMS44MDRoMS45MTVsLjMyOS0xLjgwNGMuMTgyLS44MDIuNjItMS40MDQgMS4zMTMtMS44MDRsMi4zNTItMS40MjNhMy4wNiAzLjA2IDAgMCAxIDEuNTI5LS40MzdjLjE4NCAwIC4zNDYuMDE3LjQ5NC4wNTRhNC4xNyA0LjE3IDAgMCAxIC40OTIuMTY1bDEuNjQyLjY1Ni45ODMtMi4wMjMtMS4yNTgtLjkyOWMtLjc2NS0uNTg0LTEuMTQ4LTEuMzMtMS4xNDgtMi4yNDJ2LTIuODQ1YzAtLjkxLjM4My0xLjY1NyAxLjE0OC0yLjI0bDEuMjU4LS45MzEtLjk4NS0yLjAyMy0xLjY0LjcxYy0uMzM1LjExMS0uNjg2LjE2Ni0xLjA0LjE2NS0uNTgzIDAtMS4wNzUtLjEyOC0xLjQ3Ny0uMzgzbC0yLjM1LTEuNDc3YTIuNjggMi42OCAwIDAgMS0xLjMxMi0xLjgwNEwxMy4zOSAyLjI5aC0xLjkxNWwtLjM4MiAxLjgwNGMtLjExLjc2Ni0uNTI4IDEuMzY3LTEuMjU4IDEuODA0TDcuNDgzIDcuMzc1Yy0uNDAxLjI1NS0uODkzLjM4My0xLjQ3NS4zODMtLjMyOSAwLS42OTMtLjA1Ni0xLjA5NC0uMTY1bC0xLjY0MS0uNzEtLjk4NSAyLjAyMyAxLjMxMy45MjljLjc2Ny41ODUgMS4xNSAxLjMzIDEuMTUgMi4yNDR2Mi44NDRjMCAuOTEtLjM4MyAxLjY1Ny0xLjE0OCAyLjI0bC0xLjMxMi45MzEgMS4wMzggMi4wMjMgMS42NDEtLjY1NmMuMjktLjE0NS42MzctLjIxOSAxLjA0LS4yMTl6bTYuNC0uMTY1YTUuNTcgNS41NyAwIDAgMS0yLjE4Ny0uNDM3Yy0uNjUzLS4yODktMS4yNDYtLjY5Ny0xLjc1LTEuMjAyYTUuNzcgNS43NyAwIDAgMS0xLjIwNC0xLjc1IDUuNTggNS41OCAwIDAgMS0uNDM3LTIuMTg3IDUuMjEgNS4yMSAwIDAgMSAuNDM4LTIuMTMzYy4yOTItLjY5My42OTMtMS4yOTUgMS4yMDQtMS44MDRzMS4wOTQtLjkxIDEuNzUtMS4yMDRhNS42IDUuNiAwIDAgMSAyLjE4OC0uNDM3Yy43NjUgMCAxLjQ5NS4xNDcgMi4xODguNDM4czEuMjk1LjY5MyAxLjgwNCAxLjIwNC45MSAxLjExMSAxLjIwNCAxLjgwNGMuMjkxLjY1Ni40MzggMS4zNjguNDM4IDIuMTMzYTUuNiA1LjYgMCAwIDEtLjQzNyAyLjE4OGMtLjI5LjY1My0uNjk4IDEuMjQ2LTEuMjA0IDEuNzUtLjUxMS41MTEtMS4xMTEuOTEtMS44MDQgMS4yMDRzLTEuNDIzLjQzNi0yLjE4Ny40MzZ6bTAtOC4zNjVjLS43NjcgMC0xLjQyMy4yNzEtMS45NjkuODE5LS4yNjQuMjU1LS40NzMuNTYxLS42MTQuODk5cy0uMjExLjcwMy0uMjA2IDEuMDY5YzAgLjc2Ny4yNzMgMS40MjMuODIxIDEuOTY5czEuMjAyLjgyMSAxLjk2OS44MjFjLjgwMiAwIDEuNDc3LS4yNzMgMi4wMjMtLjgyMXMuODIxLTEuMjA0LjgyMS0xLjk2OS0uMjczLTEuNDIzLS44MjEtMS45NjlhMi43NSAyLjc1IDAgMCAwLS45MjctLjYyYy0uMzQ4LS4xNDEtLjcyMS0uMjA4LTEuMDk2LS4xOTl6Ii8+JiN4YTs8L3N2Zz4=;" parent="1" vertex="1">
          <mxGeometry x="654" y="245" width="26" height="28" as="geometry" />
        </mxCell>
        <mxCell id="4PZDsu9GYQmbysmXE2yF-114" value="" style="shape=image;editableCssRules=.*;verticalLabelPosition=bottom;labelBackgroundColor=default;verticalAlign=top;aspect=fixed;imageAspect=0;image=data:image/svg+xml,PHN2ZyB4bWxucz0iaHR0cDovL3d3dy53My5vcmcvMjAwMC9zdmciIHZpZXdCb3g9Ii0wLjUgLTAuNSAyNS44NjcgMjgiIGhlaWdodD0iMjgiIHdpZHRoPSIyNS44NjciPiYjeGE7CSAgPHN0eWxlIHR5cGU9InRleHQvY3NzIj4uc3QwIHsgc3RvcC1jb2xvcjogcmdiKDkxLCAxMTUsIDEzOSk7IH0gLnN0MSB7IHN0b3AtY29sb3I6IHJnYigzNCwgNTMsIDcyKTsgfSA8L3N0eWxlPiYjeGE7CTxkZWZzPiYjeGE7CQk8bGluZWFyR3JhZGllbnQgZ3JhZGllbnRVbml0cz0idXNlclNwYWNlT25Vc2UiIHkyPSIyMy42MTMiIHgyPSIyMy4yMjciIHkxPSIzLjQ3NCIgeDE9IjEuODQ2IiBpZD0iQSI+JiN4YTsJCQk8c3RvcCBjbGFzcz0ic3QwIi8+JiN4YTsJCQk8c3RvcCBjbGFzcz0ic3QxIiBvZmZzZXQ9IjEiLz4mI3hhOwkJPC9saW5lYXJHcmFkaWVudD4mI3hhOwk8L2RlZnM+JiN4YTsJPHBhdGggZmlsbD0idXJsKCNBKSIgZD0iTTEzLjM5IDI3LjVoLTEuOTE1Yy0uNjU2IDAtMS4yNTctLjIxOS0xLjgwMy0uNjU2YTIuNDYgMi40NiAwIDAgMS0uOTMxLTEuNTg1bC0uMzgzLTEuODA0LTIuMzUtMS40MjMtMS42NDEuNzFhMy42MSAzLjYxIDAgMCAxLTEuMDQuMTY1Yy0uNTA5IDAtMS4wMDMtLjEyOC0xLjQ3Ny0uMzgzLS40NTItLjI3MS0uODEzLS42NzEtMS4wMzgtMS4xNDhsLTEuMDM5LTIuMDIzYy0uMTY5LS4zNzktLjI2Mi0uNzg5LS4yNzMtMS4yMDRhMi43NSAyLjc1IDAgMCAxIDEuMTQ4LTIuMjk2bDEuMjU4LS45Mjl2LTIuODQ1bC0xLjMxMi0uOTgzQy0uMTM2IDEwLjU0Ni0uNSA5Ljc5OS0uNSA4Ljg1MmMwLS4zNjYuMDkxLS43NjcuMjczLTEuMjA0bDEuMDQtMi4wMjNjLjI1NS0uNTExLjYtLjg5MyAxLjAzOC0xLjE0OC40NzQtLjI1NS45NjgtLjM4MyAxLjQ3Ny0uMzgzLjQwMiAwIC43NDcuMDc0IDEuMDQuMjE5bDEuNjQxLjY1NiAyLjM1LTEuNDIzLjM4My0xLjgwMkEyLjY4IDIuNjggMCAwIDEgOS43MjcuMTU2YTIuNjEgMi42MSAwIDAgMSAxLjc1LS42NTZoMS45MTNhMi42MSAyLjYxIDAgMCAxIDEuNzUuNjU2Yy41MTEuNDAzLjg0LjkyOS45ODUgMS41ODZsLjMyNyAxLjgwNiAyLjQwNiAxLjQyMSAxLjY0Mi0uNjU2Yy4yOTEtLjE0NS42MzctLjIxOSAxLjA0LS4yMTlhMi43NyAyLjc3IDAgMCAxIDEuNDIxLjM4M2MuNDczLjI1NS44NC42MzcgMS4wOTQgMS4xNDhsLjk4NSAyLjAyM2MuMjE3LjM2Ni4zMjcuNzg0LjMyNyAxLjI1OCAwIC45MS0uMzgzIDEuNjQyLTEuMTQ4IDIuMTg4bC0xLjMxMi45ODV2Mi44NDRsMS4zMTMuOTI4Yy43NjUuNTg1IDEuMTQ4IDEuMzMyIDEuMTQ4IDIuMjQzIDAgLjQzOC0uMTEuODU4LS4zMjkgMS4yNThsLS45ODMgMi4wMjNjLS4yNTYuNTExLS42MTkuODkyLTEuMDk0IDEuMTQ4LS40MzcuMjU2LS45MS4zODMtMS40MjMuMzgzLS4zNjQgMC0uNzEtLjA1NC0xLjAzOC0uMTY1bC0xLjY0Mi0uNzEtMi40MDYgMS40MjMtLjMyNyAxLjgwMmMtLjE0Ny42NTgtLjQ3NCAxLjE4Ni0uOTg1IDEuNTg3YTIuNjEgMi42MSAwIDAgMS0xLjc1LjY1NnptLTcuMzgzLTguMjU4Yy40NzQgMCAuOTQ5LjE0NyAxLjQyMy40MzhsMi40MDYgMS40MjNjLjczLjQzOCAxLjE0OCAxLjA0IDEuMjU4IDEuODA0bC4zODIgMS44MDRoMS45MTVsLjMyOS0xLjgwNGMuMTgyLS44MDIuNjItMS40MDQgMS4zMTMtMS44MDRsMi4zNTItMS40MjNhMy4wNiAzLjA2IDAgMCAxIDEuNTI5LS40MzdjLjE4NCAwIC4zNDYuMDE3LjQ5NC4wNTRhNC4xNyA0LjE3IDAgMCAxIC40OTIuMTY1bDEuNjQyLjY1Ni45ODMtMi4wMjMtMS4yNTgtLjkyOWMtLjc2NS0uNTg0LTEuMTQ4LTEuMzMtMS4xNDgtMi4yNDJ2LTIuODQ1YzAtLjkxLjM4My0xLjY1NyAxLjE0OC0yLjI0bDEuMjU4LS45MzEtLjk4NS0yLjAyMy0xLjY0LjcxYy0uMzM1LjExMS0uNjg2LjE2Ni0xLjA0LjE2NS0uNTgzIDAtMS4wNzUtLjEyOC0xLjQ3Ny0uMzgzbC0yLjM1LTEuNDc3YTIuNjggMi42OCAwIDAgMS0xLjMxMi0xLjgwNEwxMy4zOSAyLjI5aC0xLjkxNWwtLjM4MiAxLjgwNGMtLjExLjc2Ni0uNTI4IDEuMzY3LTEuMjU4IDEuODA0TDcuNDgzIDcuMzc1Yy0uNDAxLjI1NS0uODkzLjM4My0xLjQ3NS4zODMtLjMyOSAwLS42OTMtLjA1Ni0xLjA5NC0uMTY1bC0xLjY0MS0uNzEtLjk4NSAyLjAyMyAxLjMxMy45MjljLjc2Ny41ODUgMS4xNSAxLjMzIDEuMTUgMi4yNDR2Mi44NDRjMCAuOTEtLjM4MyAxLjY1Ny0xLjE0OCAyLjI0bC0xLjMxMi45MzEgMS4wMzggMi4wMjMgMS42NDEtLjY1NmMuMjktLjE0NS42MzctLjIxOSAxLjA0LS4yMTl6bTYuNC0uMTY1YTUuNTcgNS41NyAwIDAgMS0yLjE4Ny0uNDM3Yy0uNjUzLS4yODktMS4yNDYtLjY5Ny0xLjc1LTEuMjAyYTUuNzcgNS43NyAwIDAgMS0xLjIwNC0xLjc1IDUuNTggNS41OCAwIDAgMS0uNDM3LTIuMTg3IDUuMjEgNS4yMSAwIDAgMSAuNDM4LTIuMTMzYy4yOTItLjY5My42OTMtMS4yOTUgMS4yMDQtMS44MDRzMS4wOTQtLjkxIDEuNzUtMS4yMDRhNS42IDUuNiAwIDAgMSAyLjE4OC0uNDM3Yy43NjUgMCAxLjQ5NS4xNDcgMi4xODguNDM4czEuMjk1LjY5MyAxLjgwNCAxLjIwNC45MSAxLjExMSAxLjIwNCAxLjgwNGMuMjkxLjY1Ni40MzggMS4zNjguNDM4IDIuMTMzYTUuNiA1LjYgMCAwIDEtLjQzNyAyLjE4OGMtLjI5LjY1My0uNjk4IDEuMjQ2LTEuMjA0IDEuNzUtLjUxMS41MTEtMS4xMTEuOTEtMS44MDQgMS4yMDRzLTEuNDIzLjQzNi0yLjE4Ny40MzZ6bTAtOC4zNjVjLS43NjcgMC0xLjQyMy4yNzEtMS45NjkuODE5LS4yNjQuMjU1LS40NzMuNTYxLS42MTQuODk5cy0uMjExLjcwMy0uMjA2IDEuMDY5YzAgLjc2Ny4yNzMgMS40MjMuODIxIDEuOTY5czEuMjAyLjgyMSAxLjk2OS44MjFjLjgwMiAwIDEuNDc3LS4yNzMgMi4wMjMtLjgyMXMuODIxLTEuMjA0LjgyMS0xLjk2OS0uMjczLTEuNDIzLS44MjEtMS45NjlhMi43NSAyLjc1IDAgMCAwLS45MjctLjYyYy0uMzQ4LS4xNDEtLjcyMS0uMjA4LTEuMDk2LS4xOTl6Ii8+JiN4YTs8L3N2Zz4=;" parent="1" vertex="1">
          <mxGeometry x="654" y="185.5" width="26" height="28" as="geometry" />
        </mxCell>
        <mxCell id="4PZDsu9GYQmbysmXE2yF-115" value="" style="shape=image;editableCssRules=.*;verticalLabelPosition=bottom;labelBackgroundColor=default;verticalAlign=top;aspect=fixed;imageAspect=0;image=data:image/svg+xml,PHN2ZyB4bWxucz0iaHR0cDovL3d3dy53My5vcmcvMjAwMC9zdmciIHZpZXdCb3g9Ii0wLjUgLTAuNSAyNS44NjcgMjgiIGhlaWdodD0iMjgiIHdpZHRoPSIyNS44NjciPiYjeGE7CSAgPHN0eWxlIHR5cGU9InRleHQvY3NzIj4uc3QwIHsgc3RvcC1jb2xvcjogcmdiKDkxLCAxMTUsIDEzOSk7IH0gLnN0MSB7IHN0b3AtY29sb3I6IHJnYigzNCwgNTMsIDcyKTsgfSA8L3N0eWxlPiYjeGE7CTxkZWZzPiYjeGE7CQk8bGluZWFyR3JhZGllbnQgZ3JhZGllbnRVbml0cz0idXNlclNwYWNlT25Vc2UiIHkyPSIyMy42MTMiIHgyPSIyMy4yMjciIHkxPSIzLjQ3NCIgeDE9IjEuODQ2IiBpZD0iQSI+JiN4YTsJCQk8c3RvcCBjbGFzcz0ic3QwIi8+JiN4YTsJCQk8c3RvcCBjbGFzcz0ic3QxIiBvZmZzZXQ9IjEiLz4mI3hhOwkJPC9saW5lYXJHcmFkaWVudD4mI3hhOwk8L2RlZnM+JiN4YTsJPHBhdGggZmlsbD0idXJsKCNBKSIgZD0iTTEzLjM5IDI3LjVoLTEuOTE1Yy0uNjU2IDAtMS4yNTctLjIxOS0xLjgwMy0uNjU2YTIuNDYgMi40NiAwIDAgMS0uOTMxLTEuNTg1bC0uMzgzLTEuODA0LTIuMzUtMS40MjMtMS42NDEuNzFhMy42MSAzLjYxIDAgMCAxLTEuMDQuMTY1Yy0uNTA5IDAtMS4wMDMtLjEyOC0xLjQ3Ny0uMzgzLS40NTItLjI3MS0uODEzLS42NzEtMS4wMzgtMS4xNDhsLTEuMDM5LTIuMDIzYy0uMTY5LS4zNzktLjI2Mi0uNzg5LS4yNzMtMS4yMDRhMi43NSAyLjc1IDAgMCAxIDEuMTQ4LTIuMjk2bDEuMjU4LS45Mjl2LTIuODQ1bC0xLjMxMi0uOTgzQy0uMTM2IDEwLjU0Ni0uNSA5Ljc5OS0uNSA4Ljg1MmMwLS4zNjYuMDkxLS43NjcuMjczLTEuMjA0bDEuMDQtMi4wMjNjLjI1NS0uNTExLjYtLjg5MyAxLjAzOC0xLjE0OC40NzQtLjI1NS45NjgtLjM4MyAxLjQ3Ny0uMzgzLjQwMiAwIC43NDcuMDc0IDEuMDQuMjE5bDEuNjQxLjY1NiAyLjM1LTEuNDIzLjM4My0xLjgwMkEyLjY4IDIuNjggMCAwIDEgOS43MjcuMTU2YTIuNjEgMi42MSAwIDAgMSAxLjc1LS42NTZoMS45MTNhMi42MSAyLjYxIDAgMCAxIDEuNzUuNjU2Yy41MTEuNDAzLjg0LjkyOS45ODUgMS41ODZsLjMyNyAxLjgwNiAyLjQwNiAxLjQyMSAxLjY0Mi0uNjU2Yy4yOTEtLjE0NS42MzctLjIxOSAxLjA0LS4yMTlhMi43NyAyLjc3IDAgMCAxIDEuNDIxLjM4M2MuNDczLjI1NS44NC42MzcgMS4wOTQgMS4xNDhsLjk4NSAyLjAyM2MuMjE3LjM2Ni4zMjcuNzg0LjMyNyAxLjI1OCAwIC45MS0uMzgzIDEuNjQyLTEuMTQ4IDIuMTg4bC0xLjMxMi45ODV2Mi44NDRsMS4zMTMuOTI4Yy43NjUuNTg1IDEuMTQ4IDEuMzMyIDEuMTQ4IDIuMjQzIDAgLjQzOC0uMTEuODU4LS4zMjkgMS4yNThsLS45ODMgMi4wMjNjLS4yNTYuNTExLS42MTkuODkyLTEuMDk0IDEuMTQ4LS40MzcuMjU2LS45MS4zODMtMS40MjMuMzgzLS4zNjQgMC0uNzEtLjA1NC0xLjAzOC0uMTY1bC0xLjY0Mi0uNzEtMi40MDYgMS40MjMtLjMyNyAxLjgwMmMtLjE0Ny42NTgtLjQ3NCAxLjE4Ni0uOTg1IDEuNTg3YTIuNjEgMi42MSAwIDAgMS0xLjc1LjY1NnptLTcuMzgzLTguMjU4Yy40NzQgMCAuOTQ5LjE0NyAxLjQyMy40MzhsMi40MDYgMS40MjNjLjczLjQzOCAxLjE0OCAxLjA0IDEuMjU4IDEuODA0bC4zODIgMS44MDRoMS45MTVsLjMyOS0xLjgwNGMuMTgyLS44MDIuNjItMS40MDQgMS4zMTMtMS44MDRsMi4zNTItMS40MjNhMy4wNiAzLjA2IDAgMCAxIDEuNTI5LS40MzdjLjE4NCAwIC4zNDYuMDE3LjQ5NC4wNTRhNC4xNyA0LjE3IDAgMCAxIC40OTIuMTY1bDEuNjQyLjY1Ni45ODMtMi4wMjMtMS4yNTgtLjkyOWMtLjc2NS0uNTg0LTEuMTQ4LTEuMzMtMS4xNDgtMi4yNDJ2LTIuODQ1YzAtLjkxLjM4My0xLjY1NyAxLjE0OC0yLjI0bDEuMjU4LS45MzEtLjk4NS0yLjAyMy0xLjY0LjcxYy0uMzM1LjExMS0uNjg2LjE2Ni0xLjA0LjE2NS0uNTgzIDAtMS4wNzUtLjEyOC0xLjQ3Ny0uMzgzbC0yLjM1LTEuNDc3YTIuNjggMi42OCAwIDAgMS0xLjMxMi0xLjgwNEwxMy4zOSAyLjI5aC0xLjkxNWwtLjM4MiAxLjgwNGMtLjExLjc2Ni0uNTI4IDEuMzY3LTEuMjU4IDEuODA0TDcuNDgzIDcuMzc1Yy0uNDAxLjI1NS0uODkzLjM4My0xLjQ3NS4zODMtLjMyOSAwLS42OTMtLjA1Ni0xLjA5NC0uMTY1bC0xLjY0MS0uNzEtLjk4NSAyLjAyMyAxLjMxMy45MjljLjc2Ny41ODUgMS4xNSAxLjMzIDEuMTUgMi4yNDR2Mi44NDRjMCAuOTEtLjM4MyAxLjY1Ny0xLjE0OCAyLjI0bC0xLjMxMi45MzEgMS4wMzggMi4wMjMgMS42NDEtLjY1NmMuMjktLjE0NS42MzctLjIxOSAxLjA0LS4yMTl6bTYuNC0uMTY1YTUuNTcgNS41NyAwIDAgMS0yLjE4Ny0uNDM3Yy0uNjUzLS4yODktMS4yNDYtLjY5Ny0xLjc1LTEuMjAyYTUuNzcgNS43NyAwIDAgMS0xLjIwNC0xLjc1IDUuNTggNS41OCAwIDAgMS0uNDM3LTIuMTg3IDUuMjEgNS4yMSAwIDAgMSAuNDM4LTIuMTMzYy4yOTItLjY5My42OTMtMS4yOTUgMS4yMDQtMS44MDRzMS4wOTQtLjkxIDEuNzUtMS4yMDRhNS42IDUuNiAwIDAgMSAyLjE4OC0uNDM3Yy43NjUgMCAxLjQ5NS4xNDcgMi4xODguNDM4czEuMjk1LjY5MyAxLjgwNCAxLjIwNC45MSAxLjExMSAxLjIwNCAxLjgwNGMuMjkxLjY1Ni40MzggMS4zNjguNDM4IDIuMTMzYTUuNiA1LjYgMCAwIDEtLjQzNyAyLjE4OGMtLjI5LjY1My0uNjk4IDEuMjQ2LTEuMjA0IDEuNzUtLjUxMS41MTEtMS4xMTEuOTEtMS44MDQgMS4yMDRzLTEuNDIzLjQzNi0yLjE4Ny40MzZ6bTAtOC4zNjVjLS43NjcgMC0xLjQyMy4yNzEtMS45NjkuODE5LS4yNjQuMjU1LS40NzMuNTYxLS42MTQuODk5cy0uMjExLjcwMy0uMjA2IDEuMDY5YzAgLjc2Ny4yNzMgMS40MjMuODIxIDEuOTY5czEuMjAyLjgyMSAxLjk2OS44MjFjLjgwMiAwIDEuNDc3LS4yNzMgMi4wMjMtLjgyMXMuODIxLTEuMjA0LjgyMS0xLjk2OS0uMjczLTEuNDIzLS44MjEtMS45NjlhMi43NSAyLjc1IDAgMCAwLS45MjctLjYyYy0uMzQ4LS4xNDEtLjcyMS0uMjA4LTEuMDk2LS4xOTl6Ii8+JiN4YTs8L3N2Zz4=;" parent="1" vertex="1">
          <mxGeometry x="654" y="301" width="26" height="28" as="geometry" />
        </mxCell>
        <mxCell id="4PZDsu9GYQmbysmXE2yF-116" value="" style="shape=image;editableCssRules=.*;verticalLabelPosition=bottom;labelBackgroundColor=default;verticalAlign=top;aspect=fixed;imageAspect=0;image=data:image/svg+xml,PHN2ZyB4bWxucz0iaHR0cDovL3d3dy53My5vcmcvMjAwMC9zdmciIHZpZXdCb3g9Ii0wLjUgLTAuNSAyNS44NjcgMjgiIGhlaWdodD0iMjgiIHdpZHRoPSIyNS44NjciPiYjeGE7CSAgPHN0eWxlIHR5cGU9InRleHQvY3NzIj4uc3QwIHsgc3RvcC1jb2xvcjogcmdiKDkxLCAxMTUsIDEzOSk7IH0gLnN0MSB7IHN0b3AtY29sb3I6IHJnYigzNCwgNTMsIDcyKTsgfSA8L3N0eWxlPiYjeGE7CTxkZWZzPiYjeGE7CQk8bGluZWFyR3JhZGllbnQgZ3JhZGllbnRVbml0cz0idXNlclNwYWNlT25Vc2UiIHkyPSIyMy42MTMiIHgyPSIyMy4yMjciIHkxPSIzLjQ3NCIgeDE9IjEuODQ2IiBpZD0iQSI+JiN4YTsJCQk8c3RvcCBjbGFzcz0ic3QwIi8+JiN4YTsJCQk8c3RvcCBjbGFzcz0ic3QxIiBvZmZzZXQ9IjEiLz4mI3hhOwkJPC9saW5lYXJHcmFkaWVudD4mI3hhOwk8L2RlZnM+JiN4YTsJPHBhdGggZmlsbD0idXJsKCNBKSIgZD0iTTEzLjM5IDI3LjVoLTEuOTE1Yy0uNjU2IDAtMS4yNTctLjIxOS0xLjgwMy0uNjU2YTIuNDYgMi40NiAwIDAgMS0uOTMxLTEuNTg1bC0uMzgzLTEuODA0LTIuMzUtMS40MjMtMS42NDEuNzFhMy42MSAzLjYxIDAgMCAxLTEuMDQuMTY1Yy0uNTA5IDAtMS4wMDMtLjEyOC0xLjQ3Ny0uMzgzLS40NTItLjI3MS0uODEzLS42NzEtMS4wMzgtMS4xNDhsLTEuMDM5LTIuMDIzYy0uMTY5LS4zNzktLjI2Mi0uNzg5LS4yNzMtMS4yMDRhMi43NSAyLjc1IDAgMCAxIDEuMTQ4LTIuMjk2bDEuMjU4LS45Mjl2LTIuODQ1bC0xLjMxMi0uOTgzQy0uMTM2IDEwLjU0Ni0uNSA5Ljc5OS0uNSA4Ljg1MmMwLS4zNjYuMDkxLS43NjcuMjczLTEuMjA0bDEuMDQtMi4wMjNjLjI1NS0uNTExLjYtLjg5MyAxLjAzOC0xLjE0OC40NzQtLjI1NS45NjgtLjM4MyAxLjQ3Ny0uMzgzLjQwMiAwIC43NDcuMDc0IDEuMDQuMjE5bDEuNjQxLjY1NiAyLjM1LTEuNDIzLjM4My0xLjgwMkEyLjY4IDIuNjggMCAwIDEgOS43MjcuMTU2YTIuNjEgMi42MSAwIDAgMSAxLjc1LS42NTZoMS45MTNhMi42MSAyLjYxIDAgMCAxIDEuNzUuNjU2Yy41MTEuNDAzLjg0LjkyOS45ODUgMS41ODZsLjMyNyAxLjgwNiAyLjQwNiAxLjQyMSAxLjY0Mi0uNjU2Yy4yOTEtLjE0NS42MzctLjIxOSAxLjA0LS4yMTlhMi43NyAyLjc3IDAgMCAxIDEuNDIxLjM4M2MuNDczLjI1NS44NC42MzcgMS4wOTQgMS4xNDhsLjk4NSAyLjAyM2MuMjE3LjM2Ni4zMjcuNzg0LjMyNyAxLjI1OCAwIC45MS0uMzgzIDEuNjQyLTEuMTQ4IDIuMTg4bC0xLjMxMi45ODV2Mi44NDRsMS4zMTMuOTI4Yy43NjUuNTg1IDEuMTQ4IDEuMzMyIDEuMTQ4IDIuMjQzIDAgLjQzOC0uMTEuODU4LS4zMjkgMS4yNThsLS45ODMgMi4wMjNjLS4yNTYuNTExLS42MTkuODkyLTEuMDk0IDEuMTQ4LS40MzcuMjU2LS45MS4zODMtMS40MjMuMzgzLS4zNjQgMC0uNzEtLjA1NC0xLjAzOC0uMTY1bC0xLjY0Mi0uNzEtMi40MDYgMS40MjMtLjMyNyAxLjgwMmMtLjE0Ny42NTgtLjQ3NCAxLjE4Ni0uOTg1IDEuNTg3YTIuNjEgMi42MSAwIDAgMS0xLjc1LjY1NnptLTcuMzgzLTguMjU4Yy40NzQgMCAuOTQ5LjE0NyAxLjQyMy40MzhsMi40MDYgMS40MjNjLjczLjQzOCAxLjE0OCAxLjA0IDEuMjU4IDEuODA0bC4zODIgMS44MDRoMS45MTVsLjMyOS0xLjgwNGMuMTgyLS44MDIuNjItMS40MDQgMS4zMTMtMS44MDRsMi4zNTItMS40MjNhMy4wNiAzLjA2IDAgMCAxIDEuNTI5LS40MzdjLjE4NCAwIC4zNDYuMDE3LjQ5NC4wNTRhNC4xNyA0LjE3IDAgMCAxIC40OTIuMTY1bDEuNjQyLjY1Ni45ODMtMi4wMjMtMS4yNTgtLjkyOWMtLjc2NS0uNTg0LTEuMTQ4LTEuMzMtMS4xNDgtMi4yNDJ2LTIuODQ1YzAtLjkxLjM4My0xLjY1NyAxLjE0OC0yLjI0bDEuMjU4LS45MzEtLjk4NS0yLjAyMy0xLjY0LjcxYy0uMzM1LjExMS0uNjg2LjE2Ni0xLjA0LjE2NS0uNTgzIDAtMS4wNzUtLjEyOC0xLjQ3Ny0uMzgzbC0yLjM1LTEuNDc3YTIuNjggMi42OCAwIDAgMS0xLjMxMi0xLjgwNEwxMy4zOSAyLjI5aC0xLjkxNWwtLjM4MiAxLjgwNGMtLjExLjc2Ni0uNTI4IDEuMzY3LTEuMjU4IDEuODA0TDcuNDgzIDcuMzc1Yy0uNDAxLjI1NS0uODkzLjM4My0xLjQ3NS4zODMtLjMyOSAwLS42OTMtLjA1Ni0xLjA5NC0uMTY1bC0xLjY0MS0uNzEtLjk4NSAyLjAyMyAxLjMxMy45MjljLjc2Ny41ODUgMS4xNSAxLjMzIDEuMTUgMi4yNDR2Mi44NDRjMCAuOTEtLjM4MyAxLjY1Ny0xLjE0OCAyLjI0bC0xLjMxMi45MzEgMS4wMzggMi4wMjMgMS42NDEtLjY1NmMuMjktLjE0NS42MzctLjIxOSAxLjA0LS4yMTl6bTYuNC0uMTY1YTUuNTcgNS41NyAwIDAgMS0yLjE4Ny0uNDM3Yy0uNjUzLS4yODktMS4yNDYtLjY5Ny0xLjc1LTEuMjAyYTUuNzcgNS43NyAwIDAgMS0xLjIwNC0xLjc1IDUuNTggNS41OCAwIDAgMS0uNDM3LTIuMTg3IDUuMjEgNS4yMSAwIDAgMSAuNDM4LTIuMTMzYy4yOTItLjY5My42OTMtMS4yOTUgMS4yMDQtMS44MDRzMS4wOTQtLjkxIDEuNzUtMS4yMDRhNS42IDUuNiAwIDAgMSAyLjE4OC0uNDM3Yy43NjUgMCAxLjQ5NS4xNDcgMi4xODguNDM4czEuMjk1LjY5MyAxLjgwNCAxLjIwNC45MSAxLjExMSAxLjIwNCAxLjgwNGMuMjkxLjY1Ni40MzggMS4zNjguNDM4IDIuMTMzYTUuNiA1LjYgMCAwIDEtLjQzNyAyLjE4OGMtLjI5LjY1My0uNjk4IDEuMjQ2LTEuMjA0IDEuNzUtLjUxMS41MTEtMS4xMTEuOTEtMS44MDQgMS4yMDRzLTEuNDIzLjQzNi0yLjE4Ny40MzZ6bTAtOC4zNjVjLS43NjcgMC0xLjQyMy4yNzEtMS45NjkuODE5LS4yNjQuMjU1LS40NzMuNTYxLS42MTQuODk5cy0uMjExLjcwMy0uMjA2IDEuMDY5YzAgLjc2Ny4yNzMgMS40MjMuODIxIDEuOTY5czEuMjAyLjgyMSAxLjk2OS44MjFjLjgwMiAwIDEuNDc3LS4yNzMgMi4wMjMtLjgyMXMuODIxLTEuMjA0LjgyMS0xLjk2OS0uMjczLTEuNDIzLS44MjEtMS45NjlhMi43NSAyLjc1IDAgMCAwLS45MjctLjYyYy0uMzQ4LS4xNDEtLjcyMS0uMjA4LTEuMDk2LS4xOTl6Ii8+JiN4YTs8L3N2Zz4=;" parent="1" vertex="1">
          <mxGeometry x="654" y="361" width="26" height="28" as="geometry" />
        </mxCell>
        <mxCell id="4PZDsu9GYQmbysmXE2yF-117" value="" style="shape=image;editableCssRules=.*;verticalLabelPosition=bottom;labelBackgroundColor=default;verticalAlign=top;aspect=fixed;imageAspect=0;image=data:image/svg+xml,PHN2ZyB4bWxucz0iaHR0cDovL3d3dy53My5vcmcvMjAwMC9zdmciIHZpZXdCb3g9Ii0wLjUgLTAuNSAyNS44NjcgMjgiIGhlaWdodD0iMjgiIHdpZHRoPSIyNS44NjciPiYjeGE7CSAgPHN0eWxlIHR5cGU9InRleHQvY3NzIj4uc3QwIHsgc3RvcC1jb2xvcjogcmdiKDkxLCAxMTUsIDEzOSk7IH0gLnN0MSB7IHN0b3AtY29sb3I6IHJnYigzNCwgNTMsIDcyKTsgfSA8L3N0eWxlPiYjeGE7CTxkZWZzPiYjeGE7CQk8bGluZWFyR3JhZGllbnQgZ3JhZGllbnRVbml0cz0idXNlclNwYWNlT25Vc2UiIHkyPSIyMy42MTMiIHgyPSIyMy4yMjciIHkxPSIzLjQ3NCIgeDE9IjEuODQ2IiBpZD0iQSI+JiN4YTsJCQk8c3RvcCBjbGFzcz0ic3QwIi8+JiN4YTsJCQk8c3RvcCBjbGFzcz0ic3QxIiBvZmZzZXQ9IjEiLz4mI3hhOwkJPC9saW5lYXJHcmFkaWVudD4mI3hhOwk8L2RlZnM+JiN4YTsJPHBhdGggZmlsbD0idXJsKCNBKSIgZD0iTTEzLjM5IDI3LjVoLTEuOTE1Yy0uNjU2IDAtMS4yNTctLjIxOS0xLjgwMy0uNjU2YTIuNDYgMi40NiAwIDAgMS0uOTMxLTEuNTg1bC0uMzgzLTEuODA0LTIuMzUtMS40MjMtMS42NDEuNzFhMy42MSAzLjYxIDAgMCAxLTEuMDQuMTY1Yy0uNTA5IDAtMS4wMDMtLjEyOC0xLjQ3Ny0uMzgzLS40NTItLjI3MS0uODEzLS42NzEtMS4wMzgtMS4xNDhsLTEuMDM5LTIuMDIzYy0uMTY5LS4zNzktLjI2Mi0uNzg5LS4yNzMtMS4yMDRhMi43NSAyLjc1IDAgMCAxIDEuMTQ4LTIuMjk2bDEuMjU4LS45Mjl2LTIuODQ1bC0xLjMxMi0uOTgzQy0uMTM2IDEwLjU0Ni0uNSA5Ljc5OS0uNSA4Ljg1MmMwLS4zNjYuMDkxLS43NjcuMjczLTEuMjA0bDEuMDQtMi4wMjNjLjI1NS0uNTExLjYtLjg5MyAxLjAzOC0xLjE0OC40NzQtLjI1NS45NjgtLjM4MyAxLjQ3Ny0uMzgzLjQwMiAwIC43NDcuMDc0IDEuMDQuMjE5bDEuNjQxLjY1NiAyLjM1LTEuNDIzLjM4My0xLjgwMkEyLjY4IDIuNjggMCAwIDEgOS43MjcuMTU2YTIuNjEgMi42MSAwIDAgMSAxLjc1LS42NTZoMS45MTNhMi42MSAyLjYxIDAgMCAxIDEuNzUuNjU2Yy41MTEuNDAzLjg0LjkyOS45ODUgMS41ODZsLjMyNyAxLjgwNiAyLjQwNiAxLjQyMSAxLjY0Mi0uNjU2Yy4yOTEtLjE0NS42MzctLjIxOSAxLjA0LS4yMTlhMi43NyAyLjc3IDAgMCAxIDEuNDIxLjM4M2MuNDczLjI1NS44NC42MzcgMS4wOTQgMS4xNDhsLjk4NSAyLjAyM2MuMjE3LjM2Ni4zMjcuNzg0LjMyNyAxLjI1OCAwIC45MS0uMzgzIDEuNjQyLTEuMTQ4IDIuMTg4bC0xLjMxMi45ODV2Mi44NDRsMS4zMTMuOTI4Yy43NjUuNTg1IDEuMTQ4IDEuMzMyIDEuMTQ4IDIuMjQzIDAgLjQzOC0uMTEuODU4LS4zMjkgMS4yNThsLS45ODMgMi4wMjNjLS4yNTYuNTExLS42MTkuODkyLTEuMDk0IDEuMTQ4LS40MzcuMjU2LS45MS4zODMtMS40MjMuMzgzLS4zNjQgMC0uNzEtLjA1NC0xLjAzOC0uMTY1bC0xLjY0Mi0uNzEtMi40MDYgMS40MjMtLjMyNyAxLjgwMmMtLjE0Ny42NTgtLjQ3NCAxLjE4Ni0uOTg1IDEuNTg3YTIuNjEgMi42MSAwIDAgMS0xLjc1LjY1NnptLTcuMzgzLTguMjU4Yy40NzQgMCAuOTQ5LjE0NyAxLjQyMy40MzhsMi40MDYgMS40MjNjLjczLjQzOCAxLjE0OCAxLjA0IDEuMjU4IDEuODA0bC4zODIgMS44MDRoMS45MTVsLjMyOS0xLjgwNGMuMTgyLS44MDIuNjItMS40MDQgMS4zMTMtMS44MDRsMi4zNTItMS40MjNhMy4wNiAzLjA2IDAgMCAxIDEuNTI5LS40MzdjLjE4NCAwIC4zNDYuMDE3LjQ5NC4wNTRhNC4xNyA0LjE3IDAgMCAxIC40OTIuMTY1bDEuNjQyLjY1Ni45ODMtMi4wMjMtMS4yNTgtLjkyOWMtLjc2NS0uNTg0LTEuMTQ4LTEuMzMtMS4xNDgtMi4yNDJ2LTIuODQ1YzAtLjkxLjM4My0xLjY1NyAxLjE0OC0yLjI0bDEuMjU4LS45MzEtLjk4NS0yLjAyMy0xLjY0LjcxYy0uMzM1LjExMS0uNjg2LjE2Ni0xLjA0LjE2NS0uNTgzIDAtMS4wNzUtLjEyOC0xLjQ3Ny0uMzgzbC0yLjM1LTEuNDc3YTIuNjggMi42OCAwIDAgMS0xLjMxMi0xLjgwNEwxMy4zOSAyLjI5aC0xLjkxNWwtLjM4MiAxLjgwNGMtLjExLjc2Ni0uNTI4IDEuMzY3LTEuMjU4IDEuODA0TDcuNDgzIDcuMzc1Yy0uNDAxLjI1NS0uODkzLjM4My0xLjQ3NS4zODMtLjMyOSAwLS42OTMtLjA1Ni0xLjA5NC0uMTY1bC0xLjY0MS0uNzEtLjk4NSAyLjAyMyAxLjMxMy45MjljLjc2Ny41ODUgMS4xNSAxLjMzIDEuMTUgMi4yNDR2Mi44NDRjMCAuOTEtLjM4MyAxLjY1Ny0xLjE0OCAyLjI0bC0xLjMxMi45MzEgMS4wMzggMi4wMjMgMS42NDEtLjY1NmMuMjktLjE0NS42MzctLjIxOSAxLjA0LS4yMTl6bTYuNC0uMTY1YTUuNTcgNS41NyAwIDAgMS0yLjE4Ny0uNDM3Yy0uNjUzLS4yODktMS4yNDYtLjY5Ny0xLjc1LTEuMjAyYTUuNzcgNS43NyAwIDAgMS0xLjIwNC0xLjc1IDUuNTggNS41OCAwIDAgMS0uNDM3LTIuMTg3IDUuMjEgNS4yMSAwIDAgMSAuNDM4LTIuMTMzYy4yOTItLjY5My42OTMtMS4yOTUgMS4yMDQtMS44MDRzMS4wOTQtLjkxIDEuNzUtMS4yMDRhNS42IDUuNiAwIDAgMSAyLjE4OC0uNDM3Yy43NjUgMCAxLjQ5NS4xNDcgMi4xODguNDM4czEuMjk1LjY5MyAxLjgwNCAxLjIwNC45MSAxLjExMSAxLjIwNCAxLjgwNGMuMjkxLjY1Ni40MzggMS4zNjguNDM4IDIuMTMzYTUuNiA1LjYgMCAwIDEtLjQzNyAyLjE4OGMtLjI5LjY1My0uNjk4IDEuMjQ2LTEuMjA0IDEuNzUtLjUxMS41MTEtMS4xMTEuOTEtMS44MDQgMS4yMDRzLTEuNDIzLjQzNi0yLjE4Ny40MzZ6bTAtOC4zNjVjLS43NjcgMC0xLjQyMy4yNzEtMS45NjkuODE5LS4yNjQuMjU1LS40NzMuNTYxLS42MTQuODk5cy0uMjExLjcwMy0uMjA2IDEuMDY5YzAgLjc2Ny4yNzMgMS40MjMuODIxIDEuOTY5czEuMjAyLjgyMSAxLjk2OS44MjFjLjgwMiAwIDEuNDc3LS4yNzMgMi4wMjMtLjgyMXMuODIxLTEuMjA0LjgyMS0xLjk2OS0uMjczLTEuNDIzLS44MjEtMS45NjlhMi43NSAyLjc1IDAgMCAwLS45MjctLjYyYy0uMzQ4LS4xNDEtLjcyMS0uMjA4LTEuMDk2LS4xOTl6Ii8+JiN4YTs8L3N2Zz4=;" parent="1" vertex="1">
          <mxGeometry x="654" y="423.5" width="26" height="28" as="geometry" />
        </mxCell>
      </root>
    </mxGraphModel>
  </diagram>
  <diagram id="xrsgZZlU1CHSKdz9oDeb" name="Page-2">
    <mxGraphModel dx="1674" dy="738" grid="1" gridSize="10" guides="1" tooltips="1" connect="1" arrows="1" fold="1" page="1" pageScale="1" pageWidth="850" pageHeight="1100" math="0" shadow="0">
      <root>
        <mxCell id="0" />
        <mxCell id="1" parent="0" />
        <mxCell id="FZumNeq0OFxA-yWFMnFE-1" value="Recipe" style="swimlane;fontStyle=1;align=center;verticalAlign=middle;childLayout=stackLayout;horizontal=1;startSize=29;horizontalStack=0;resizeParent=1;resizeParentMax=0;resizeLast=0;collapsible=0;marginBottom=0;html=1;whiteSpace=wrap;" vertex="1" parent="1">
          <mxGeometry x="270" y="270" width="280" height="160" as="geometry" />
        </mxCell>
        <mxCell id="FZumNeq0OFxA-yWFMnFE-2" value="id - string (unique, generated)&lt;div&gt;name - string (required)&lt;/div&gt;&lt;div&gt;ingredients - string (optional)&lt;/div&gt;&lt;div&gt;instructions - string (optional)&lt;/div&gt;&lt;div&gt;rating - number (optional)&lt;/div&gt;&lt;div&gt;foodCategory - string (optional)&lt;/div&gt;&lt;div&gt;favourite - boolean (optional, defaults to false)&lt;/div&gt;&lt;div&gt;&lt;br&gt;&lt;/div&gt;" style="text;html=1;strokeColor=none;fillColor=none;align=center;verticalAlign=middle;spacingLeft=4;spacingRight=4;overflow=hidden;rotatable=0;points=[[0,0.5],[1,0.5]];portConstraint=eastwest;whiteSpace=wrap;" vertex="1" parent="FZumNeq0OFxA-yWFMnFE-1">
          <mxGeometry y="29" width="280" height="131" as="geometry" />
        </mxCell>
      </root>
    </mxGraphModel>
  </diagram>
  <diagram id="cQVXEDCENyhL44OZBxlN" name="Page-3">
    <mxGraphModel dx="2267" dy="1649" grid="1" gridSize="10" guides="1" tooltips="1" connect="1" arrows="1" fold="1" page="1" pageScale="1" pageWidth="850" pageHeight="1100" math="0" shadow="0">
      <root>
        <mxCell id="0" />
        <mxCell id="1" parent="0" />
        <mxCell id="5fHvvKTVJmoHPn84sj_M-12" style="edgeStyle=orthogonalEdgeStyle;rounded=0;orthogonalLoop=1;jettySize=auto;html=1;exitX=0.5;exitY=1;exitDx=0;exitDy=0;" edge="1" parent="1">
          <mxGeometry relative="1" as="geometry">
            <mxPoint x="140" y="240" as="sourcePoint" />
            <mxPoint x="140" y="240" as="targetPoint" />
          </mxGeometry>
        </mxCell>
        <mxCell id="5fHvvKTVJmoHPn84sj_M-13" style="edgeStyle=orthogonalEdgeStyle;rounded=0;orthogonalLoop=1;jettySize=auto;html=1;exitX=0.5;exitY=1;exitDx=0;exitDy=0;" edge="1" parent="1">
          <mxGeometry relative="1" as="geometry">
            <mxPoint x="140" y="240" as="sourcePoint" />
            <mxPoint x="140" y="240" as="targetPoint" />
          </mxGeometry>
        </mxCell>
        <mxCell id="5fHvvKTVJmoHPn84sj_M-29" value="Zamestnanec" style="shape=table;startSize=30;container=1;collapsible=1;childLayout=tableLayout;fixedRows=1;rowLines=0;fontStyle=1;align=center;resizeLast=1;html=1;" vertex="1" parent="1">
          <mxGeometry x="310" y="50" width="180" height="150" as="geometry" />
        </mxCell>
        <mxCell id="5fHvvKTVJmoHPn84sj_M-30" value="" style="shape=tableRow;horizontal=0;startSize=0;swimlaneHead=0;swimlaneBody=0;fillColor=none;collapsible=0;dropTarget=0;points=[[0,0.5],[1,0.5]];portConstraint=eastwest;top=0;left=0;right=0;bottom=1;" vertex="1" parent="5fHvvKTVJmoHPn84sj_M-29">
          <mxGeometry y="30" width="180" height="30" as="geometry" />
        </mxCell>
        <mxCell id="5fHvvKTVJmoHPn84sj_M-31" value="PK" style="shape=partialRectangle;connectable=0;fillColor=none;top=0;left=0;bottom=0;right=0;fontStyle=1;overflow=hidden;whiteSpace=wrap;html=1;" vertex="1" parent="5fHvvKTVJmoHPn84sj_M-30">
          <mxGeometry width="30" height="30" as="geometry">
            <mxRectangle width="30" height="30" as="alternateBounds" />
          </mxGeometry>
        </mxCell>
        <mxCell id="5fHvvKTVJmoHPn84sj_M-32" value="zamestnanec_id" style="shape=partialRectangle;connectable=0;fillColor=none;top=0;left=0;bottom=0;right=0;align=left;spacingLeft=6;fontStyle=5;overflow=hidden;whiteSpace=wrap;html=1;" vertex="1" parent="5fHvvKTVJmoHPn84sj_M-30">
          <mxGeometry x="30" width="150" height="30" as="geometry">
            <mxRectangle width="150" height="30" as="alternateBounds" />
          </mxGeometry>
        </mxCell>
        <mxCell id="5fHvvKTVJmoHPn84sj_M-33" value="" style="shape=tableRow;horizontal=0;startSize=0;swimlaneHead=0;swimlaneBody=0;fillColor=none;collapsible=0;dropTarget=0;points=[[0,0.5],[1,0.5]];portConstraint=eastwest;top=0;left=0;right=0;bottom=0;" vertex="1" parent="5fHvvKTVJmoHPn84sj_M-29">
          <mxGeometry y="60" width="180" height="30" as="geometry" />
        </mxCell>
        <mxCell id="5fHvvKTVJmoHPn84sj_M-34" value="" style="shape=partialRectangle;connectable=0;fillColor=none;top=0;left=0;bottom=0;right=0;editable=1;overflow=hidden;whiteSpace=wrap;html=1;" vertex="1" parent="5fHvvKTVJmoHPn84sj_M-33">
          <mxGeometry width="30" height="30" as="geometry">
            <mxRectangle width="30" height="30" as="alternateBounds" />
          </mxGeometry>
        </mxCell>
        <mxCell id="5fHvvKTVJmoHPn84sj_M-35" value="meno" style="shape=partialRectangle;connectable=0;fillColor=none;top=0;left=0;bottom=0;right=0;align=left;spacingLeft=6;overflow=hidden;whiteSpace=wrap;html=1;" vertex="1" parent="5fHvvKTVJmoHPn84sj_M-33">
          <mxGeometry x="30" width="150" height="30" as="geometry">
            <mxRectangle width="150" height="30" as="alternateBounds" />
          </mxGeometry>
        </mxCell>
        <mxCell id="5fHvvKTVJmoHPn84sj_M-36" value="" style="shape=tableRow;horizontal=0;startSize=0;swimlaneHead=0;swimlaneBody=0;fillColor=none;collapsible=0;dropTarget=0;points=[[0,0.5],[1,0.5]];portConstraint=eastwest;top=0;left=0;right=0;bottom=0;" vertex="1" parent="5fHvvKTVJmoHPn84sj_M-29">
          <mxGeometry y="90" width="180" height="30" as="geometry" />
        </mxCell>
        <mxCell id="5fHvvKTVJmoHPn84sj_M-37" value="" style="shape=partialRectangle;connectable=0;fillColor=none;top=0;left=0;bottom=0;right=0;editable=1;overflow=hidden;whiteSpace=wrap;html=1;" vertex="1" parent="5fHvvKTVJmoHPn84sj_M-36">
          <mxGeometry width="30" height="30" as="geometry">
            <mxRectangle width="30" height="30" as="alternateBounds" />
          </mxGeometry>
        </mxCell>
        <mxCell id="5fHvvKTVJmoHPn84sj_M-38" value="pracovna_rola" style="shape=partialRectangle;connectable=0;fillColor=none;top=0;left=0;bottom=0;right=0;align=left;spacingLeft=6;overflow=hidden;whiteSpace=wrap;html=1;" vertex="1" parent="5fHvvKTVJmoHPn84sj_M-36">
          <mxGeometry x="30" width="150" height="30" as="geometry">
            <mxRectangle width="150" height="30" as="alternateBounds" />
          </mxGeometry>
        </mxCell>
        <mxCell id="5fHvvKTVJmoHPn84sj_M-39" value="" style="shape=tableRow;horizontal=0;startSize=0;swimlaneHead=0;swimlaneBody=0;fillColor=none;collapsible=0;dropTarget=0;points=[[0,0.5],[1,0.5]];portConstraint=eastwest;top=0;left=0;right=0;bottom=0;" vertex="1" parent="5fHvvKTVJmoHPn84sj_M-29">
          <mxGeometry y="120" width="180" height="30" as="geometry" />
        </mxCell>
        <mxCell id="5fHvvKTVJmoHPn84sj_M-40" value="" style="shape=partialRectangle;connectable=0;fillColor=none;top=0;left=0;bottom=0;right=0;editable=1;overflow=hidden;whiteSpace=wrap;html=1;" vertex="1" parent="5fHvvKTVJmoHPn84sj_M-39">
          <mxGeometry width="30" height="30" as="geometry">
            <mxRectangle width="30" height="30" as="alternateBounds" />
          </mxGeometry>
        </mxCell>
        <mxCell id="5fHvvKTVJmoHPn84sj_M-41" value="Sadzba_na_hodinu" style="shape=partialRectangle;connectable=0;fillColor=none;top=0;left=0;bottom=0;right=0;align=left;spacingLeft=6;overflow=hidden;whiteSpace=wrap;html=1;" vertex="1" parent="5fHvvKTVJmoHPn84sj_M-39">
          <mxGeometry x="30" width="150" height="30" as="geometry">
            <mxRectangle width="150" height="30" as="alternateBounds" />
          </mxGeometry>
        </mxCell>
        <mxCell id="5fHvvKTVJmoHPn84sj_M-42" value="Dochadzka" style="shape=table;startSize=40;container=1;collapsible=1;childLayout=tableLayout;fixedRows=1;rowLines=0;fontStyle=1;align=center;resizeLast=1;html=1;" vertex="1" parent="1">
          <mxGeometry x="660" y="20" width="200" height="260" as="geometry" />
        </mxCell>
        <mxCell id="5fHvvKTVJmoHPn84sj_M-43" value="" style="shape=tableRow;horizontal=0;startSize=0;swimlaneHead=0;swimlaneBody=0;fillColor=none;collapsible=0;dropTarget=0;points=[[0,0.5],[1,0.5]];portConstraint=eastwest;top=0;left=0;right=0;bottom=1;" vertex="1" parent="5fHvvKTVJmoHPn84sj_M-42">
          <mxGeometry y="40" width="200" height="40" as="geometry" />
        </mxCell>
        <mxCell id="5fHvvKTVJmoHPn84sj_M-44" value="PK" style="shape=partialRectangle;connectable=0;fillColor=none;top=0;left=0;bottom=0;right=0;fontStyle=1;overflow=hidden;whiteSpace=wrap;html=1;" vertex="1" parent="5fHvvKTVJmoHPn84sj_M-43">
          <mxGeometry width="40" height="40" as="geometry">
            <mxRectangle width="40" height="40" as="alternateBounds" />
          </mxGeometry>
        </mxCell>
        <mxCell id="5fHvvKTVJmoHPn84sj_M-45" value="Dochadzka_id" style="shape=partialRectangle;connectable=0;fillColor=none;top=0;left=0;bottom=0;right=0;align=left;spacingLeft=6;fontStyle=5;overflow=hidden;whiteSpace=wrap;html=1;" vertex="1" parent="5fHvvKTVJmoHPn84sj_M-43">
          <mxGeometry x="40" width="160" height="40" as="geometry">
            <mxRectangle width="160" height="40" as="alternateBounds" />
          </mxGeometry>
        </mxCell>
        <mxCell id="5fHvvKTVJmoHPn84sj_M-46" value="" style="shape=tableRow;horizontal=0;startSize=0;swimlaneHead=0;swimlaneBody=0;fillColor=none;collapsible=0;dropTarget=0;points=[[0,0.5],[1,0.5]];portConstraint=eastwest;top=0;left=0;right=0;bottom=0;" vertex="1" parent="5fHvvKTVJmoHPn84sj_M-42">
          <mxGeometry y="80" width="200" height="30" as="geometry" />
        </mxCell>
        <mxCell id="5fHvvKTVJmoHPn84sj_M-47" value="FK" style="shape=partialRectangle;connectable=0;fillColor=none;top=0;left=0;bottom=0;right=0;editable=1;overflow=hidden;whiteSpace=wrap;html=1;" vertex="1" parent="5fHvvKTVJmoHPn84sj_M-46">
          <mxGeometry width="40" height="30" as="geometry">
            <mxRectangle width="40" height="30" as="alternateBounds" />
          </mxGeometry>
        </mxCell>
        <mxCell id="5fHvvKTVJmoHPn84sj_M-48" value="zamestnanec_id" style="shape=partialRectangle;connectable=0;fillColor=none;top=0;left=0;bottom=0;right=0;align=left;spacingLeft=6;overflow=hidden;whiteSpace=wrap;html=1;" vertex="1" parent="5fHvvKTVJmoHPn84sj_M-46">
          <mxGeometry x="40" width="160" height="30" as="geometry">
            <mxRectangle width="160" height="30" as="alternateBounds" />
          </mxGeometry>
        </mxCell>
        <mxCell id="5fHvvKTVJmoHPn84sj_M-49" value="" style="shape=tableRow;horizontal=0;startSize=0;swimlaneHead=0;swimlaneBody=0;fillColor=none;collapsible=0;dropTarget=0;points=[[0,0.5],[1,0.5]];portConstraint=eastwest;top=0;left=0;right=0;bottom=0;" vertex="1" parent="5fHvvKTVJmoHPn84sj_M-42">
          <mxGeometry y="110" width="200" height="30" as="geometry" />
        </mxCell>
        <mxCell id="5fHvvKTVJmoHPn84sj_M-50" value="FK" style="shape=partialRectangle;connectable=0;fillColor=none;top=0;left=0;bottom=0;right=0;editable=1;overflow=hidden;whiteSpace=wrap;html=1;" vertex="1" parent="5fHvvKTVJmoHPn84sj_M-49">
          <mxGeometry width="40" height="30" as="geometry">
            <mxRectangle width="40" height="30" as="alternateBounds" />
          </mxGeometry>
        </mxCell>
        <mxCell id="5fHvvKTVJmoHPn84sj_M-51" value="projekt_id" style="shape=partialRectangle;connectable=0;fillColor=none;top=0;left=0;bottom=0;right=0;align=left;spacingLeft=6;overflow=hidden;whiteSpace=wrap;html=1;" vertex="1" parent="5fHvvKTVJmoHPn84sj_M-49">
          <mxGeometry x="40" width="160" height="30" as="geometry">
            <mxRectangle width="160" height="30" as="alternateBounds" />
          </mxGeometry>
        </mxCell>
        <mxCell id="5fHvvKTVJmoHPn84sj_M-52" value="" style="shape=tableRow;horizontal=0;startSize=0;swimlaneHead=0;swimlaneBody=0;fillColor=none;collapsible=0;dropTarget=0;points=[[0,0.5],[1,0.5]];portConstraint=eastwest;top=0;left=0;right=0;bottom=0;" vertex="1" parent="5fHvvKTVJmoHPn84sj_M-42">
          <mxGeometry y="140" width="200" height="30" as="geometry" />
        </mxCell>
        <mxCell id="5fHvvKTVJmoHPn84sj_M-53" value="" style="shape=partialRectangle;connectable=0;fillColor=none;top=0;left=0;bottom=0;right=0;editable=1;overflow=hidden;whiteSpace=wrap;html=1;" vertex="1" parent="5fHvvKTVJmoHPn84sj_M-52">
          <mxGeometry width="40" height="30" as="geometry">
            <mxRectangle width="40" height="30" as="alternateBounds" />
          </mxGeometry>
        </mxCell>
        <mxCell id="5fHvvKTVJmoHPn84sj_M-54" value="datum" style="shape=partialRectangle;connectable=0;fillColor=none;top=0;left=0;bottom=0;right=0;align=left;spacingLeft=6;overflow=hidden;whiteSpace=wrap;html=1;" vertex="1" parent="5fHvvKTVJmoHPn84sj_M-52">
          <mxGeometry x="40" width="160" height="30" as="geometry">
            <mxRectangle width="160" height="30" as="alternateBounds" />
          </mxGeometry>
        </mxCell>
        <mxCell id="5fHvvKTVJmoHPn84sj_M-70" value="" style="shape=tableRow;horizontal=0;startSize=0;swimlaneHead=0;swimlaneBody=0;fillColor=none;collapsible=0;dropTarget=0;points=[[0,0.5],[1,0.5]];portConstraint=eastwest;top=0;left=0;right=0;bottom=0;" vertex="1" parent="5fHvvKTVJmoHPn84sj_M-42">
          <mxGeometry y="170" width="200" height="30" as="geometry" />
        </mxCell>
        <mxCell id="5fHvvKTVJmoHPn84sj_M-71" value="" style="shape=partialRectangle;connectable=0;fillColor=none;top=0;left=0;bottom=0;right=0;editable=1;overflow=hidden;whiteSpace=wrap;html=1;" vertex="1" parent="5fHvvKTVJmoHPn84sj_M-70">
          <mxGeometry width="40" height="30" as="geometry">
            <mxRectangle width="40" height="30" as="alternateBounds" />
          </mxGeometry>
        </mxCell>
        <mxCell id="5fHvvKTVJmoHPn84sj_M-72" value="cas_prichodu" style="shape=partialRectangle;connectable=0;fillColor=none;top=0;left=0;bottom=0;right=0;align=left;spacingLeft=6;overflow=hidden;whiteSpace=wrap;html=1;" vertex="1" parent="5fHvvKTVJmoHPn84sj_M-70">
          <mxGeometry x="40" width="160" height="30" as="geometry">
            <mxRectangle width="160" height="30" as="alternateBounds" />
          </mxGeometry>
        </mxCell>
        <mxCell id="5fHvvKTVJmoHPn84sj_M-73" value="" style="shape=tableRow;horizontal=0;startSize=0;swimlaneHead=0;swimlaneBody=0;fillColor=none;collapsible=0;dropTarget=0;points=[[0,0.5],[1,0.5]];portConstraint=eastwest;top=0;left=0;right=0;bottom=0;" vertex="1" parent="5fHvvKTVJmoHPn84sj_M-42">
          <mxGeometry y="200" width="200" height="30" as="geometry" />
        </mxCell>
        <mxCell id="5fHvvKTVJmoHPn84sj_M-74" value="" style="shape=partialRectangle;connectable=0;fillColor=none;top=0;left=0;bottom=0;right=0;editable=1;overflow=hidden;whiteSpace=wrap;html=1;" vertex="1" parent="5fHvvKTVJmoHPn84sj_M-73">
          <mxGeometry width="40" height="30" as="geometry">
            <mxRectangle width="40" height="30" as="alternateBounds" />
          </mxGeometry>
        </mxCell>
        <mxCell id="5fHvvKTVJmoHPn84sj_M-75" value="cas_odchodu" style="shape=partialRectangle;connectable=0;fillColor=none;top=0;left=0;bottom=0;right=0;align=left;spacingLeft=6;overflow=hidden;whiteSpace=wrap;html=1;" vertex="1" parent="5fHvvKTVJmoHPn84sj_M-73">
          <mxGeometry x="40" width="160" height="30" as="geometry">
            <mxRectangle width="160" height="30" as="alternateBounds" />
          </mxGeometry>
        </mxCell>
        <mxCell id="5fHvvKTVJmoHPn84sj_M-76" value="" style="shape=tableRow;horizontal=0;startSize=0;swimlaneHead=0;swimlaneBody=0;fillColor=none;collapsible=0;dropTarget=0;points=[[0,0.5],[1,0.5]];portConstraint=eastwest;top=0;left=0;right=0;bottom=0;" vertex="1" parent="5fHvvKTVJmoHPn84sj_M-42">
          <mxGeometry y="230" width="200" height="30" as="geometry" />
        </mxCell>
        <mxCell id="5fHvvKTVJmoHPn84sj_M-77" value="" style="shape=partialRectangle;connectable=0;fillColor=none;top=0;left=0;bottom=0;right=0;editable=1;overflow=hidden;whiteSpace=wrap;html=1;" vertex="1" parent="5fHvvKTVJmoHPn84sj_M-76">
          <mxGeometry width="40" height="30" as="geometry">
            <mxRectangle width="40" height="30" as="alternateBounds" />
          </mxGeometry>
        </mxCell>
        <mxCell id="5fHvvKTVJmoHPn84sj_M-78" value="volno" style="shape=partialRectangle;connectable=0;fillColor=none;top=0;left=0;bottom=0;right=0;align=left;spacingLeft=6;overflow=hidden;whiteSpace=wrap;html=1;" vertex="1" parent="5fHvvKTVJmoHPn84sj_M-76">
          <mxGeometry x="40" width="160" height="30" as="geometry">
            <mxRectangle width="160" height="30" as="alternateBounds" />
          </mxGeometry>
        </mxCell>
        <mxCell id="5fHvvKTVJmoHPn84sj_M-302" style="edgeStyle=orthogonalEdgeStyle;rounded=0;orthogonalLoop=1;jettySize=auto;html=1;exitX=0.25;exitY=0;exitDx=0;exitDy=0;entryX=0;entryY=0.5;entryDx=0;entryDy=0;" edge="1" parent="1" source="5fHvvKTVJmoHPn84sj_M-104" target="5fHvvKTVJmoHPn84sj_M-76">
          <mxGeometry relative="1" as="geometry" />
        </mxCell>
        <mxCell id="5fHvvKTVJmoHPn84sj_M-313" value="&amp;nbsp;&lt;span style=&quot;background-color: light-dark(#ffffff, var(--ge-dark-color, #121212)); color: light-dark(rgb(0, 0, 0), rgb(255, 255, 255));&quot;&gt;1:N&amp;nbsp;&lt;/span&gt;" style="edgeLabel;html=1;align=center;verticalAlign=middle;resizable=0;points=[];" vertex="1" connectable="0" parent="5fHvvKTVJmoHPn84sj_M-302">
          <mxGeometry x="-0.1131" y="1" relative="1" as="geometry">
            <mxPoint as="offset" />
          </mxGeometry>
        </mxCell>
        <mxCell id="5fHvvKTVJmoHPn84sj_M-104" value="Projekt" style="shape=table;startSize=40;container=1;collapsible=1;childLayout=tableLayout;fixedRows=1;rowLines=0;fontStyle=1;align=center;resizeLast=1;html=1;" vertex="1" parent="1">
          <mxGeometry x="760" y="360" width="180" height="190" as="geometry" />
        </mxCell>
        <mxCell id="5fHvvKTVJmoHPn84sj_M-105" value="" style="shape=tableRow;horizontal=0;startSize=0;swimlaneHead=0;swimlaneBody=0;fillColor=none;collapsible=0;dropTarget=0;points=[[0,0.5],[1,0.5]];portConstraint=eastwest;top=0;left=0;right=0;bottom=1;" vertex="1" parent="5fHvvKTVJmoHPn84sj_M-104">
          <mxGeometry y="40" width="180" height="30" as="geometry" />
        </mxCell>
        <mxCell id="5fHvvKTVJmoHPn84sj_M-106" value="PK" style="shape=partialRectangle;connectable=0;fillColor=none;top=0;left=0;bottom=0;right=0;fontStyle=1;overflow=hidden;whiteSpace=wrap;html=1;" vertex="1" parent="5fHvvKTVJmoHPn84sj_M-105">
          <mxGeometry width="30" height="30" as="geometry">
            <mxRectangle width="30" height="30" as="alternateBounds" />
          </mxGeometry>
        </mxCell>
        <mxCell id="5fHvvKTVJmoHPn84sj_M-107" value="projekt_id" style="shape=partialRectangle;connectable=0;fillColor=none;top=0;left=0;bottom=0;right=0;align=left;spacingLeft=6;fontStyle=5;overflow=hidden;whiteSpace=wrap;html=1;" vertex="1" parent="5fHvvKTVJmoHPn84sj_M-105">
          <mxGeometry x="30" width="150" height="30" as="geometry">
            <mxRectangle width="150" height="30" as="alternateBounds" />
          </mxGeometry>
        </mxCell>
        <mxCell id="5fHvvKTVJmoHPn84sj_M-108" value="" style="shape=tableRow;horizontal=0;startSize=0;swimlaneHead=0;swimlaneBody=0;fillColor=none;collapsible=0;dropTarget=0;points=[[0,0.5],[1,0.5]];portConstraint=eastwest;top=0;left=0;right=0;bottom=0;" vertex="1" parent="5fHvvKTVJmoHPn84sj_M-104">
          <mxGeometry y="70" width="180" height="30" as="geometry" />
        </mxCell>
        <mxCell id="5fHvvKTVJmoHPn84sj_M-109" value="" style="shape=partialRectangle;connectable=0;fillColor=none;top=0;left=0;bottom=0;right=0;editable=1;overflow=hidden;whiteSpace=wrap;html=1;" vertex="1" parent="5fHvvKTVJmoHPn84sj_M-108">
          <mxGeometry width="30" height="30" as="geometry">
            <mxRectangle width="30" height="30" as="alternateBounds" />
          </mxGeometry>
        </mxCell>
        <mxCell id="5fHvvKTVJmoHPn84sj_M-110" value="nazov" style="shape=partialRectangle;connectable=0;fillColor=none;top=0;left=0;bottom=0;right=0;align=left;spacingLeft=6;overflow=hidden;whiteSpace=wrap;html=1;" vertex="1" parent="5fHvvKTVJmoHPn84sj_M-108">
          <mxGeometry x="30" width="150" height="30" as="geometry">
            <mxRectangle width="150" height="30" as="alternateBounds" />
          </mxGeometry>
        </mxCell>
        <mxCell id="5fHvvKTVJmoHPn84sj_M-111" value="" style="shape=tableRow;horizontal=0;startSize=0;swimlaneHead=0;swimlaneBody=0;fillColor=none;collapsible=0;dropTarget=0;points=[[0,0.5],[1,0.5]];portConstraint=eastwest;top=0;left=0;right=0;bottom=0;" vertex="1" parent="5fHvvKTVJmoHPn84sj_M-104">
          <mxGeometry y="100" width="180" height="30" as="geometry" />
        </mxCell>
        <mxCell id="5fHvvKTVJmoHPn84sj_M-112" value="" style="shape=partialRectangle;connectable=0;fillColor=none;top=0;left=0;bottom=0;right=0;editable=1;overflow=hidden;whiteSpace=wrap;html=1;" vertex="1" parent="5fHvvKTVJmoHPn84sj_M-111">
          <mxGeometry width="30" height="30" as="geometry">
            <mxRectangle width="30" height="30" as="alternateBounds" />
          </mxGeometry>
        </mxCell>
        <mxCell id="5fHvvKTVJmoHPn84sj_M-113" value="rozpocet" style="shape=partialRectangle;connectable=0;fillColor=none;top=0;left=0;bottom=0;right=0;align=left;spacingLeft=6;overflow=hidden;whiteSpace=wrap;html=1;" vertex="1" parent="5fHvvKTVJmoHPn84sj_M-111">
          <mxGeometry x="30" width="150" height="30" as="geometry">
            <mxRectangle width="150" height="30" as="alternateBounds" />
          </mxGeometry>
        </mxCell>
        <mxCell id="5fHvvKTVJmoHPn84sj_M-114" value="" style="shape=tableRow;horizontal=0;startSize=0;swimlaneHead=0;swimlaneBody=0;fillColor=none;collapsible=0;dropTarget=0;points=[[0,0.5],[1,0.5]];portConstraint=eastwest;top=0;left=0;right=0;bottom=0;" vertex="1" parent="5fHvvKTVJmoHPn84sj_M-104">
          <mxGeometry y="130" width="180" height="30" as="geometry" />
        </mxCell>
        <mxCell id="5fHvvKTVJmoHPn84sj_M-115" value="" style="shape=partialRectangle;connectable=0;fillColor=none;top=0;left=0;bottom=0;right=0;editable=1;overflow=hidden;whiteSpace=wrap;html=1;" vertex="1" parent="5fHvvKTVJmoHPn84sj_M-114">
          <mxGeometry width="30" height="30" as="geometry">
            <mxRectangle width="30" height="30" as="alternateBounds" />
          </mxGeometry>
        </mxCell>
        <mxCell id="5fHvvKTVJmoHPn84sj_M-116" value="casovy_plan_od" style="shape=partialRectangle;connectable=0;fillColor=none;top=0;left=0;bottom=0;right=0;align=left;spacingLeft=6;overflow=hidden;whiteSpace=wrap;html=1;" vertex="1" parent="5fHvvKTVJmoHPn84sj_M-114">
          <mxGeometry x="30" width="150" height="30" as="geometry">
            <mxRectangle width="150" height="30" as="alternateBounds" />
          </mxGeometry>
        </mxCell>
        <mxCell id="5fHvvKTVJmoHPn84sj_M-130" value="" style="shape=tableRow;horizontal=0;startSize=0;swimlaneHead=0;swimlaneBody=0;fillColor=none;collapsible=0;dropTarget=0;points=[[0,0.5],[1,0.5]];portConstraint=eastwest;top=0;left=0;right=0;bottom=0;" vertex="1" parent="5fHvvKTVJmoHPn84sj_M-104">
          <mxGeometry y="160" width="180" height="30" as="geometry" />
        </mxCell>
        <mxCell id="5fHvvKTVJmoHPn84sj_M-131" value="" style="shape=partialRectangle;connectable=0;fillColor=none;top=0;left=0;bottom=0;right=0;editable=1;overflow=hidden;whiteSpace=wrap;html=1;" vertex="1" parent="5fHvvKTVJmoHPn84sj_M-130">
          <mxGeometry width="30" height="30" as="geometry">
            <mxRectangle width="30" height="30" as="alternateBounds" />
          </mxGeometry>
        </mxCell>
        <mxCell id="5fHvvKTVJmoHPn84sj_M-132" value="casovy_plan_do" style="shape=partialRectangle;connectable=0;fillColor=none;top=0;left=0;bottom=0;right=0;align=left;spacingLeft=6;overflow=hidden;whiteSpace=wrap;html=1;" vertex="1" parent="5fHvvKTVJmoHPn84sj_M-130">
          <mxGeometry x="30" width="150" height="30" as="geometry">
            <mxRectangle width="150" height="30" as="alternateBounds" />
          </mxGeometry>
        </mxCell>
        <mxCell id="5fHvvKTVJmoHPn84sj_M-133" value="UcastZamestnancaNaProjekte&lt;div&gt;(bridge table)&lt;/div&gt;" style="shape=table;startSize=40;container=1;collapsible=1;childLayout=tableLayout;fixedRows=1;rowLines=0;fontStyle=1;align=center;resizeLast=1;html=1;" vertex="1" parent="1">
          <mxGeometry x="310" y="320" width="180" height="190" as="geometry" />
        </mxCell>
        <mxCell id="5fHvvKTVJmoHPn84sj_M-134" value="" style="shape=tableRow;horizontal=0;startSize=0;swimlaneHead=0;swimlaneBody=0;fillColor=none;collapsible=0;dropTarget=0;points=[[0,0.5],[1,0.5]];portConstraint=eastwest;top=0;left=0;right=0;bottom=1;" vertex="1" parent="5fHvvKTVJmoHPn84sj_M-133">
          <mxGeometry y="40" width="180" height="30" as="geometry" />
        </mxCell>
        <mxCell id="5fHvvKTVJmoHPn84sj_M-135" value="PK" style="shape=partialRectangle;connectable=0;fillColor=none;top=0;left=0;bottom=0;right=0;fontStyle=1;overflow=hidden;whiteSpace=wrap;html=1;" vertex="1" parent="5fHvvKTVJmoHPn84sj_M-134">
          <mxGeometry width="30" height="30" as="geometry">
            <mxRectangle width="30" height="30" as="alternateBounds" />
          </mxGeometry>
        </mxCell>
        <mxCell id="5fHvvKTVJmoHPn84sj_M-136" value="unique_id" style="shape=partialRectangle;connectable=0;fillColor=none;top=0;left=0;bottom=0;right=0;align=left;spacingLeft=6;fontStyle=5;overflow=hidden;whiteSpace=wrap;html=1;" vertex="1" parent="5fHvvKTVJmoHPn84sj_M-134">
          <mxGeometry x="30" width="150" height="30" as="geometry">
            <mxRectangle width="150" height="30" as="alternateBounds" />
          </mxGeometry>
        </mxCell>
        <mxCell id="5fHvvKTVJmoHPn84sj_M-137" value="" style="shape=tableRow;horizontal=0;startSize=0;swimlaneHead=0;swimlaneBody=0;fillColor=none;collapsible=0;dropTarget=0;points=[[0,0.5],[1,0.5]];portConstraint=eastwest;top=0;left=0;right=0;bottom=0;" vertex="1" parent="5fHvvKTVJmoHPn84sj_M-133">
          <mxGeometry y="70" width="180" height="30" as="geometry" />
        </mxCell>
        <mxCell id="5fHvvKTVJmoHPn84sj_M-138" value="FK" style="shape=partialRectangle;connectable=0;fillColor=none;top=0;left=0;bottom=0;right=0;editable=1;overflow=hidden;whiteSpace=wrap;html=1;" vertex="1" parent="5fHvvKTVJmoHPn84sj_M-137">
          <mxGeometry width="30" height="30" as="geometry">
            <mxRectangle width="30" height="30" as="alternateBounds" />
          </mxGeometry>
        </mxCell>
        <mxCell id="5fHvvKTVJmoHPn84sj_M-139" value="zamestnanec_id" style="shape=partialRectangle;connectable=0;fillColor=none;top=0;left=0;bottom=0;right=0;align=left;spacingLeft=6;overflow=hidden;whiteSpace=wrap;html=1;" vertex="1" parent="5fHvvKTVJmoHPn84sj_M-137">
          <mxGeometry x="30" width="150" height="30" as="geometry">
            <mxRectangle width="150" height="30" as="alternateBounds" />
          </mxGeometry>
        </mxCell>
        <mxCell id="5fHvvKTVJmoHPn84sj_M-140" value="" style="shape=tableRow;horizontal=0;startSize=0;swimlaneHead=0;swimlaneBody=0;fillColor=none;collapsible=0;dropTarget=0;points=[[0,0.5],[1,0.5]];portConstraint=eastwest;top=0;left=0;right=0;bottom=0;" vertex="1" parent="5fHvvKTVJmoHPn84sj_M-133">
          <mxGeometry y="100" width="180" height="30" as="geometry" />
        </mxCell>
        <mxCell id="5fHvvKTVJmoHPn84sj_M-141" value="FK" style="shape=partialRectangle;connectable=0;fillColor=none;top=0;left=0;bottom=0;right=0;editable=1;overflow=hidden;whiteSpace=wrap;html=1;" vertex="1" parent="5fHvvKTVJmoHPn84sj_M-140">
          <mxGeometry width="30" height="30" as="geometry">
            <mxRectangle width="30" height="30" as="alternateBounds" />
          </mxGeometry>
        </mxCell>
        <mxCell id="5fHvvKTVJmoHPn84sj_M-142" value="projekt_id" style="shape=partialRectangle;connectable=0;fillColor=none;top=0;left=0;bottom=0;right=0;align=left;spacingLeft=6;overflow=hidden;whiteSpace=wrap;html=1;" vertex="1" parent="5fHvvKTVJmoHPn84sj_M-140">
          <mxGeometry x="30" width="150" height="30" as="geometry">
            <mxRectangle width="150" height="30" as="alternateBounds" />
          </mxGeometry>
        </mxCell>
        <mxCell id="5fHvvKTVJmoHPn84sj_M-143" value="" style="shape=tableRow;horizontal=0;startSize=0;swimlaneHead=0;swimlaneBody=0;fillColor=none;collapsible=0;dropTarget=0;points=[[0,0.5],[1,0.5]];portConstraint=eastwest;top=0;left=0;right=0;bottom=0;" vertex="1" parent="5fHvvKTVJmoHPn84sj_M-133">
          <mxGeometry y="130" width="180" height="30" as="geometry" />
        </mxCell>
        <mxCell id="5fHvvKTVJmoHPn84sj_M-144" value="" style="shape=partialRectangle;connectable=0;fillColor=none;top=0;left=0;bottom=0;right=0;editable=1;overflow=hidden;whiteSpace=wrap;html=1;" vertex="1" parent="5fHvvKTVJmoHPn84sj_M-143">
          <mxGeometry width="30" height="30" as="geometry">
            <mxRectangle width="30" height="30" as="alternateBounds" />
          </mxGeometry>
        </mxCell>
        <mxCell id="5fHvvKTVJmoHPn84sj_M-145" value="rola_v_projekte" style="shape=partialRectangle;connectable=0;fillColor=none;top=0;left=0;bottom=0;right=0;align=left;spacingLeft=6;overflow=hidden;whiteSpace=wrap;html=1;" vertex="1" parent="5fHvvKTVJmoHPn84sj_M-143">
          <mxGeometry x="30" width="150" height="30" as="geometry">
            <mxRectangle width="150" height="30" as="alternateBounds" />
          </mxGeometry>
        </mxCell>
        <mxCell id="5fHvvKTVJmoHPn84sj_M-146" value="" style="shape=tableRow;horizontal=0;startSize=0;swimlaneHead=0;swimlaneBody=0;fillColor=none;collapsible=0;dropTarget=0;points=[[0,0.5],[1,0.5]];portConstraint=eastwest;top=0;left=0;right=0;bottom=0;" vertex="1" parent="5fHvvKTVJmoHPn84sj_M-133">
          <mxGeometry y="160" width="180" height="30" as="geometry" />
        </mxCell>
        <mxCell id="5fHvvKTVJmoHPn84sj_M-147" value="" style="shape=partialRectangle;connectable=0;fillColor=none;top=0;left=0;bottom=0;right=0;editable=1;overflow=hidden;whiteSpace=wrap;html=1;" vertex="1" parent="5fHvvKTVJmoHPn84sj_M-146">
          <mxGeometry width="30" height="30" as="geometry">
            <mxRectangle width="30" height="30" as="alternateBounds" />
          </mxGeometry>
        </mxCell>
        <mxCell id="5fHvvKTVJmoHPn84sj_M-148" value="termin_dokoncenia_ulohy" style="shape=partialRectangle;connectable=0;fillColor=none;top=0;left=0;bottom=0;right=0;align=left;spacingLeft=6;overflow=hidden;whiteSpace=wrap;html=1;" vertex="1" parent="5fHvvKTVJmoHPn84sj_M-146">
          <mxGeometry x="30" width="150" height="30" as="geometry">
            <mxRectangle width="150" height="30" as="alternateBounds" />
          </mxGeometry>
        </mxCell>
        <mxCell id="5fHvvKTVJmoHPn84sj_M-191" value="ZaznamMaterialu" style="shape=table;startSize=30;container=1;collapsible=1;childLayout=tableLayout;fixedRows=1;rowLines=0;fontStyle=1;align=center;resizeLast=1;html=1;" vertex="1" parent="1">
          <mxGeometry x="1010" y="240" width="180" height="180" as="geometry" />
        </mxCell>
        <mxCell id="5fHvvKTVJmoHPn84sj_M-192" value="" style="shape=tableRow;horizontal=0;startSize=0;swimlaneHead=0;swimlaneBody=0;fillColor=none;collapsible=0;dropTarget=0;points=[[0,0.5],[1,0.5]];portConstraint=eastwest;top=0;left=0;right=0;bottom=1;" vertex="1" parent="5fHvvKTVJmoHPn84sj_M-191">
          <mxGeometry y="30" width="180" height="30" as="geometry" />
        </mxCell>
        <mxCell id="5fHvvKTVJmoHPn84sj_M-193" value="PK" style="shape=partialRectangle;connectable=0;fillColor=none;top=0;left=0;bottom=0;right=0;fontStyle=1;overflow=hidden;whiteSpace=wrap;html=1;" vertex="1" parent="5fHvvKTVJmoHPn84sj_M-192">
          <mxGeometry width="30" height="30" as="geometry">
            <mxRectangle width="30" height="30" as="alternateBounds" />
          </mxGeometry>
        </mxCell>
        <mxCell id="5fHvvKTVJmoHPn84sj_M-194" value="zaznam_id" style="shape=partialRectangle;connectable=0;fillColor=none;top=0;left=0;bottom=0;right=0;align=left;spacingLeft=6;fontStyle=5;overflow=hidden;whiteSpace=wrap;html=1;" vertex="1" parent="5fHvvKTVJmoHPn84sj_M-192">
          <mxGeometry x="30" width="150" height="30" as="geometry">
            <mxRectangle width="150" height="30" as="alternateBounds" />
          </mxGeometry>
        </mxCell>
        <mxCell id="5fHvvKTVJmoHPn84sj_M-195" value="" style="shape=tableRow;horizontal=0;startSize=0;swimlaneHead=0;swimlaneBody=0;fillColor=none;collapsible=0;dropTarget=0;points=[[0,0.5],[1,0.5]];portConstraint=eastwest;top=0;left=0;right=0;bottom=0;" vertex="1" parent="5fHvvKTVJmoHPn84sj_M-191">
          <mxGeometry y="60" width="180" height="30" as="geometry" />
        </mxCell>
        <mxCell id="5fHvvKTVJmoHPn84sj_M-196" value="FK" style="shape=partialRectangle;connectable=0;fillColor=none;top=0;left=0;bottom=0;right=0;editable=1;overflow=hidden;whiteSpace=wrap;html=1;" vertex="1" parent="5fHvvKTVJmoHPn84sj_M-195">
          <mxGeometry width="30" height="30" as="geometry">
            <mxRectangle width="30" height="30" as="alternateBounds" />
          </mxGeometry>
        </mxCell>
        <mxCell id="5fHvvKTVJmoHPn84sj_M-197" value="material_id" style="shape=partialRectangle;connectable=0;fillColor=none;top=0;left=0;bottom=0;right=0;align=left;spacingLeft=6;overflow=hidden;whiteSpace=wrap;html=1;" vertex="1" parent="5fHvvKTVJmoHPn84sj_M-195">
          <mxGeometry x="30" width="150" height="30" as="geometry">
            <mxRectangle width="150" height="30" as="alternateBounds" />
          </mxGeometry>
        </mxCell>
        <mxCell id="5fHvvKTVJmoHPn84sj_M-198" value="" style="shape=tableRow;horizontal=0;startSize=0;swimlaneHead=0;swimlaneBody=0;fillColor=none;collapsible=0;dropTarget=0;points=[[0,0.5],[1,0.5]];portConstraint=eastwest;top=0;left=0;right=0;bottom=0;" vertex="1" parent="5fHvvKTVJmoHPn84sj_M-191">
          <mxGeometry y="90" width="180" height="30" as="geometry" />
        </mxCell>
        <mxCell id="5fHvvKTVJmoHPn84sj_M-199" value="FK" style="shape=partialRectangle;connectable=0;fillColor=none;top=0;left=0;bottom=0;right=0;editable=1;overflow=hidden;whiteSpace=wrap;html=1;" vertex="1" parent="5fHvvKTVJmoHPn84sj_M-198">
          <mxGeometry width="30" height="30" as="geometry">
            <mxRectangle width="30" height="30" as="alternateBounds" />
          </mxGeometry>
        </mxCell>
        <mxCell id="5fHvvKTVJmoHPn84sj_M-200" value="projekt_id" style="shape=partialRectangle;connectable=0;fillColor=none;top=0;left=0;bottom=0;right=0;align=left;spacingLeft=6;overflow=hidden;whiteSpace=wrap;html=1;" vertex="1" parent="5fHvvKTVJmoHPn84sj_M-198">
          <mxGeometry x="30" width="150" height="30" as="geometry">
            <mxRectangle width="150" height="30" as="alternateBounds" />
          </mxGeometry>
        </mxCell>
        <mxCell id="5fHvvKTVJmoHPn84sj_M-201" value="" style="shape=tableRow;horizontal=0;startSize=0;swimlaneHead=0;swimlaneBody=0;fillColor=none;collapsible=0;dropTarget=0;points=[[0,0.5],[1,0.5]];portConstraint=eastwest;top=0;left=0;right=0;bottom=0;" vertex="1" parent="5fHvvKTVJmoHPn84sj_M-191">
          <mxGeometry y="120" width="180" height="30" as="geometry" />
        </mxCell>
        <mxCell id="5fHvvKTVJmoHPn84sj_M-202" value="" style="shape=partialRectangle;connectable=0;fillColor=none;top=0;left=0;bottom=0;right=0;editable=1;overflow=hidden;whiteSpace=wrap;html=1;" vertex="1" parent="5fHvvKTVJmoHPn84sj_M-201">
          <mxGeometry width="30" height="30" as="geometry">
            <mxRectangle width="30" height="30" as="alternateBounds" />
          </mxGeometry>
        </mxCell>
        <mxCell id="5fHvvKTVJmoHPn84sj_M-203" value="mnozstvo_pouzite" style="shape=partialRectangle;connectable=0;fillColor=none;top=0;left=0;bottom=0;right=0;align=left;spacingLeft=6;overflow=hidden;whiteSpace=wrap;html=1;" vertex="1" parent="5fHvvKTVJmoHPn84sj_M-201">
          <mxGeometry x="30" width="150" height="30" as="geometry">
            <mxRectangle width="150" height="30" as="alternateBounds" />
          </mxGeometry>
        </mxCell>
        <mxCell id="5fHvvKTVJmoHPn84sj_M-204" value="" style="shape=tableRow;horizontal=0;startSize=0;swimlaneHead=0;swimlaneBody=0;fillColor=none;collapsible=0;dropTarget=0;points=[[0,0.5],[1,0.5]];portConstraint=eastwest;top=0;left=0;right=0;bottom=0;" vertex="1" parent="5fHvvKTVJmoHPn84sj_M-191">
          <mxGeometry y="150" width="180" height="30" as="geometry" />
        </mxCell>
        <mxCell id="5fHvvKTVJmoHPn84sj_M-205" value="" style="shape=partialRectangle;connectable=0;fillColor=none;top=0;left=0;bottom=0;right=0;editable=1;overflow=hidden;whiteSpace=wrap;html=1;" vertex="1" parent="5fHvvKTVJmoHPn84sj_M-204">
          <mxGeometry width="30" height="30" as="geometry">
            <mxRectangle width="30" height="30" as="alternateBounds" />
          </mxGeometry>
        </mxCell>
        <mxCell id="5fHvvKTVJmoHPn84sj_M-206" value="datum" style="shape=partialRectangle;connectable=0;fillColor=none;top=0;left=0;bottom=0;right=0;align=left;spacingLeft=6;overflow=hidden;whiteSpace=wrap;html=1;" vertex="1" parent="5fHvvKTVJmoHPn84sj_M-204">
          <mxGeometry x="30" width="150" height="30" as="geometry">
            <mxRectangle width="150" height="30" as="alternateBounds" />
          </mxGeometry>
        </mxCell>
        <mxCell id="5fHvvKTVJmoHPn84sj_M-226" value="ZaznamNaradia" style="shape=table;startSize=30;container=1;collapsible=1;childLayout=tableLayout;fixedRows=1;rowLines=0;fontStyle=1;align=center;resizeLast=1;html=1;" vertex="1" parent="1">
          <mxGeometry x="920" y="660" width="180" height="210" as="geometry" />
        </mxCell>
        <mxCell id="5fHvvKTVJmoHPn84sj_M-227" value="" style="shape=tableRow;horizontal=0;startSize=0;swimlaneHead=0;swimlaneBody=0;fillColor=none;collapsible=0;dropTarget=0;points=[[0,0.5],[1,0.5]];portConstraint=eastwest;top=0;left=0;right=0;bottom=1;" vertex="1" parent="5fHvvKTVJmoHPn84sj_M-226">
          <mxGeometry y="30" width="180" height="30" as="geometry" />
        </mxCell>
        <mxCell id="5fHvvKTVJmoHPn84sj_M-228" value="PK" style="shape=partialRectangle;connectable=0;fillColor=none;top=0;left=0;bottom=0;right=0;fontStyle=1;overflow=hidden;whiteSpace=wrap;html=1;" vertex="1" parent="5fHvvKTVJmoHPn84sj_M-227">
          <mxGeometry width="30" height="30" as="geometry">
            <mxRectangle width="30" height="30" as="alternateBounds" />
          </mxGeometry>
        </mxCell>
        <mxCell id="5fHvvKTVJmoHPn84sj_M-229" value="naradie_zaznam_id" style="shape=partialRectangle;connectable=0;fillColor=none;top=0;left=0;bottom=0;right=0;align=left;spacingLeft=6;fontStyle=5;overflow=hidden;whiteSpace=wrap;html=1;" vertex="1" parent="5fHvvKTVJmoHPn84sj_M-227">
          <mxGeometry x="30" width="150" height="30" as="geometry">
            <mxRectangle width="150" height="30" as="alternateBounds" />
          </mxGeometry>
        </mxCell>
        <mxCell id="5fHvvKTVJmoHPn84sj_M-230" value="" style="shape=tableRow;horizontal=0;startSize=0;swimlaneHead=0;swimlaneBody=0;fillColor=none;collapsible=0;dropTarget=0;points=[[0,0.5],[1,0.5]];portConstraint=eastwest;top=0;left=0;right=0;bottom=0;" vertex="1" parent="5fHvvKTVJmoHPn84sj_M-226">
          <mxGeometry y="60" width="180" height="30" as="geometry" />
        </mxCell>
        <mxCell id="5fHvvKTVJmoHPn84sj_M-231" value="FK" style="shape=partialRectangle;connectable=0;fillColor=none;top=0;left=0;bottom=0;right=0;editable=1;overflow=hidden;whiteSpace=wrap;html=1;" vertex="1" parent="5fHvvKTVJmoHPn84sj_M-230">
          <mxGeometry width="30" height="30" as="geometry">
            <mxRectangle width="30" height="30" as="alternateBounds" />
          </mxGeometry>
        </mxCell>
        <mxCell id="5fHvvKTVJmoHPn84sj_M-232" value="naradie_id" style="shape=partialRectangle;connectable=0;fillColor=none;top=0;left=0;bottom=0;right=0;align=left;spacingLeft=6;overflow=hidden;whiteSpace=wrap;html=1;" vertex="1" parent="5fHvvKTVJmoHPn84sj_M-230">
          <mxGeometry x="30" width="150" height="30" as="geometry">
            <mxRectangle width="150" height="30" as="alternateBounds" />
          </mxGeometry>
        </mxCell>
        <mxCell id="5fHvvKTVJmoHPn84sj_M-233" value="" style="shape=tableRow;horizontal=0;startSize=0;swimlaneHead=0;swimlaneBody=0;fillColor=none;collapsible=0;dropTarget=0;points=[[0,0.5],[1,0.5]];portConstraint=eastwest;top=0;left=0;right=0;bottom=0;" vertex="1" parent="5fHvvKTVJmoHPn84sj_M-226">
          <mxGeometry y="90" width="180" height="30" as="geometry" />
        </mxCell>
        <mxCell id="5fHvvKTVJmoHPn84sj_M-234" value="FK" style="shape=partialRectangle;connectable=0;fillColor=none;top=0;left=0;bottom=0;right=0;editable=1;overflow=hidden;whiteSpace=wrap;html=1;" vertex="1" parent="5fHvvKTVJmoHPn84sj_M-233">
          <mxGeometry width="30" height="30" as="geometry">
            <mxRectangle width="30" height="30" as="alternateBounds" />
          </mxGeometry>
        </mxCell>
        <mxCell id="5fHvvKTVJmoHPn84sj_M-235" value="zamestnanec_id" style="shape=partialRectangle;connectable=0;fillColor=none;top=0;left=0;bottom=0;right=0;align=left;spacingLeft=6;overflow=hidden;whiteSpace=wrap;html=1;" vertex="1" parent="5fHvvKTVJmoHPn84sj_M-233">
          <mxGeometry x="30" width="150" height="30" as="geometry">
            <mxRectangle width="150" height="30" as="alternateBounds" />
          </mxGeometry>
        </mxCell>
        <mxCell id="5fHvvKTVJmoHPn84sj_M-236" value="" style="shape=tableRow;horizontal=0;startSize=0;swimlaneHead=0;swimlaneBody=0;fillColor=none;collapsible=0;dropTarget=0;points=[[0,0.5],[1,0.5]];portConstraint=eastwest;top=0;left=0;right=0;bottom=0;" vertex="1" parent="5fHvvKTVJmoHPn84sj_M-226">
          <mxGeometry y="120" width="180" height="30" as="geometry" />
        </mxCell>
        <mxCell id="5fHvvKTVJmoHPn84sj_M-237" value="FK" style="shape=partialRectangle;connectable=0;fillColor=none;top=0;left=0;bottom=0;right=0;editable=1;overflow=hidden;whiteSpace=wrap;html=1;" vertex="1" parent="5fHvvKTVJmoHPn84sj_M-236">
          <mxGeometry width="30" height="30" as="geometry">
            <mxRectangle width="30" height="30" as="alternateBounds" />
          </mxGeometry>
        </mxCell>
        <mxCell id="5fHvvKTVJmoHPn84sj_M-238" value="projekt_id" style="shape=partialRectangle;connectable=0;fillColor=none;top=0;left=0;bottom=0;right=0;align=left;spacingLeft=6;overflow=hidden;whiteSpace=wrap;html=1;" vertex="1" parent="5fHvvKTVJmoHPn84sj_M-236">
          <mxGeometry x="30" width="150" height="30" as="geometry">
            <mxRectangle width="150" height="30" as="alternateBounds" />
          </mxGeometry>
        </mxCell>
        <mxCell id="5fHvvKTVJmoHPn84sj_M-239" value="" style="shape=tableRow;horizontal=0;startSize=0;swimlaneHead=0;swimlaneBody=0;fillColor=none;collapsible=0;dropTarget=0;points=[[0,0.5],[1,0.5]];portConstraint=eastwest;top=0;left=0;right=0;bottom=0;" vertex="1" parent="5fHvvKTVJmoHPn84sj_M-226">
          <mxGeometry y="150" width="180" height="30" as="geometry" />
        </mxCell>
        <mxCell id="5fHvvKTVJmoHPn84sj_M-240" value="" style="shape=partialRectangle;connectable=0;fillColor=none;top=0;left=0;bottom=0;right=0;editable=1;overflow=hidden;whiteSpace=wrap;html=1;" vertex="1" parent="5fHvvKTVJmoHPn84sj_M-239">
          <mxGeometry width="30" height="30" as="geometry">
            <mxRectangle width="30" height="30" as="alternateBounds" />
          </mxGeometry>
        </mxCell>
        <mxCell id="5fHvvKTVJmoHPn84sj_M-241" value="datum_pozicania" style="shape=partialRectangle;connectable=0;fillColor=none;top=0;left=0;bottom=0;right=0;align=left;spacingLeft=6;overflow=hidden;whiteSpace=wrap;html=1;" vertex="1" parent="5fHvvKTVJmoHPn84sj_M-239">
          <mxGeometry x="30" width="150" height="30" as="geometry">
            <mxRectangle width="150" height="30" as="alternateBounds" />
          </mxGeometry>
        </mxCell>
        <mxCell id="5fHvvKTVJmoHPn84sj_M-242" value="" style="shape=tableRow;horizontal=0;startSize=0;swimlaneHead=0;swimlaneBody=0;fillColor=none;collapsible=0;dropTarget=0;points=[[0,0.5],[1,0.5]];portConstraint=eastwest;top=0;left=0;right=0;bottom=0;" vertex="1" parent="5fHvvKTVJmoHPn84sj_M-226">
          <mxGeometry y="180" width="180" height="30" as="geometry" />
        </mxCell>
        <mxCell id="5fHvvKTVJmoHPn84sj_M-243" value="" style="shape=partialRectangle;connectable=0;fillColor=none;top=0;left=0;bottom=0;right=0;editable=1;overflow=hidden;whiteSpace=wrap;html=1;" vertex="1" parent="5fHvvKTVJmoHPn84sj_M-242">
          <mxGeometry width="30" height="30" as="geometry">
            <mxRectangle width="30" height="30" as="alternateBounds" />
          </mxGeometry>
        </mxCell>
        <mxCell id="5fHvvKTVJmoHPn84sj_M-244" value="datum_vratenia" style="shape=partialRectangle;connectable=0;fillColor=none;top=0;left=0;bottom=0;right=0;align=left;spacingLeft=6;overflow=hidden;whiteSpace=wrap;html=1;" vertex="1" parent="5fHvvKTVJmoHPn84sj_M-242">
          <mxGeometry x="30" width="150" height="30" as="geometry">
            <mxRectangle width="150" height="30" as="alternateBounds" />
          </mxGeometry>
        </mxCell>
        <mxCell id="5fHvvKTVJmoHPn84sj_M-261" value="ZaznamVozidla" style="shape=table;startSize=30;container=1;collapsible=1;childLayout=tableLayout;fixedRows=1;rowLines=0;fontStyle=1;align=center;resizeLast=1;html=1;" vertex="1" parent="1">
          <mxGeometry x="610" y="740" width="180" height="240" as="geometry" />
        </mxCell>
        <mxCell id="5fHvvKTVJmoHPn84sj_M-262" value="" style="shape=tableRow;horizontal=0;startSize=0;swimlaneHead=0;swimlaneBody=0;fillColor=none;collapsible=0;dropTarget=0;points=[[0,0.5],[1,0.5]];portConstraint=eastwest;top=0;left=0;right=0;bottom=1;" vertex="1" parent="5fHvvKTVJmoHPn84sj_M-261">
          <mxGeometry y="30" width="180" height="30" as="geometry" />
        </mxCell>
        <mxCell id="5fHvvKTVJmoHPn84sj_M-263" value="PK" style="shape=partialRectangle;connectable=0;fillColor=none;top=0;left=0;bottom=0;right=0;fontStyle=1;overflow=hidden;whiteSpace=wrap;html=1;" vertex="1" parent="5fHvvKTVJmoHPn84sj_M-262">
          <mxGeometry width="30" height="30" as="geometry">
            <mxRectangle width="30" height="30" as="alternateBounds" />
          </mxGeometry>
        </mxCell>
        <mxCell id="5fHvvKTVJmoHPn84sj_M-264" value="vozidlo_zaznam_id" style="shape=partialRectangle;connectable=0;fillColor=none;top=0;left=0;bottom=0;right=0;align=left;spacingLeft=6;fontStyle=5;overflow=hidden;whiteSpace=wrap;html=1;" vertex="1" parent="5fHvvKTVJmoHPn84sj_M-262">
          <mxGeometry x="30" width="150" height="30" as="geometry">
            <mxRectangle width="150" height="30" as="alternateBounds" />
          </mxGeometry>
        </mxCell>
        <mxCell id="5fHvvKTVJmoHPn84sj_M-265" value="" style="shape=tableRow;horizontal=0;startSize=0;swimlaneHead=0;swimlaneBody=0;fillColor=none;collapsible=0;dropTarget=0;points=[[0,0.5],[1,0.5]];portConstraint=eastwest;top=0;left=0;right=0;bottom=0;" vertex="1" parent="5fHvvKTVJmoHPn84sj_M-261">
          <mxGeometry y="60" width="180" height="30" as="geometry" />
        </mxCell>
        <mxCell id="5fHvvKTVJmoHPn84sj_M-266" value="FK" style="shape=partialRectangle;connectable=0;fillColor=none;top=0;left=0;bottom=0;right=0;editable=1;overflow=hidden;whiteSpace=wrap;html=1;" vertex="1" parent="5fHvvKTVJmoHPn84sj_M-265">
          <mxGeometry width="30" height="30" as="geometry">
            <mxRectangle width="30" height="30" as="alternateBounds" />
          </mxGeometry>
        </mxCell>
        <mxCell id="5fHvvKTVJmoHPn84sj_M-267" value="vozidlo_id" style="shape=partialRectangle;connectable=0;fillColor=none;top=0;left=0;bottom=0;right=0;align=left;spacingLeft=6;overflow=hidden;whiteSpace=wrap;html=1;" vertex="1" parent="5fHvvKTVJmoHPn84sj_M-265">
          <mxGeometry x="30" width="150" height="30" as="geometry">
            <mxRectangle width="150" height="30" as="alternateBounds" />
          </mxGeometry>
        </mxCell>
        <mxCell id="5fHvvKTVJmoHPn84sj_M-268" value="" style="shape=tableRow;horizontal=0;startSize=0;swimlaneHead=0;swimlaneBody=0;fillColor=none;collapsible=0;dropTarget=0;points=[[0,0.5],[1,0.5]];portConstraint=eastwest;top=0;left=0;right=0;bottom=0;" vertex="1" parent="5fHvvKTVJmoHPn84sj_M-261">
          <mxGeometry y="90" width="180" height="30" as="geometry" />
        </mxCell>
        <mxCell id="5fHvvKTVJmoHPn84sj_M-269" value="FK" style="shape=partialRectangle;connectable=0;fillColor=none;top=0;left=0;bottom=0;right=0;editable=1;overflow=hidden;whiteSpace=wrap;html=1;" vertex="1" parent="5fHvvKTVJmoHPn84sj_M-268">
          <mxGeometry width="30" height="30" as="geometry">
            <mxRectangle width="30" height="30" as="alternateBounds" />
          </mxGeometry>
        </mxCell>
        <mxCell id="5fHvvKTVJmoHPn84sj_M-270" value="zamestnanec_id" style="shape=partialRectangle;connectable=0;fillColor=none;top=0;left=0;bottom=0;right=0;align=left;spacingLeft=6;overflow=hidden;whiteSpace=wrap;html=1;" vertex="1" parent="5fHvvKTVJmoHPn84sj_M-268">
          <mxGeometry x="30" width="150" height="30" as="geometry">
            <mxRectangle width="150" height="30" as="alternateBounds" />
          </mxGeometry>
        </mxCell>
        <mxCell id="5fHvvKTVJmoHPn84sj_M-271" value="" style="shape=tableRow;horizontal=0;startSize=0;swimlaneHead=0;swimlaneBody=0;fillColor=none;collapsible=0;dropTarget=0;points=[[0,0.5],[1,0.5]];portConstraint=eastwest;top=0;left=0;right=0;bottom=0;" vertex="1" parent="5fHvvKTVJmoHPn84sj_M-261">
          <mxGeometry y="120" width="180" height="30" as="geometry" />
        </mxCell>
        <mxCell id="5fHvvKTVJmoHPn84sj_M-272" value="FK" style="shape=partialRectangle;connectable=0;fillColor=none;top=0;left=0;bottom=0;right=0;editable=1;overflow=hidden;whiteSpace=wrap;html=1;" vertex="1" parent="5fHvvKTVJmoHPn84sj_M-271">
          <mxGeometry width="30" height="30" as="geometry">
            <mxRectangle width="30" height="30" as="alternateBounds" />
          </mxGeometry>
        </mxCell>
        <mxCell id="5fHvvKTVJmoHPn84sj_M-273" value="projekt_id" style="shape=partialRectangle;connectable=0;fillColor=none;top=0;left=0;bottom=0;right=0;align=left;spacingLeft=6;overflow=hidden;whiteSpace=wrap;html=1;" vertex="1" parent="5fHvvKTVJmoHPn84sj_M-271">
          <mxGeometry x="30" width="150" height="30" as="geometry">
            <mxRectangle width="150" height="30" as="alternateBounds" />
          </mxGeometry>
        </mxCell>
        <mxCell id="5fHvvKTVJmoHPn84sj_M-274" value="" style="shape=tableRow;horizontal=0;startSize=0;swimlaneHead=0;swimlaneBody=0;fillColor=none;collapsible=0;dropTarget=0;points=[[0,0.5],[1,0.5]];portConstraint=eastwest;top=0;left=0;right=0;bottom=0;" vertex="1" parent="5fHvvKTVJmoHPn84sj_M-261">
          <mxGeometry y="150" width="180" height="30" as="geometry" />
        </mxCell>
        <mxCell id="5fHvvKTVJmoHPn84sj_M-275" value="" style="shape=partialRectangle;connectable=0;fillColor=none;top=0;left=0;bottom=0;right=0;editable=1;overflow=hidden;whiteSpace=wrap;html=1;" vertex="1" parent="5fHvvKTVJmoHPn84sj_M-274">
          <mxGeometry width="30" height="30" as="geometry">
            <mxRectangle width="30" height="30" as="alternateBounds" />
          </mxGeometry>
        </mxCell>
        <mxCell id="5fHvvKTVJmoHPn84sj_M-276" value="datum_pozicania" style="shape=partialRectangle;connectable=0;fillColor=none;top=0;left=0;bottom=0;right=0;align=left;spacingLeft=6;overflow=hidden;whiteSpace=wrap;html=1;" vertex="1" parent="5fHvvKTVJmoHPn84sj_M-274">
          <mxGeometry x="30" width="150" height="30" as="geometry">
            <mxRectangle width="150" height="30" as="alternateBounds" />
          </mxGeometry>
        </mxCell>
        <mxCell id="5fHvvKTVJmoHPn84sj_M-277" value="" style="shape=tableRow;horizontal=0;startSize=0;swimlaneHead=0;swimlaneBody=0;fillColor=none;collapsible=0;dropTarget=0;points=[[0,0.5],[1,0.5]];portConstraint=eastwest;top=0;left=0;right=0;bottom=0;" vertex="1" parent="5fHvvKTVJmoHPn84sj_M-261">
          <mxGeometry y="180" width="180" height="30" as="geometry" />
        </mxCell>
        <mxCell id="5fHvvKTVJmoHPn84sj_M-278" value="" style="shape=partialRectangle;connectable=0;fillColor=none;top=0;left=0;bottom=0;right=0;editable=1;overflow=hidden;whiteSpace=wrap;html=1;" vertex="1" parent="5fHvvKTVJmoHPn84sj_M-277">
          <mxGeometry width="30" height="30" as="geometry">
            <mxRectangle width="30" height="30" as="alternateBounds" />
          </mxGeometry>
        </mxCell>
        <mxCell id="5fHvvKTVJmoHPn84sj_M-279" value="datum_vratenia" style="shape=partialRectangle;connectable=0;fillColor=none;top=0;left=0;bottom=0;right=0;align=left;spacingLeft=6;overflow=hidden;whiteSpace=wrap;html=1;" vertex="1" parent="5fHvvKTVJmoHPn84sj_M-277">
          <mxGeometry x="30" width="150" height="30" as="geometry">
            <mxRectangle width="150" height="30" as="alternateBounds" />
          </mxGeometry>
        </mxCell>
        <mxCell id="5fHvvKTVJmoHPn84sj_M-280" value="" style="shape=tableRow;horizontal=0;startSize=0;swimlaneHead=0;swimlaneBody=0;fillColor=none;collapsible=0;dropTarget=0;points=[[0,0.5],[1,0.5]];portConstraint=eastwest;top=0;left=0;right=0;bottom=0;" vertex="1" parent="5fHvvKTVJmoHPn84sj_M-261">
          <mxGeometry y="210" width="180" height="30" as="geometry" />
        </mxCell>
        <mxCell id="5fHvvKTVJmoHPn84sj_M-281" value="" style="shape=partialRectangle;connectable=0;fillColor=none;top=0;left=0;bottom=0;right=0;editable=1;overflow=hidden;whiteSpace=wrap;html=1;" vertex="1" parent="5fHvvKTVJmoHPn84sj_M-280">
          <mxGeometry width="30" height="30" as="geometry">
            <mxRectangle width="30" height="30" as="alternateBounds" />
          </mxGeometry>
        </mxCell>
        <mxCell id="5fHvvKTVJmoHPn84sj_M-282" value="najazdene_km" style="shape=partialRectangle;connectable=0;fillColor=none;top=0;left=0;bottom=0;right=0;align=left;spacingLeft=6;overflow=hidden;whiteSpace=wrap;html=1;" vertex="1" parent="5fHvvKTVJmoHPn84sj_M-280">
          <mxGeometry x="30" width="150" height="30" as="geometry">
            <mxRectangle width="150" height="30" as="alternateBounds" />
          </mxGeometry>
        </mxCell>
        <mxCell id="5fHvvKTVJmoHPn84sj_M-207" value="Naradie" style="shape=table;startSize=30;container=1;collapsible=1;childLayout=tableLayout;fixedRows=1;rowLines=0;fontStyle=1;align=center;resizeLast=1;html=1;" vertex="1" parent="1">
          <mxGeometry x="1140" y="460" width="180" height="210" as="geometry" />
        </mxCell>
        <mxCell id="5fHvvKTVJmoHPn84sj_M-208" value="" style="shape=tableRow;horizontal=0;startSize=0;swimlaneHead=0;swimlaneBody=0;fillColor=none;collapsible=0;dropTarget=0;points=[[0,0.5],[1,0.5]];portConstraint=eastwest;top=0;left=0;right=0;bottom=1;" vertex="1" parent="5fHvvKTVJmoHPn84sj_M-207">
          <mxGeometry y="30" width="180" height="30" as="geometry" />
        </mxCell>
        <mxCell id="5fHvvKTVJmoHPn84sj_M-209" value="PK" style="shape=partialRectangle;connectable=0;fillColor=none;top=0;left=0;bottom=0;right=0;fontStyle=1;overflow=hidden;whiteSpace=wrap;html=1;" vertex="1" parent="5fHvvKTVJmoHPn84sj_M-208">
          <mxGeometry width="30" height="30" as="geometry">
            <mxRectangle width="30" height="30" as="alternateBounds" />
          </mxGeometry>
        </mxCell>
        <mxCell id="5fHvvKTVJmoHPn84sj_M-210" value="naradie_id" style="shape=partialRectangle;connectable=0;fillColor=none;top=0;left=0;bottom=0;right=0;align=left;spacingLeft=6;fontStyle=5;overflow=hidden;whiteSpace=wrap;html=1;" vertex="1" parent="5fHvvKTVJmoHPn84sj_M-208">
          <mxGeometry x="30" width="150" height="30" as="geometry">
            <mxRectangle width="150" height="30" as="alternateBounds" />
          </mxGeometry>
        </mxCell>
        <mxCell id="5fHvvKTVJmoHPn84sj_M-211" value="" style="shape=tableRow;horizontal=0;startSize=0;swimlaneHead=0;swimlaneBody=0;fillColor=none;collapsible=0;dropTarget=0;points=[[0,0.5],[1,0.5]];portConstraint=eastwest;top=0;left=0;right=0;bottom=0;" vertex="1" parent="5fHvvKTVJmoHPn84sj_M-207">
          <mxGeometry y="60" width="180" height="30" as="geometry" />
        </mxCell>
        <mxCell id="5fHvvKTVJmoHPn84sj_M-212" value="FK" style="shape=partialRectangle;connectable=0;fillColor=none;top=0;left=0;bottom=0;right=0;editable=1;overflow=hidden;whiteSpace=wrap;html=1;" vertex="1" parent="5fHvvKTVJmoHPn84sj_M-211">
          <mxGeometry width="30" height="30" as="geometry">
            <mxRectangle width="30" height="30" as="alternateBounds" />
          </mxGeometry>
        </mxCell>
        <mxCell id="5fHvvKTVJmoHPn84sj_M-213" value="sklad_id" style="shape=partialRectangle;connectable=0;fillColor=none;top=0;left=0;bottom=0;right=0;align=left;spacingLeft=6;overflow=hidden;whiteSpace=wrap;html=1;" vertex="1" parent="5fHvvKTVJmoHPn84sj_M-211">
          <mxGeometry x="30" width="150" height="30" as="geometry">
            <mxRectangle width="150" height="30" as="alternateBounds" />
          </mxGeometry>
        </mxCell>
        <mxCell id="5fHvvKTVJmoHPn84sj_M-214" value="" style="shape=tableRow;horizontal=0;startSize=0;swimlaneHead=0;swimlaneBody=0;fillColor=none;collapsible=0;dropTarget=0;points=[[0,0.5],[1,0.5]];portConstraint=eastwest;top=0;left=0;right=0;bottom=0;" vertex="1" parent="5fHvvKTVJmoHPn84sj_M-207">
          <mxGeometry y="90" width="180" height="30" as="geometry" />
        </mxCell>
        <mxCell id="5fHvvKTVJmoHPn84sj_M-215" value="" style="shape=partialRectangle;connectable=0;fillColor=none;top=0;left=0;bottom=0;right=0;editable=1;overflow=hidden;whiteSpace=wrap;html=1;" vertex="1" parent="5fHvvKTVJmoHPn84sj_M-214">
          <mxGeometry width="30" height="30" as="geometry">
            <mxRectangle width="30" height="30" as="alternateBounds" />
          </mxGeometry>
        </mxCell>
        <mxCell id="5fHvvKTVJmoHPn84sj_M-216" value="nazov" style="shape=partialRectangle;connectable=0;fillColor=none;top=0;left=0;bottom=0;right=0;align=left;spacingLeft=6;overflow=hidden;whiteSpace=wrap;html=1;" vertex="1" parent="5fHvvKTVJmoHPn84sj_M-214">
          <mxGeometry x="30" width="150" height="30" as="geometry">
            <mxRectangle width="150" height="30" as="alternateBounds" />
          </mxGeometry>
        </mxCell>
        <mxCell id="5fHvvKTVJmoHPn84sj_M-217" value="" style="shape=tableRow;horizontal=0;startSize=0;swimlaneHead=0;swimlaneBody=0;fillColor=none;collapsible=0;dropTarget=0;points=[[0,0.5],[1,0.5]];portConstraint=eastwest;top=0;left=0;right=0;bottom=0;" vertex="1" parent="5fHvvKTVJmoHPn84sj_M-207">
          <mxGeometry y="120" width="180" height="30" as="geometry" />
        </mxCell>
        <mxCell id="5fHvvKTVJmoHPn84sj_M-218" value="" style="shape=partialRectangle;connectable=0;fillColor=none;top=0;left=0;bottom=0;right=0;editable=1;overflow=hidden;whiteSpace=wrap;html=1;" vertex="1" parent="5fHvvKTVJmoHPn84sj_M-217">
          <mxGeometry width="30" height="30" as="geometry">
            <mxRectangle width="30" height="30" as="alternateBounds" />
          </mxGeometry>
        </mxCell>
        <mxCell id="5fHvvKTVJmoHPn84sj_M-219" value="kategoria" style="shape=partialRectangle;connectable=0;fillColor=none;top=0;left=0;bottom=0;right=0;align=left;spacingLeft=6;overflow=hidden;whiteSpace=wrap;html=1;" vertex="1" parent="5fHvvKTVJmoHPn84sj_M-217">
          <mxGeometry x="30" width="150" height="30" as="geometry">
            <mxRectangle width="150" height="30" as="alternateBounds" />
          </mxGeometry>
        </mxCell>
        <mxCell id="5fHvvKTVJmoHPn84sj_M-220" value="" style="shape=tableRow;horizontal=0;startSize=0;swimlaneHead=0;swimlaneBody=0;fillColor=none;collapsible=0;dropTarget=0;points=[[0,0.5],[1,0.5]];portConstraint=eastwest;top=0;left=0;right=0;bottom=0;" vertex="1" parent="5fHvvKTVJmoHPn84sj_M-207">
          <mxGeometry y="150" width="180" height="30" as="geometry" />
        </mxCell>
        <mxCell id="5fHvvKTVJmoHPn84sj_M-221" value="" style="shape=partialRectangle;connectable=0;fillColor=none;top=0;left=0;bottom=0;right=0;editable=1;overflow=hidden;whiteSpace=wrap;html=1;" vertex="1" parent="5fHvvKTVJmoHPn84sj_M-220">
          <mxGeometry width="30" height="30" as="geometry">
            <mxRectangle width="30" height="30" as="alternateBounds" />
          </mxGeometry>
        </mxCell>
        <mxCell id="5fHvvKTVJmoHPn84sj_M-222" value="stav_funkcnosti" style="shape=partialRectangle;connectable=0;fillColor=none;top=0;left=0;bottom=0;right=0;align=left;spacingLeft=6;overflow=hidden;whiteSpace=wrap;html=1;" vertex="1" parent="5fHvvKTVJmoHPn84sj_M-220">
          <mxGeometry x="30" width="150" height="30" as="geometry">
            <mxRectangle width="150" height="30" as="alternateBounds" />
          </mxGeometry>
        </mxCell>
        <mxCell id="5fHvvKTVJmoHPn84sj_M-223" value="" style="shape=tableRow;horizontal=0;startSize=0;swimlaneHead=0;swimlaneBody=0;fillColor=none;collapsible=0;dropTarget=0;points=[[0,0.5],[1,0.5]];portConstraint=eastwest;top=0;left=0;right=0;bottom=0;" vertex="1" parent="5fHvvKTVJmoHPn84sj_M-207">
          <mxGeometry y="180" width="180" height="30" as="geometry" />
        </mxCell>
        <mxCell id="5fHvvKTVJmoHPn84sj_M-224" value="" style="shape=partialRectangle;connectable=0;fillColor=none;top=0;left=0;bottom=0;right=0;editable=1;overflow=hidden;whiteSpace=wrap;html=1;" vertex="1" parent="5fHvvKTVJmoHPn84sj_M-223">
          <mxGeometry width="30" height="30" as="geometry">
            <mxRectangle width="30" height="30" as="alternateBounds" />
          </mxGeometry>
        </mxCell>
        <mxCell id="5fHvvKTVJmoHPn84sj_M-225" value="aktualne_pozicanie" style="shape=partialRectangle;connectable=0;fillColor=none;top=0;left=0;bottom=0;right=0;align=left;spacingLeft=6;overflow=hidden;whiteSpace=wrap;html=1;" vertex="1" parent="5fHvvKTVJmoHPn84sj_M-223">
          <mxGeometry x="30" width="150" height="30" as="geometry">
            <mxRectangle width="150" height="30" as="alternateBounds" />
          </mxGeometry>
        </mxCell>
        <mxCell id="5fHvvKTVJmoHPn84sj_M-162" value="Material" style="shape=table;startSize=30;container=1;collapsible=1;childLayout=tableLayout;fixedRows=1;rowLines=0;fontStyle=1;align=center;resizeLast=1;html=1;" vertex="1" parent="1">
          <mxGeometry x="1300" y="200" width="180" height="210" as="geometry" />
        </mxCell>
        <mxCell id="5fHvvKTVJmoHPn84sj_M-163" value="" style="shape=tableRow;horizontal=0;startSize=0;swimlaneHead=0;swimlaneBody=0;fillColor=none;collapsible=0;dropTarget=0;points=[[0,0.5],[1,0.5]];portConstraint=eastwest;top=0;left=0;right=0;bottom=1;" vertex="1" parent="5fHvvKTVJmoHPn84sj_M-162">
          <mxGeometry y="30" width="180" height="30" as="geometry" />
        </mxCell>
        <mxCell id="5fHvvKTVJmoHPn84sj_M-164" value="PK" style="shape=partialRectangle;connectable=0;fillColor=none;top=0;left=0;bottom=0;right=0;fontStyle=1;overflow=hidden;whiteSpace=wrap;html=1;" vertex="1" parent="5fHvvKTVJmoHPn84sj_M-163">
          <mxGeometry width="30" height="30" as="geometry">
            <mxRectangle width="30" height="30" as="alternateBounds" />
          </mxGeometry>
        </mxCell>
        <mxCell id="5fHvvKTVJmoHPn84sj_M-165" value="zmaterial_id" style="shape=partialRectangle;connectable=0;fillColor=none;top=0;left=0;bottom=0;right=0;align=left;spacingLeft=6;fontStyle=5;overflow=hidden;whiteSpace=wrap;html=1;" vertex="1" parent="5fHvvKTVJmoHPn84sj_M-163">
          <mxGeometry x="30" width="150" height="30" as="geometry">
            <mxRectangle width="150" height="30" as="alternateBounds" />
          </mxGeometry>
        </mxCell>
        <mxCell id="5fHvvKTVJmoHPn84sj_M-166" value="" style="shape=tableRow;horizontal=0;startSize=0;swimlaneHead=0;swimlaneBody=0;fillColor=none;collapsible=0;dropTarget=0;points=[[0,0.5],[1,0.5]];portConstraint=eastwest;top=0;left=0;right=0;bottom=0;" vertex="1" parent="5fHvvKTVJmoHPn84sj_M-162">
          <mxGeometry y="60" width="180" height="30" as="geometry" />
        </mxCell>
        <mxCell id="5fHvvKTVJmoHPn84sj_M-167" value="FK" style="shape=partialRectangle;connectable=0;fillColor=none;top=0;left=0;bottom=0;right=0;editable=1;overflow=hidden;whiteSpace=wrap;html=1;" vertex="1" parent="5fHvvKTVJmoHPn84sj_M-166">
          <mxGeometry width="30" height="30" as="geometry">
            <mxRectangle width="30" height="30" as="alternateBounds" />
          </mxGeometry>
        </mxCell>
        <mxCell id="5fHvvKTVJmoHPn84sj_M-168" value="sklad_id" style="shape=partialRectangle;connectable=0;fillColor=none;top=0;left=0;bottom=0;right=0;align=left;spacingLeft=6;overflow=hidden;whiteSpace=wrap;html=1;" vertex="1" parent="5fHvvKTVJmoHPn84sj_M-166">
          <mxGeometry x="30" width="150" height="30" as="geometry">
            <mxRectangle width="150" height="30" as="alternateBounds" />
          </mxGeometry>
        </mxCell>
        <mxCell id="5fHvvKTVJmoHPn84sj_M-169" value="" style="shape=tableRow;horizontal=0;startSize=0;swimlaneHead=0;swimlaneBody=0;fillColor=none;collapsible=0;dropTarget=0;points=[[0,0.5],[1,0.5]];portConstraint=eastwest;top=0;left=0;right=0;bottom=0;" vertex="1" parent="5fHvvKTVJmoHPn84sj_M-162">
          <mxGeometry y="90" width="180" height="30" as="geometry" />
        </mxCell>
        <mxCell id="5fHvvKTVJmoHPn84sj_M-170" value="" style="shape=partialRectangle;connectable=0;fillColor=none;top=0;left=0;bottom=0;right=0;editable=1;overflow=hidden;whiteSpace=wrap;html=1;" vertex="1" parent="5fHvvKTVJmoHPn84sj_M-169">
          <mxGeometry width="30" height="30" as="geometry">
            <mxRectangle width="30" height="30" as="alternateBounds" />
          </mxGeometry>
        </mxCell>
        <mxCell id="5fHvvKTVJmoHPn84sj_M-171" value="nazov" style="shape=partialRectangle;connectable=0;fillColor=none;top=0;left=0;bottom=0;right=0;align=left;spacingLeft=6;overflow=hidden;whiteSpace=wrap;html=1;" vertex="1" parent="5fHvvKTVJmoHPn84sj_M-169">
          <mxGeometry x="30" width="150" height="30" as="geometry">
            <mxRectangle width="150" height="30" as="alternateBounds" />
          </mxGeometry>
        </mxCell>
        <mxCell id="5fHvvKTVJmoHPn84sj_M-172" value="" style="shape=tableRow;horizontal=0;startSize=0;swimlaneHead=0;swimlaneBody=0;fillColor=none;collapsible=0;dropTarget=0;points=[[0,0.5],[1,0.5]];portConstraint=eastwest;top=0;left=0;right=0;bottom=0;" vertex="1" parent="5fHvvKTVJmoHPn84sj_M-162">
          <mxGeometry y="120" width="180" height="30" as="geometry" />
        </mxCell>
        <mxCell id="5fHvvKTVJmoHPn84sj_M-173" value="" style="shape=partialRectangle;connectable=0;fillColor=none;top=0;left=0;bottom=0;right=0;editable=1;overflow=hidden;whiteSpace=wrap;html=1;" vertex="1" parent="5fHvvKTVJmoHPn84sj_M-172">
          <mxGeometry width="30" height="30" as="geometry">
            <mxRectangle width="30" height="30" as="alternateBounds" />
          </mxGeometry>
        </mxCell>
        <mxCell id="5fHvvKTVJmoHPn84sj_M-174" value="mnozstvo" style="shape=partialRectangle;connectable=0;fillColor=none;top=0;left=0;bottom=0;right=0;align=left;spacingLeft=6;overflow=hidden;whiteSpace=wrap;html=1;" vertex="1" parent="5fHvvKTVJmoHPn84sj_M-172">
          <mxGeometry x="30" width="150" height="30" as="geometry">
            <mxRectangle width="150" height="30" as="alternateBounds" />
          </mxGeometry>
        </mxCell>
        <mxCell id="5fHvvKTVJmoHPn84sj_M-188" value="" style="shape=tableRow;horizontal=0;startSize=0;swimlaneHead=0;swimlaneBody=0;fillColor=none;collapsible=0;dropTarget=0;points=[[0,0.5],[1,0.5]];portConstraint=eastwest;top=0;left=0;right=0;bottom=0;" vertex="1" parent="5fHvvKTVJmoHPn84sj_M-162">
          <mxGeometry y="150" width="180" height="30" as="geometry" />
        </mxCell>
        <mxCell id="5fHvvKTVJmoHPn84sj_M-189" value="" style="shape=partialRectangle;connectable=0;fillColor=none;top=0;left=0;bottom=0;right=0;editable=1;overflow=hidden;whiteSpace=wrap;html=1;" vertex="1" parent="5fHvvKTVJmoHPn84sj_M-188">
          <mxGeometry width="30" height="30" as="geometry">
            <mxRectangle width="30" height="30" as="alternateBounds" />
          </mxGeometry>
        </mxCell>
        <mxCell id="5fHvvKTVJmoHPn84sj_M-190" value="jednotkova_cena" style="shape=partialRectangle;connectable=0;fillColor=none;top=0;left=0;bottom=0;right=0;align=left;spacingLeft=6;overflow=hidden;whiteSpace=wrap;html=1;" vertex="1" parent="5fHvvKTVJmoHPn84sj_M-188">
          <mxGeometry x="30" width="150" height="30" as="geometry">
            <mxRectangle width="150" height="30" as="alternateBounds" />
          </mxGeometry>
        </mxCell>
        <mxCell id="5fHvvKTVJmoHPn84sj_M-297" value="" style="shape=tableRow;horizontal=0;startSize=0;swimlaneHead=0;swimlaneBody=0;fillColor=none;collapsible=0;dropTarget=0;points=[[0,0.5],[1,0.5]];portConstraint=eastwest;top=0;left=0;right=0;bottom=0;" vertex="1" parent="5fHvvKTVJmoHPn84sj_M-162">
          <mxGeometry y="180" width="180" height="30" as="geometry" />
        </mxCell>
        <mxCell id="5fHvvKTVJmoHPn84sj_M-298" value="" style="shape=partialRectangle;connectable=0;fillColor=none;top=0;left=0;bottom=0;right=0;editable=1;overflow=hidden;whiteSpace=wrap;html=1;" vertex="1" parent="5fHvvKTVJmoHPn84sj_M-297">
          <mxGeometry width="30" height="30" as="geometry">
            <mxRectangle width="30" height="30" as="alternateBounds" />
          </mxGeometry>
        </mxCell>
        <mxCell id="5fHvvKTVJmoHPn84sj_M-299" value="jednotka(kg,ks,litrov)" style="shape=partialRectangle;connectable=0;fillColor=none;top=0;left=0;bottom=0;right=0;align=left;spacingLeft=6;overflow=hidden;whiteSpace=wrap;html=1;" vertex="1" parent="5fHvvKTVJmoHPn84sj_M-297">
          <mxGeometry x="30" width="150" height="30" as="geometry">
            <mxRectangle width="150" height="30" as="alternateBounds" />
          </mxGeometry>
        </mxCell>
        <mxCell id="5fHvvKTVJmoHPn84sj_M-287" style="edgeStyle=orthogonalEdgeStyle;rounded=0;orthogonalLoop=1;jettySize=auto;html=1;entryX=-0.017;entryY=0.312;entryDx=0;entryDy=0;entryPerimeter=0;exitX=0;exitY=0.5;exitDx=0;exitDy=0;" edge="1" parent="1" source="5fHvvKTVJmoHPn84sj_M-36" target="5fHvvKTVJmoHPn84sj_M-137">
          <mxGeometry relative="1" as="geometry">
            <mxPoint x="290" y="160" as="sourcePoint" />
            <mxPoint x="260" y="370" as="targetPoint" />
            <Array as="points">
              <mxPoint x="310" y="160" />
              <mxPoint x="240" y="160" />
              <mxPoint x="240" y="399" />
            </Array>
          </mxGeometry>
        </mxCell>
        <mxCell id="5fHvvKTVJmoHPn84sj_M-314" value="&amp;nbsp;&lt;span style=&quot;background-color: light-dark(#ffffff, var(--ge-dark-color, #121212)); color: light-dark(rgb(0, 0, 0), rgb(255, 255, 255));&quot;&gt;1:N&amp;nbsp;&lt;/span&gt;" style="edgeLabel;html=1;align=center;verticalAlign=middle;resizable=0;points=[];" vertex="1" connectable="0" parent="5fHvvKTVJmoHPn84sj_M-287">
          <mxGeometry x="0.0906" relative="1" as="geometry">
            <mxPoint as="offset" />
          </mxGeometry>
        </mxCell>
        <mxCell id="5fHvvKTVJmoHPn84sj_M-288" style="edgeStyle=orthogonalEdgeStyle;rounded=0;orthogonalLoop=1;jettySize=auto;html=1;exitX=1;exitY=0.5;exitDx=0;exitDy=0;entryX=-0.007;entryY=0.192;entryDx=0;entryDy=0;entryPerimeter=0;" edge="1" parent="1" source="5fHvvKTVJmoHPn84sj_M-137" target="5fHvvKTVJmoHPn84sj_M-105">
          <mxGeometry relative="1" as="geometry">
            <mxPoint x="740" y="405" as="targetPoint" />
          </mxGeometry>
        </mxCell>
        <mxCell id="5fHvvKTVJmoHPn84sj_M-316" value="1:N&amp;nbsp;" style="edgeLabel;html=1;align=center;verticalAlign=middle;resizable=0;points=[];" vertex="1" connectable="0" parent="5fHvvKTVJmoHPn84sj_M-288">
          <mxGeometry x="-0.0163" relative="1" as="geometry">
            <mxPoint as="offset" />
          </mxGeometry>
        </mxCell>
        <mxCell id="5fHvvKTVJmoHPn84sj_M-245" value="Vozidlo" style="shape=table;startSize=30;container=1;collapsible=1;childLayout=tableLayout;fixedRows=1;rowLines=0;fontStyle=1;align=center;resizeLast=1;html=1;" vertex="1" parent="1">
          <mxGeometry x="320" y="680" width="180" height="180" as="geometry" />
        </mxCell>
        <mxCell id="5fHvvKTVJmoHPn84sj_M-246" value="" style="shape=tableRow;horizontal=0;startSize=0;swimlaneHead=0;swimlaneBody=0;fillColor=none;collapsible=0;dropTarget=0;points=[[0,0.5],[1,0.5]];portConstraint=eastwest;top=0;left=0;right=0;bottom=1;" vertex="1" parent="5fHvvKTVJmoHPn84sj_M-245">
          <mxGeometry y="30" width="180" height="30" as="geometry" />
        </mxCell>
        <mxCell id="5fHvvKTVJmoHPn84sj_M-247" value="PK" style="shape=partialRectangle;connectable=0;fillColor=none;top=0;left=0;bottom=0;right=0;fontStyle=1;overflow=hidden;whiteSpace=wrap;html=1;" vertex="1" parent="5fHvvKTVJmoHPn84sj_M-246">
          <mxGeometry width="30" height="30" as="geometry">
            <mxRectangle width="30" height="30" as="alternateBounds" />
          </mxGeometry>
        </mxCell>
        <mxCell id="5fHvvKTVJmoHPn84sj_M-248" value="vozidlo_id" style="shape=partialRectangle;connectable=0;fillColor=none;top=0;left=0;bottom=0;right=0;align=left;spacingLeft=6;fontStyle=5;overflow=hidden;whiteSpace=wrap;html=1;" vertex="1" parent="5fHvvKTVJmoHPn84sj_M-246">
          <mxGeometry x="30" width="150" height="30" as="geometry">
            <mxRectangle width="150" height="30" as="alternateBounds" />
          </mxGeometry>
        </mxCell>
        <mxCell id="5fHvvKTVJmoHPn84sj_M-249" value="" style="shape=tableRow;horizontal=0;startSize=0;swimlaneHead=0;swimlaneBody=0;fillColor=none;collapsible=0;dropTarget=0;points=[[0,0.5],[1,0.5]];portConstraint=eastwest;top=0;left=0;right=0;bottom=0;" vertex="1" parent="5fHvvKTVJmoHPn84sj_M-245">
          <mxGeometry y="60" width="180" height="30" as="geometry" />
        </mxCell>
        <mxCell id="5fHvvKTVJmoHPn84sj_M-250" value="" style="shape=partialRectangle;connectable=0;fillColor=none;top=0;left=0;bottom=0;right=0;editable=1;overflow=hidden;whiteSpace=wrap;html=1;" vertex="1" parent="5fHvvKTVJmoHPn84sj_M-249">
          <mxGeometry width="30" height="30" as="geometry">
            <mxRectangle width="30" height="30" as="alternateBounds" />
          </mxGeometry>
        </mxCell>
        <mxCell id="5fHvvKTVJmoHPn84sj_M-251" value="nazov" style="shape=partialRectangle;connectable=0;fillColor=none;top=0;left=0;bottom=0;right=0;align=left;spacingLeft=6;overflow=hidden;whiteSpace=wrap;html=1;" vertex="1" parent="5fHvvKTVJmoHPn84sj_M-249">
          <mxGeometry x="30" width="150" height="30" as="geometry">
            <mxRectangle width="150" height="30" as="alternateBounds" />
          </mxGeometry>
        </mxCell>
        <mxCell id="5fHvvKTVJmoHPn84sj_M-252" value="" style="shape=tableRow;horizontal=0;startSize=0;swimlaneHead=0;swimlaneBody=0;fillColor=none;collapsible=0;dropTarget=0;points=[[0,0.5],[1,0.5]];portConstraint=eastwest;top=0;left=0;right=0;bottom=0;" vertex="1" parent="5fHvvKTVJmoHPn84sj_M-245">
          <mxGeometry y="90" width="180" height="30" as="geometry" />
        </mxCell>
        <mxCell id="5fHvvKTVJmoHPn84sj_M-253" value="" style="shape=partialRectangle;connectable=0;fillColor=none;top=0;left=0;bottom=0;right=0;editable=1;overflow=hidden;whiteSpace=wrap;html=1;" vertex="1" parent="5fHvvKTVJmoHPn84sj_M-252">
          <mxGeometry width="30" height="30" as="geometry">
            <mxRectangle width="30" height="30" as="alternateBounds" />
          </mxGeometry>
        </mxCell>
        <mxCell id="5fHvvKTVJmoHPn84sj_M-254" value="stav" style="shape=partialRectangle;connectable=0;fillColor=none;top=0;left=0;bottom=0;right=0;align=left;spacingLeft=6;overflow=hidden;whiteSpace=wrap;html=1;" vertex="1" parent="5fHvvKTVJmoHPn84sj_M-252">
          <mxGeometry x="30" width="150" height="30" as="geometry">
            <mxRectangle width="150" height="30" as="alternateBounds" />
          </mxGeometry>
        </mxCell>
        <mxCell id="5fHvvKTVJmoHPn84sj_M-255" value="" style="shape=tableRow;horizontal=0;startSize=0;swimlaneHead=0;swimlaneBody=0;fillColor=none;collapsible=0;dropTarget=0;points=[[0,0.5],[1,0.5]];portConstraint=eastwest;top=0;left=0;right=0;bottom=0;" vertex="1" parent="5fHvvKTVJmoHPn84sj_M-245">
          <mxGeometry y="120" width="180" height="30" as="geometry" />
        </mxCell>
        <mxCell id="5fHvvKTVJmoHPn84sj_M-256" value="" style="shape=partialRectangle;connectable=0;fillColor=none;top=0;left=0;bottom=0;right=0;editable=1;overflow=hidden;whiteSpace=wrap;html=1;" vertex="1" parent="5fHvvKTVJmoHPn84sj_M-255">
          <mxGeometry width="30" height="30" as="geometry">
            <mxRectangle width="30" height="30" as="alternateBounds" />
          </mxGeometry>
        </mxCell>
        <mxCell id="5fHvvKTVJmoHPn84sj_M-257" value="cena_na_km_palivo" style="shape=partialRectangle;connectable=0;fillColor=none;top=0;left=0;bottom=0;right=0;align=left;spacingLeft=6;overflow=hidden;whiteSpace=wrap;html=1;" vertex="1" parent="5fHvvKTVJmoHPn84sj_M-255">
          <mxGeometry x="30" width="150" height="30" as="geometry">
            <mxRectangle width="150" height="30" as="alternateBounds" />
          </mxGeometry>
        </mxCell>
        <mxCell id="5fHvvKTVJmoHPn84sj_M-258" value="" style="shape=tableRow;horizontal=0;startSize=0;swimlaneHead=0;swimlaneBody=0;fillColor=none;collapsible=0;dropTarget=0;points=[[0,0.5],[1,0.5]];portConstraint=eastwest;top=0;left=0;right=0;bottom=0;" vertex="1" parent="5fHvvKTVJmoHPn84sj_M-245">
          <mxGeometry y="150" width="180" height="30" as="geometry" />
        </mxCell>
        <mxCell id="5fHvvKTVJmoHPn84sj_M-259" value="" style="shape=partialRectangle;connectable=0;fillColor=none;top=0;left=0;bottom=0;right=0;editable=1;overflow=hidden;whiteSpace=wrap;html=1;" vertex="1" parent="5fHvvKTVJmoHPn84sj_M-258">
          <mxGeometry width="30" height="30" as="geometry">
            <mxRectangle width="30" height="30" as="alternateBounds" />
          </mxGeometry>
        </mxCell>
        <mxCell id="5fHvvKTVJmoHPn84sj_M-260" value="cena_na_km_amortizacia" style="shape=partialRectangle;connectable=0;fillColor=none;top=0;left=0;bottom=0;right=0;align=left;spacingLeft=6;overflow=hidden;whiteSpace=wrap;html=1;" vertex="1" parent="5fHvvKTVJmoHPn84sj_M-258">
          <mxGeometry x="30" width="150" height="30" as="geometry">
            <mxRectangle width="150" height="30" as="alternateBounds" />
          </mxGeometry>
        </mxCell>
        <mxCell id="5fHvvKTVJmoHPn84sj_M-293" style="edgeStyle=orthogonalEdgeStyle;rounded=0;orthogonalLoop=1;jettySize=auto;html=1;exitX=0;exitY=0.5;exitDx=0;exitDy=0;entryX=0.646;entryY=-0.005;entryDx=0;entryDy=0;entryPerimeter=0;" edge="1" parent="1" source="5fHvvKTVJmoHPn84sj_M-130" target="5fHvvKTVJmoHPn84sj_M-261">
          <mxGeometry relative="1" as="geometry">
            <mxPoint x="730" y="720" as="targetPoint" />
            <Array as="points">
              <mxPoint x="730" y="535" />
              <mxPoint x="730" y="710" />
              <mxPoint x="726" y="710" />
            </Array>
          </mxGeometry>
        </mxCell>
        <mxCell id="5fHvvKTVJmoHPn84sj_M-318" value="1:N&amp;nbsp;" style="edgeLabel;html=1;align=center;verticalAlign=middle;resizable=0;points=[];" vertex="1" connectable="0" parent="5fHvvKTVJmoHPn84sj_M-293">
          <mxGeometry x="-0.0641" y="-1" relative="1" as="geometry">
            <mxPoint as="offset" />
          </mxGeometry>
        </mxCell>
        <mxCell id="5fHvvKTVJmoHPn84sj_M-149" value="Sklad" style="shape=table;startSize=30;container=1;collapsible=1;childLayout=tableLayout;fixedRows=1;rowLines=0;fontStyle=1;align=center;resizeLast=1;html=1;" vertex="1" parent="1">
          <mxGeometry x="1000" y="40" width="180" height="140" as="geometry" />
        </mxCell>
        <mxCell id="5fHvvKTVJmoHPn84sj_M-150" value="" style="shape=tableRow;horizontal=0;startSize=0;swimlaneHead=0;swimlaneBody=0;fillColor=none;collapsible=0;dropTarget=0;points=[[0,0.5],[1,0.5]];portConstraint=eastwest;top=0;left=0;right=0;bottom=1;" vertex="1" parent="5fHvvKTVJmoHPn84sj_M-149">
          <mxGeometry y="30" width="180" height="30" as="geometry" />
        </mxCell>
        <mxCell id="5fHvvKTVJmoHPn84sj_M-151" value="PK" style="shape=partialRectangle;connectable=0;fillColor=none;top=0;left=0;bottom=0;right=0;fontStyle=1;overflow=hidden;whiteSpace=wrap;html=1;" vertex="1" parent="5fHvvKTVJmoHPn84sj_M-150">
          <mxGeometry width="30" height="30" as="geometry">
            <mxRectangle width="30" height="30" as="alternateBounds" />
          </mxGeometry>
        </mxCell>
        <mxCell id="5fHvvKTVJmoHPn84sj_M-152" value="sklad_id" style="shape=partialRectangle;connectable=0;fillColor=none;top=0;left=0;bottom=0;right=0;align=left;spacingLeft=6;fontStyle=5;overflow=hidden;whiteSpace=wrap;html=1;" vertex="1" parent="5fHvvKTVJmoHPn84sj_M-150">
          <mxGeometry x="30" width="150" height="30" as="geometry">
            <mxRectangle width="150" height="30" as="alternateBounds" />
          </mxGeometry>
        </mxCell>
        <mxCell id="5fHvvKTVJmoHPn84sj_M-153" value="" style="shape=tableRow;horizontal=0;startSize=0;swimlaneHead=0;swimlaneBody=0;fillColor=none;collapsible=0;dropTarget=0;points=[[0,0.5],[1,0.5]];portConstraint=eastwest;top=0;left=0;right=0;bottom=0;" vertex="1" parent="5fHvvKTVJmoHPn84sj_M-149">
          <mxGeometry y="60" width="180" height="30" as="geometry" />
        </mxCell>
        <mxCell id="5fHvvKTVJmoHPn84sj_M-154" value="" style="shape=partialRectangle;connectable=0;fillColor=none;top=0;left=0;bottom=0;right=0;editable=1;overflow=hidden;whiteSpace=wrap;html=1;" vertex="1" parent="5fHvvKTVJmoHPn84sj_M-153">
          <mxGeometry width="30" height="30" as="geometry">
            <mxRectangle width="30" height="30" as="alternateBounds" />
          </mxGeometry>
        </mxCell>
        <mxCell id="5fHvvKTVJmoHPn84sj_M-155" value="nazov" style="shape=partialRectangle;connectable=0;fillColor=none;top=0;left=0;bottom=0;right=0;align=left;spacingLeft=6;overflow=hidden;whiteSpace=wrap;html=1;" vertex="1" parent="5fHvvKTVJmoHPn84sj_M-153">
          <mxGeometry x="30" width="150" height="30" as="geometry">
            <mxRectangle width="150" height="30" as="alternateBounds" />
          </mxGeometry>
        </mxCell>
        <mxCell id="5fHvvKTVJmoHPn84sj_M-156" value="" style="shape=tableRow;horizontal=0;startSize=0;swimlaneHead=0;swimlaneBody=0;fillColor=none;collapsible=0;dropTarget=0;points=[[0,0.5],[1,0.5]];portConstraint=eastwest;top=0;left=0;right=0;bottom=0;" vertex="1" parent="5fHvvKTVJmoHPn84sj_M-149">
          <mxGeometry y="90" width="180" height="30" as="geometry" />
        </mxCell>
        <mxCell id="5fHvvKTVJmoHPn84sj_M-157" value="" style="shape=partialRectangle;connectable=0;fillColor=none;top=0;left=0;bottom=0;right=0;editable=1;overflow=hidden;whiteSpace=wrap;html=1;" vertex="1" parent="5fHvvKTVJmoHPn84sj_M-156">
          <mxGeometry width="30" height="30" as="geometry">
            <mxRectangle width="30" height="30" as="alternateBounds" />
          </mxGeometry>
        </mxCell>
        <mxCell id="5fHvvKTVJmoHPn84sj_M-158" value="lokalita" style="shape=partialRectangle;connectable=0;fillColor=none;top=0;left=0;bottom=0;right=0;align=left;spacingLeft=6;overflow=hidden;whiteSpace=wrap;html=1;" vertex="1" parent="5fHvvKTVJmoHPn84sj_M-156">
          <mxGeometry x="30" width="150" height="30" as="geometry">
            <mxRectangle width="150" height="30" as="alternateBounds" />
          </mxGeometry>
        </mxCell>
        <mxCell id="5fHvvKTVJmoHPn84sj_M-159" value="" style="shape=tableRow;horizontal=0;startSize=0;swimlaneHead=0;swimlaneBody=0;fillColor=none;collapsible=0;dropTarget=0;points=[[0,0.5],[1,0.5]];portConstraint=eastwest;top=0;left=0;right=0;bottom=0;" vertex="1" parent="5fHvvKTVJmoHPn84sj_M-149">
          <mxGeometry y="120" width="180" height="20" as="geometry" />
        </mxCell>
        <mxCell id="5fHvvKTVJmoHPn84sj_M-160" value="" style="shape=partialRectangle;connectable=0;fillColor=none;top=0;left=0;bottom=0;right=0;editable=1;overflow=hidden;whiteSpace=wrap;html=1;" vertex="1" parent="5fHvvKTVJmoHPn84sj_M-159">
          <mxGeometry width="30" height="20" as="geometry">
            <mxRectangle width="30" height="20" as="alternateBounds" />
          </mxGeometry>
        </mxCell>
        <mxCell id="5fHvvKTVJmoHPn84sj_M-161" value="" style="shape=partialRectangle;connectable=0;fillColor=none;top=0;left=0;bottom=0;right=0;align=left;spacingLeft=6;overflow=hidden;whiteSpace=wrap;html=1;" vertex="1" parent="5fHvvKTVJmoHPn84sj_M-159">
          <mxGeometry x="30" width="150" height="20" as="geometry">
            <mxRectangle width="150" height="20" as="alternateBounds" />
          </mxGeometry>
        </mxCell>
        <mxCell id="5fHvvKTVJmoHPn84sj_M-296" style="edgeStyle=orthogonalEdgeStyle;rounded=0;orthogonalLoop=1;jettySize=auto;html=1;exitX=0.75;exitY=0;exitDx=0;exitDy=0;entryX=-0.007;entryY=0.067;entryDx=0;entryDy=0;entryPerimeter=0;" edge="1" parent="1" source="5fHvvKTVJmoHPn84sj_M-104" target="5fHvvKTVJmoHPn84sj_M-156">
          <mxGeometry relative="1" as="geometry" />
        </mxCell>
        <mxCell id="5fHvvKTVJmoHPn84sj_M-300" style="edgeStyle=orthogonalEdgeStyle;rounded=0;orthogonalLoop=1;jettySize=auto;html=1;exitX=1;exitY=0.5;exitDx=0;exitDy=0;entryX=0.424;entryY=0.021;entryDx=0;entryDy=0;entryPerimeter=0;" edge="1" parent="1" source="5fHvvKTVJmoHPn84sj_M-159" target="5fHvvKTVJmoHPn84sj_M-162">
          <mxGeometry relative="1" as="geometry" />
        </mxCell>
        <mxCell id="5fHvvKTVJmoHPn84sj_M-317" value="1:N" style="edgeLabel;html=1;align=center;verticalAlign=middle;resizable=0;points=[];" vertex="1" connectable="0" parent="5fHvvKTVJmoHPn84sj_M-300">
          <mxGeometry x="0.3763" y="-1" relative="1" as="geometry">
            <mxPoint as="offset" />
          </mxGeometry>
        </mxCell>
        <mxCell id="5fHvvKTVJmoHPn84sj_M-319" style="edgeStyle=orthogonalEdgeStyle;rounded=0;orthogonalLoop=1;jettySize=auto;html=1;exitX=1;exitY=0;exitDx=0;exitDy=0;entryX=0;entryY=0.041;entryDx=0;entryDy=0;entryPerimeter=0;" edge="1" parent="1" source="5fHvvKTVJmoHPn84sj_M-29" target="5fHvvKTVJmoHPn84sj_M-42">
          <mxGeometry relative="1" as="geometry">
            <Array as="points">
              <mxPoint x="470" y="50" />
              <mxPoint x="470" y="30" />
              <mxPoint x="575" y="30" />
            </Array>
          </mxGeometry>
        </mxCell>
        <mxCell id="5fHvvKTVJmoHPn84sj_M-320" value="1:N&amp;nbsp;" style="edgeLabel;html=1;align=center;verticalAlign=middle;resizable=0;points=[];" vertex="1" connectable="0" parent="5fHvvKTVJmoHPn84sj_M-319">
          <mxGeometry x="0.108" relative="1" as="geometry">
            <mxPoint x="-1" as="offset" />
          </mxGeometry>
        </mxCell>
        <mxCell id="5fHvvKTVJmoHPn84sj_M-321" style="edgeStyle=orthogonalEdgeStyle;rounded=0;orthogonalLoop=1;jettySize=auto;html=1;exitX=1;exitY=0;exitDx=0;exitDy=0;entryX=-0.017;entryY=0.036;entryDx=0;entryDy=0;entryPerimeter=0;" edge="1" parent="1" source="5fHvvKTVJmoHPn84sj_M-104" target="5fHvvKTVJmoHPn84sj_M-201">
          <mxGeometry relative="1" as="geometry">
            <Array as="points">
              <mxPoint x="930" y="360" />
              <mxPoint x="930" y="340" />
              <mxPoint x="975" y="340" />
              <mxPoint x="975" y="361" />
            </Array>
          </mxGeometry>
        </mxCell>
        <mxCell id="5fHvvKTVJmoHPn84sj_M-322" value="1:N&amp;nbsp;" style="edgeLabel;html=1;align=center;verticalAlign=middle;resizable=0;points=[];" vertex="1" connectable="0" parent="5fHvvKTVJmoHPn84sj_M-321">
          <mxGeometry x="-0.1846" y="2" relative="1" as="geometry">
            <mxPoint as="offset" />
          </mxGeometry>
        </mxCell>
        <mxCell id="5fHvvKTVJmoHPn84sj_M-324" style="edgeStyle=orthogonalEdgeStyle;rounded=0;orthogonalLoop=1;jettySize=auto;html=1;exitX=1;exitY=0.5;exitDx=0;exitDy=0;entryX=0.606;entryY=-0.01;entryDx=0;entryDy=0;entryPerimeter=0;" edge="1" parent="1" source="5fHvvKTVJmoHPn84sj_M-153" target="5fHvvKTVJmoHPn84sj_M-207">
          <mxGeometry relative="1" as="geometry" />
        </mxCell>
        <mxCell id="5fHvvKTVJmoHPn84sj_M-325" value="1:N" style="edgeLabel;html=1;align=center;verticalAlign=middle;resizable=0;points=[];" vertex="1" connectable="0" parent="5fHvvKTVJmoHPn84sj_M-324">
          <mxGeometry x="0.1672" y="-1" relative="1" as="geometry">
            <mxPoint as="offset" />
          </mxGeometry>
        </mxCell>
        <mxCell id="5fHvvKTVJmoHPn84sj_M-326" style="edgeStyle=orthogonalEdgeStyle;rounded=0;orthogonalLoop=1;jettySize=auto;html=1;exitX=1;exitY=0.5;exitDx=0;exitDy=0;entryX=0.5;entryY=0;entryDx=0;entryDy=0;" edge="1" parent="1" source="5fHvvKTVJmoHPn84sj_M-130" target="5fHvvKTVJmoHPn84sj_M-226">
          <mxGeometry relative="1" as="geometry" />
        </mxCell>
        <mxCell id="5fHvvKTVJmoHPn84sj_M-327" value="1:N" style="edgeLabel;html=1;align=center;verticalAlign=middle;resizable=0;points=[];" vertex="1" connectable="0" parent="5fHvvKTVJmoHPn84sj_M-326">
          <mxGeometry x="0.3312" y="-1" relative="1" as="geometry">
            <mxPoint as="offset" />
          </mxGeometry>
        </mxCell>
        <mxCell id="5fHvvKTVJmoHPn84sj_M-328" style="edgeStyle=orthogonalEdgeStyle;rounded=0;orthogonalLoop=1;jettySize=auto;html=1;exitX=0.014;exitY=0.108;exitDx=0;exitDy=0;entryX=0;entryY=0.5;entryDx=0;entryDy=0;exitPerimeter=0;" edge="1" parent="1" source="5fHvvKTVJmoHPn84sj_M-36" target="5fHvvKTVJmoHPn84sj_M-242">
          <mxGeometry relative="1" as="geometry">
            <Array as="points">
              <mxPoint x="180" y="143" />
              <mxPoint x="180" y="1050" />
              <mxPoint x="890" y="1050" />
              <mxPoint x="890" y="855" />
            </Array>
          </mxGeometry>
        </mxCell>
        <mxCell id="5fHvvKTVJmoHPn84sj_M-329" value="1:N" style="edgeLabel;html=1;align=center;verticalAlign=middle;resizable=0;points=[];" vertex="1" connectable="0" parent="5fHvvKTVJmoHPn84sj_M-328">
          <mxGeometry x="-0.4699" y="-1" relative="1" as="geometry">
            <mxPoint y="-1" as="offset" />
          </mxGeometry>
        </mxCell>
        <mxCell id="5fHvvKTVJmoHPn84sj_M-330" style="edgeStyle=orthogonalEdgeStyle;rounded=0;orthogonalLoop=1;jettySize=auto;html=1;exitX=1;exitY=0.5;exitDx=0;exitDy=0;entryX=0;entryY=0.5;entryDx=0;entryDy=0;" edge="1" parent="1" source="5fHvvKTVJmoHPn84sj_M-255" target="5fHvvKTVJmoHPn84sj_M-265">
          <mxGeometry relative="1" as="geometry">
            <mxPoint x="560" y="770" as="targetPoint" />
          </mxGeometry>
        </mxCell>
        <mxCell id="5fHvvKTVJmoHPn84sj_M-331" value="1:N" style="edgeLabel;html=1;align=center;verticalAlign=middle;resizable=0;points=[];" vertex="1" connectable="0" parent="5fHvvKTVJmoHPn84sj_M-330">
          <mxGeometry x="-0.3385" relative="1" as="geometry">
            <mxPoint as="offset" />
          </mxGeometry>
        </mxCell>
        <mxCell id="5fHvvKTVJmoHPn84sj_M-332" style="edgeStyle=orthogonalEdgeStyle;rounded=0;orthogonalLoop=1;jettySize=auto;html=1;exitX=0;exitY=0.5;exitDx=0;exitDy=0;entryX=-0.014;entryY=-0.1;entryDx=0;entryDy=0;entryPerimeter=0;" edge="1" parent="1" source="5fHvvKTVJmoHPn84sj_M-39" target="5fHvvKTVJmoHPn84sj_M-274">
          <mxGeometry relative="1" as="geometry" />
        </mxCell>
        <mxCell id="5fHvvKTVJmoHPn84sj_M-333" value="1:N" style="edgeLabel;html=1;align=center;verticalAlign=middle;resizable=0;points=[];" vertex="1" connectable="0" parent="5fHvvKTVJmoHPn84sj_M-332">
          <mxGeometry x="-0.2819" y="-1" relative="1" as="geometry">
            <mxPoint y="-1" as="offset" />
          </mxGeometry>
        </mxCell>
        <mxCell id="5fHvvKTVJmoHPn84sj_M-334" value="UlohaNaProjekte" style="shape=table;startSize=30;container=1;collapsible=1;childLayout=tableLayout;fixedRows=1;rowLines=0;fontStyle=1;align=center;resizeLast=1;html=1;" vertex="1" parent="1">
          <mxGeometry x="520" y="430" width="180" height="270" as="geometry" />
        </mxCell>
        <mxCell id="5fHvvKTVJmoHPn84sj_M-335" value="" style="shape=tableRow;horizontal=0;startSize=0;swimlaneHead=0;swimlaneBody=0;fillColor=none;collapsible=0;dropTarget=0;points=[[0,0.5],[1,0.5]];portConstraint=eastwest;top=0;left=0;right=0;bottom=1;" vertex="1" parent="5fHvvKTVJmoHPn84sj_M-334">
          <mxGeometry y="30" width="180" height="30" as="geometry" />
        </mxCell>
        <mxCell id="5fHvvKTVJmoHPn84sj_M-336" value="PK" style="shape=partialRectangle;connectable=0;fillColor=none;top=0;left=0;bottom=0;right=0;fontStyle=1;overflow=hidden;whiteSpace=wrap;html=1;" vertex="1" parent="5fHvvKTVJmoHPn84sj_M-335">
          <mxGeometry width="30" height="30" as="geometry">
            <mxRectangle width="30" height="30" as="alternateBounds" />
          </mxGeometry>
        </mxCell>
        <mxCell id="5fHvvKTVJmoHPn84sj_M-337" value="uloha_id" style="shape=partialRectangle;connectable=0;fillColor=none;top=0;left=0;bottom=0;right=0;align=left;spacingLeft=6;fontStyle=5;overflow=hidden;whiteSpace=wrap;html=1;" vertex="1" parent="5fHvvKTVJmoHPn84sj_M-335">
          <mxGeometry x="30" width="150" height="30" as="geometry">
            <mxRectangle width="150" height="30" as="alternateBounds" />
          </mxGeometry>
        </mxCell>
        <mxCell id="5fHvvKTVJmoHPn84sj_M-338" value="" style="shape=tableRow;horizontal=0;startSize=0;swimlaneHead=0;swimlaneBody=0;fillColor=none;collapsible=0;dropTarget=0;points=[[0,0.5],[1,0.5]];portConstraint=eastwest;top=0;left=0;right=0;bottom=0;" vertex="1" parent="5fHvvKTVJmoHPn84sj_M-334">
          <mxGeometry y="60" width="180" height="30" as="geometry" />
        </mxCell>
        <mxCell id="5fHvvKTVJmoHPn84sj_M-339" value="FK" style="shape=partialRectangle;connectable=0;fillColor=none;top=0;left=0;bottom=0;right=0;editable=1;overflow=hidden;whiteSpace=wrap;html=1;" vertex="1" parent="5fHvvKTVJmoHPn84sj_M-338">
          <mxGeometry width="30" height="30" as="geometry">
            <mxRectangle width="30" height="30" as="alternateBounds" />
          </mxGeometry>
        </mxCell>
        <mxCell id="5fHvvKTVJmoHPn84sj_M-340" value="id_projekt" style="shape=partialRectangle;connectable=0;fillColor=none;top=0;left=0;bottom=0;right=0;align=left;spacingLeft=6;overflow=hidden;whiteSpace=wrap;html=1;" vertex="1" parent="5fHvvKTVJmoHPn84sj_M-338">
          <mxGeometry x="30" width="150" height="30" as="geometry">
            <mxRectangle width="150" height="30" as="alternateBounds" />
          </mxGeometry>
        </mxCell>
        <mxCell id="5fHvvKTVJmoHPn84sj_M-341" value="" style="shape=tableRow;horizontal=0;startSize=0;swimlaneHead=0;swimlaneBody=0;fillColor=none;collapsible=0;dropTarget=0;points=[[0,0.5],[1,0.5]];portConstraint=eastwest;top=0;left=0;right=0;bottom=0;" vertex="1" parent="5fHvvKTVJmoHPn84sj_M-334">
          <mxGeometry y="90" width="180" height="30" as="geometry" />
        </mxCell>
        <mxCell id="5fHvvKTVJmoHPn84sj_M-342" value="FK" style="shape=partialRectangle;connectable=0;fillColor=none;top=0;left=0;bottom=0;right=0;editable=1;overflow=hidden;whiteSpace=wrap;html=1;" vertex="1" parent="5fHvvKTVJmoHPn84sj_M-341">
          <mxGeometry width="30" height="30" as="geometry">
            <mxRectangle width="30" height="30" as="alternateBounds" />
          </mxGeometry>
        </mxCell>
        <mxCell id="5fHvvKTVJmoHPn84sj_M-343" value="id_zamestnanec" style="shape=partialRectangle;connectable=0;fillColor=none;top=0;left=0;bottom=0;right=0;align=left;spacingLeft=6;overflow=hidden;whiteSpace=wrap;html=1;" vertex="1" parent="5fHvvKTVJmoHPn84sj_M-341">
          <mxGeometry x="30" width="150" height="30" as="geometry">
            <mxRectangle width="150" height="30" as="alternateBounds" />
          </mxGeometry>
        </mxCell>
        <mxCell id="5fHvvKTVJmoHPn84sj_M-344" value="" style="shape=tableRow;horizontal=0;startSize=0;swimlaneHead=0;swimlaneBody=0;fillColor=none;collapsible=0;dropTarget=0;points=[[0,0.5],[1,0.5]];portConstraint=eastwest;top=0;left=0;right=0;bottom=0;" vertex="1" parent="5fHvvKTVJmoHPn84sj_M-334">
          <mxGeometry y="120" width="180" height="30" as="geometry" />
        </mxCell>
        <mxCell id="5fHvvKTVJmoHPn84sj_M-345" value="" style="shape=partialRectangle;connectable=0;fillColor=none;top=0;left=0;bottom=0;right=0;editable=1;overflow=hidden;whiteSpace=wrap;html=1;" vertex="1" parent="5fHvvKTVJmoHPn84sj_M-344">
          <mxGeometry width="30" height="30" as="geometry">
            <mxRectangle width="30" height="30" as="alternateBounds" />
          </mxGeometry>
        </mxCell>
        <mxCell id="5fHvvKTVJmoHPn84sj_M-346" value="nazov" style="shape=partialRectangle;connectable=0;fillColor=none;top=0;left=0;bottom=0;right=0;align=left;spacingLeft=6;overflow=hidden;whiteSpace=wrap;html=1;" vertex="1" parent="5fHvvKTVJmoHPn84sj_M-344">
          <mxGeometry x="30" width="150" height="30" as="geometry">
            <mxRectangle width="150" height="30" as="alternateBounds" />
          </mxGeometry>
        </mxCell>
        <mxCell id="5fHvvKTVJmoHPn84sj_M-347" value="" style="shape=tableRow;horizontal=0;startSize=0;swimlaneHead=0;swimlaneBody=0;fillColor=none;collapsible=0;dropTarget=0;points=[[0,0.5],[1,0.5]];portConstraint=eastwest;top=0;left=0;right=0;bottom=0;" vertex="1" parent="5fHvvKTVJmoHPn84sj_M-334">
          <mxGeometry y="150" width="180" height="30" as="geometry" />
        </mxCell>
        <mxCell id="5fHvvKTVJmoHPn84sj_M-348" value="" style="shape=partialRectangle;connectable=0;fillColor=none;top=0;left=0;bottom=0;right=0;editable=1;overflow=hidden;whiteSpace=wrap;html=1;" vertex="1" parent="5fHvvKTVJmoHPn84sj_M-347">
          <mxGeometry width="30" height="30" as="geometry">
            <mxRectangle width="30" height="30" as="alternateBounds" />
          </mxGeometry>
        </mxCell>
        <mxCell id="5fHvvKTVJmoHPn84sj_M-349" value="popis" style="shape=partialRectangle;connectable=0;fillColor=none;top=0;left=0;bottom=0;right=0;align=left;spacingLeft=6;overflow=hidden;whiteSpace=wrap;html=1;" vertex="1" parent="5fHvvKTVJmoHPn84sj_M-347">
          <mxGeometry x="30" width="150" height="30" as="geometry">
            <mxRectangle width="150" height="30" as="alternateBounds" />
          </mxGeometry>
        </mxCell>
        <mxCell id="5fHvvKTVJmoHPn84sj_M-350" value="" style="shape=tableRow;horizontal=0;startSize=0;swimlaneHead=0;swimlaneBody=0;fillColor=none;collapsible=0;dropTarget=0;points=[[0,0.5],[1,0.5]];portConstraint=eastwest;top=0;left=0;right=0;bottom=0;" vertex="1" parent="5fHvvKTVJmoHPn84sj_M-334">
          <mxGeometry y="180" width="180" height="30" as="geometry" />
        </mxCell>
        <mxCell id="5fHvvKTVJmoHPn84sj_M-351" value="" style="shape=partialRectangle;connectable=0;fillColor=none;top=0;left=0;bottom=0;right=0;editable=1;overflow=hidden;whiteSpace=wrap;html=1;" vertex="1" parent="5fHvvKTVJmoHPn84sj_M-350">
          <mxGeometry width="30" height="30" as="geometry">
            <mxRectangle width="30" height="30" as="alternateBounds" />
          </mxGeometry>
        </mxCell>
        <mxCell id="5fHvvKTVJmoHPn84sj_M-352" value="datum_zacatia" style="shape=partialRectangle;connectable=0;fillColor=none;top=0;left=0;bottom=0;right=0;align=left;spacingLeft=6;overflow=hidden;whiteSpace=wrap;html=1;" vertex="1" parent="5fHvvKTVJmoHPn84sj_M-350">
          <mxGeometry x="30" width="150" height="30" as="geometry">
            <mxRectangle width="150" height="30" as="alternateBounds" />
          </mxGeometry>
        </mxCell>
        <mxCell id="5fHvvKTVJmoHPn84sj_M-353" value="" style="shape=tableRow;horizontal=0;startSize=0;swimlaneHead=0;swimlaneBody=0;fillColor=none;collapsible=0;dropTarget=0;points=[[0,0.5],[1,0.5]];portConstraint=eastwest;top=0;left=0;right=0;bottom=0;" vertex="1" parent="5fHvvKTVJmoHPn84sj_M-334">
          <mxGeometry y="210" width="180" height="30" as="geometry" />
        </mxCell>
        <mxCell id="5fHvvKTVJmoHPn84sj_M-354" value="" style="shape=partialRectangle;connectable=0;fillColor=none;top=0;left=0;bottom=0;right=0;editable=1;overflow=hidden;whiteSpace=wrap;html=1;" vertex="1" parent="5fHvvKTVJmoHPn84sj_M-353">
          <mxGeometry width="30" height="30" as="geometry">
            <mxRectangle width="30" height="30" as="alternateBounds" />
          </mxGeometry>
        </mxCell>
        <mxCell id="5fHvvKTVJmoHPn84sj_M-355" value="stav" style="shape=partialRectangle;connectable=0;fillColor=none;top=0;left=0;bottom=0;right=0;align=left;spacingLeft=6;overflow=hidden;whiteSpace=wrap;html=1;" vertex="1" parent="5fHvvKTVJmoHPn84sj_M-353">
          <mxGeometry x="30" width="150" height="30" as="geometry">
            <mxRectangle width="150" height="30" as="alternateBounds" />
          </mxGeometry>
        </mxCell>
        <mxCell id="5fHvvKTVJmoHPn84sj_M-378" value="" style="shape=tableRow;horizontal=0;startSize=0;swimlaneHead=0;swimlaneBody=0;fillColor=none;collapsible=0;dropTarget=0;points=[[0,0.5],[1,0.5]];portConstraint=eastwest;top=0;left=0;right=0;bottom=0;" vertex="1" parent="5fHvvKTVJmoHPn84sj_M-334">
          <mxGeometry y="240" width="180" height="30" as="geometry" />
        </mxCell>
        <mxCell id="5fHvvKTVJmoHPn84sj_M-379" value="" style="shape=partialRectangle;connectable=0;fillColor=none;top=0;left=0;bottom=0;right=0;editable=1;overflow=hidden;whiteSpace=wrap;html=1;" vertex="1" parent="5fHvvKTVJmoHPn84sj_M-378">
          <mxGeometry width="30" height="30" as="geometry">
            <mxRectangle width="30" height="30" as="alternateBounds" />
          </mxGeometry>
        </mxCell>
        <mxCell id="5fHvvKTVJmoHPn84sj_M-380" value="deadline" style="shape=partialRectangle;connectable=0;fillColor=none;top=0;left=0;bottom=0;right=0;align=left;spacingLeft=6;overflow=hidden;whiteSpace=wrap;html=1;" vertex="1" parent="5fHvvKTVJmoHPn84sj_M-378">
          <mxGeometry x="30" width="150" height="30" as="geometry">
            <mxRectangle width="150" height="30" as="alternateBounds" />
          </mxGeometry>
        </mxCell>
        <mxCell id="5fHvvKTVJmoHPn84sj_M-381" style="edgeStyle=orthogonalEdgeStyle;rounded=0;orthogonalLoop=1;jettySize=auto;html=1;exitX=1;exitY=0.5;exitDx=0;exitDy=0;entryX=0;entryY=0.5;entryDx=0;entryDy=0;" edge="1" parent="1" source="5fHvvKTVJmoHPn84sj_M-335" target="5fHvvKTVJmoHPn84sj_M-111">
          <mxGeometry relative="1" as="geometry" />
        </mxCell>
        <mxCell id="5fHvvKTVJmoHPn84sj_M-383" value="1:N&amp;nbsp;" style="edgeLabel;html=1;align=center;verticalAlign=middle;resizable=0;points=[];" vertex="1" connectable="0" parent="5fHvvKTVJmoHPn84sj_M-381">
          <mxGeometry x="-0.0159" y="-1" relative="1" as="geometry">
            <mxPoint as="offset" />
          </mxGeometry>
        </mxCell>
        <mxCell id="5fHvvKTVJmoHPn84sj_M-384" style="edgeStyle=orthogonalEdgeStyle;rounded=0;orthogonalLoop=1;jettySize=auto;html=1;exitX=1;exitY=0.5;exitDx=0;exitDy=0;entryX=0.25;entryY=0;entryDx=0;entryDy=0;" edge="1" parent="1" source="5fHvvKTVJmoHPn84sj_M-39" target="5fHvvKTVJmoHPn84sj_M-334">
          <mxGeometry relative="1" as="geometry" />
        </mxCell>
        <mxCell id="5fHvvKTVJmoHPn84sj_M-385" value="1:N" style="edgeLabel;html=1;align=center;verticalAlign=middle;resizable=0;points=[];" vertex="1" connectable="0" parent="5fHvvKTVJmoHPn84sj_M-384">
          <mxGeometry x="0.2323" y="-1" relative="1" as="geometry">
            <mxPoint as="offset" />
          </mxGeometry>
        </mxCell>
      </root>
    </mxGraphModel>
  </diagram>
</mxfile>
